<svg width="24" height="24" viewBox="0 0 24 24" fill="none" xmlns="http://www.w3.org/2000/svg">
<path d="M4.25 0C1.9 0 0 1.9 0 4.25V19.15C0 21.5 1.9 23.4 4.25 23.4H19.75C22.1 23.4 24 21.5 24 19.15V4.25C24 1.9 22.1 0 19.75 0H4.25ZM18.32 5.13H20.35C20.4 5.12 20.44 5.16 20.45 5.2V14.74C20.45 14.92 20.46 15.12 20.47 15.34C20.49 15.55 20.5 15.75 20.51 15.92C20.51 15.99 20.48 16.05 20.41 16.08C19.89 16.3 19.34 16.46 18.78 16.56C18.27 16.65 17.76 16.7 17.24 16.7C16.5 16.71 15.76 16.56 15.09 16.25C14.46 15.96 13.94 15.48 13.58 14.89C13.21 14.28 13.03 13.52 13.03 12.61C13.0204 11.8631 13.2146 11.1276 13.5916 10.4828C13.9687 9.8379 14.5144 9.30799 15.17 8.95C15.87 8.56 16.71 8.37 17.7 8.37C17.75 8.37 17.82 8.37 17.91 8.38C18 8.39 18.1 8.39 18.22 8.4V5.24C18.22 5.17 18.25 5.13 18.32 5.13ZM3.68 6H5.95C6 6 6.05 6.01 6.09 6.02C6.13 6.04 6.16 6.07 6.19 6.11C6.38 6.54 6.6 6.97 6.83 7.4C7.07 7.83 7.3 8.25 7.55 8.67C7.79 9.09 8.01 9.51 8.22 9.94H8.24C8.45 9.5 8.67 9.07 8.89 8.65C9.11 8.23 9.34 7.81 9.57 7.39C9.8 6.97 10.02 6.54 10.24 6.13C10.25 6.09 10.27 6.05 10.3 6.03C10.3398 6.00887 10.3857 6.00182 10.43 6.01H12.54C12.59 6 12.64 6.03 12.65 6.08C12.66 6.09 12.64 6.13 12.62 6.15L9.62 11.1L12.82 16.35C12.84 16.39 12.85 16.43 12.84 16.47C12.83 16.51 12.79 16.48 12.73 16.49H10.44C10.28 16.49 10.17 16.48 10.1 16.38C9.89 15.96 9.67 15.55 9.46 15.13C9.25 14.72 9.02 14.3 8.78 13.87C8.54 13.44 8.3 13.01 8.06 12.57H8.04C7.83 13 7.6 13.43 7.37 13.86C7.14 14.29 6.91 14.72 6.69 15.14C6.46 15.56 6.23 15.99 6 16.4C5.96 16.5 5.88 16.51 5.77 16.51H3.57C3.53 16.51 3.5 16.53 3.5 16.48C3.4956 16.4613 3.4951 16.4418 3.49854 16.4229C3.50198 16.404 3.50929 16.386 3.52 16.37L6.63 11.27L3.6 6.14C3.57 6.1 3.56 6.06 3.58 6.04C3.6 6.01 3.64 6 3.68 6ZM17.62 10.23C17.23 10.23 16.84 10.31 16.49 10.49C16.15 10.66 15.86 10.91 15.64 11.23C15.42 11.55 15.31 11.98 15.31 12.5C15.3 12.85 15.36 13.2 15.48 13.53C15.58 13.8 15.73 14.04 15.93 14.24C16.12 14.42 16.35 14.56 16.61 14.64C16.88 14.73 17.16 14.77 17.44 14.77C17.59 14.77 17.73 14.76 17.86 14.75C17.99 14.76 18.1 14.74 18.22 14.7V10.3C18.0234 10.2534 17.822 10.2299 17.62 10.23Z" fill="#33E1FF"/>
</svg>
