<svg width="24" height="24" viewBox="0 0 24 24" fill="none" xmlns="http://www.w3.org/2000/svg">
<path d="M23.9316 1.31519L22.6845 0.067672C22.6374 0.0205959 22.5786 0 22.5168 0C22.455 0 22.3962 0.0235382 22.3492 0.067672L20.1108 2.30673C19.1377 1.64723 17.9889 1.29561 16.8135 1.29754C15.3075 1.29754 13.8016 1.87128 12.6515 3.0217L9.65425 6.01986C9.61046 6.0641 9.58589 6.12384 9.58589 6.1861C9.58589 6.24836 9.61046 6.3081 9.65425 6.35234L17.6459 14.3465C17.693 14.3935 17.7518 14.4141 17.8136 14.4141C17.8724 14.4141 17.9342 14.3906 17.9812 14.3465L20.9785 11.3483C23.0051 9.31813 23.2433 6.17874 21.6932 3.88967L23.9316 1.65061C24.0228 1.55645 24.0228 1.4064 23.9316 1.31519ZM13.9663 13.0224C13.9221 12.9786 13.8623 12.9541 13.8001 12.9541C13.7379 12.9541 13.6781 12.9786 13.6339 13.0224L11.675 14.982L9.01892 12.3251L10.9808 10.3626C11.072 10.2714 11.072 10.1214 10.9808 10.0302L9.91015 8.95918C9.86592 8.91537 9.8062 8.8908 9.74396 8.8908C9.68172 8.8908 9.622 8.91537 9.57778 8.95918L7.61589 10.9217L6.3511 9.65649C6.32915 9.63451 6.30298 9.61719 6.27417 9.60556C6.24536 9.59393 6.2145 9.58824 6.18344 9.58882C6.12462 9.58882 6.06285 9.61236 6.01579 9.65649L3.02148 12.6547C0.994886 14.6819 0.756636 17.8242 2.30673 20.1133L0.0683574 22.3523C0.0245658 22.3966 0 22.4563 0 22.5186C0 22.5808 0.0245658 22.6406 0.0683574 22.6848L1.31549 23.9323C1.36256 23.9794 1.42138 24 1.48315 24C1.54492 24 1.60375 23.9765 1.65081 23.9323L3.88918 21.6933C4.88042 22.367 6.03344 22.7025 7.18645 22.7025C8.69243 22.7025 10.1984 22.1287 11.3485 20.9783L14.3457 17.9801C14.4369 17.8889 14.4369 17.7389 14.3457 17.6477L13.0809 16.3825L15.0428 14.42C15.134 14.3288 15.134 14.1787 15.0428 14.0875L13.9663 13.0224Z" fill="#33E1FF"/>
</svg>
