<svg width="24" height="24" viewBox="0 0 24 24" fill="none" xmlns="http://www.w3.org/2000/svg">
<path d="M12 1.09131e-05C5.372 1.09131e-05 0 5.37301 0 12C0 18.628 5.372 24 12 24C18.627 24 24 18.628 24 12C24.0007 10.869 23.8414 9.74348 23.527 8.65701C23.4681 8.51394 23.3562 8.39915 23.2147 8.33662C23.0731 8.27408 22.9129 8.26864 22.7675 8.32142C22.6221 8.37421 22.5026 8.48113 22.4341 8.61988C22.3657 8.75862 22.3534 8.91846 22.4 9.06601H22.398C22.663 10.009 22.8 10.994 22.8 12C22.8039 13.4189 22.5264 14.8244 21.9834 16.1353C21.4405 17.4462 20.643 18.6364 19.637 19.637C18.6364 20.643 17.4462 21.4405 16.1353 21.9834C14.8244 22.5264 13.4189 22.8039 12 22.8C10.5811 22.8039 9.17558 22.5264 7.86469 21.9834C6.5538 21.4405 5.36361 20.643 4.363 19.637C3.35703 18.6364 2.5595 17.4462 2.01657 16.1353C1.47364 14.8244 1.1961 13.4189 1.2 12C1.1961 10.5811 1.47364 9.17559 2.01657 7.8647C2.5595 6.55381 3.35703 5.36362 4.363 4.36301C5.36361 3.35704 6.5538 2.55951 7.86469 2.01658C9.17558 1.47365 10.5811 1.19611 12 1.20001C14.576 1.20001 17.013 2.09601 18.958 3.74001C18.8351 4.05202 18.8228 4.39675 18.9233 4.71669C19.0238 5.03663 19.231 5.31245 19.5102 5.49815C19.7895 5.68384 20.1239 5.76817 20.4578 5.73709C20.7918 5.706 21.1049 5.56138 21.3451 5.32733C21.5853 5.09328 21.7379 4.78397 21.7776 4.45097C21.8173 4.11798 21.7417 3.78143 21.5633 3.49748C21.3849 3.21352 21.1145 2.99931 20.7973 2.89059C20.48 2.78186 20.1351 2.78519 19.82 2.90001C17.6462 1.02554 14.8704 -0.00386639 12 1.09131e-05ZM10.56 5.88001L6.36 16.782H8.99L9.677 14.934H13.646L12.927 12.892H10.314L12.014 8.20101L15.038 16.781H17.669L13.47 5.88001H10.56Z" fill="#33E1FF"/>
</svg>
