<svg width="20" height="12" viewBox="0 0 20 12" fill="none" xmlns="http://www.w3.org/2000/svg">
<path d="M5.64018 4.34C5.64018 4.59 5.66018 4.79 5.71018 4.96C5.76018 5.08 5.83018 5.24 5.92018 5.42C5.96018 5.46 5.97018 5.52 5.97018 5.57C5.97018 5.64 5.93018 5.7 5.84018 5.77L5.42018 6.05C5.36018 6.09 5.30018 6.11 5.25018 6.11C5.18018 6.11 5.12018 6.07 5.05018 6.01C4.96018 5.91 4.88018 5.81 4.81018 5.7C4.75018 5.59 4.68018 5.46 4.61018 5.31C4.09018 5.92 3.44018 6.23 2.65018 6.23C2.09018 6.23 1.65018 6.07 1.32018 5.75C1.00018 5.43 0.830181 5 0.830181 4.46C0.830181 3.91 1.03018 3.46 1.43018 3.1C1.84018 2.76 2.38018 2.58 3.06018 2.58C3.29018 2.58 3.50018 2.6 3.77018 2.64C4.00018 2.67 4.27018 2.72 4.53018 2.78V2.3C4.53018 1.79 4.43018 1.46 4.22018 1.23C4.00018 1.02 3.65018 0.93 3.14018 0.93C2.90018 0.93 2.66018 0.96 2.42018 1.01C2.17018 1.07 1.93018 1.14 1.70018 1.24C1.59018 1.28 1.50018 1.31 1.47018 1.32C1.42018 1.34 1.39018 1.34 1.36018 1.34C1.27018 1.34 1.22018 1.28 1.22018 1.14V0.81C1.22018 0.71 1.23018 0.63 1.27018 0.58C1.30018 0.53 1.36018 0.49 1.45018 0.46C1.69018 0.32 1.96018 0.22 2.29018 0.14C2.62965 0.0512401 2.97931 0.00753204 3.33018 0.0100002C4.12018 0.0100002 4.70018 0.19 5.07018 0.55C5.44018 0.91 5.62018 1.46 5.62018 2.19V4.34H5.64018ZM2.94018 5.36C3.16018 5.36 3.38018 5.32 3.62018 5.24C3.86018 5.16 4.07018 5.01 4.25018 4.81C4.36018 4.68 4.44018 4.54 4.50018 4.38C4.50018 4.22 4.55018 4.03 4.55018 3.8V3.53C4.35018 3.46 4.15018 3.46 3.93018 3.41C3.72421 3.3875 3.51734 3.37415 3.31018 3.37C2.86018 3.37 2.54018 3.46 2.32018 3.64C2.10018 3.82 2.00018 4.07 2.00018 4.4C2.00018 4.72 2.07018 4.96 2.24018 5.11C2.40018 5.28 2.63018 5.36 2.94018 5.36ZM8.28018 6.07C8.18337 6.07289 8.0873 6.05231 8.00018 6.01C7.97018 5.96 7.92018 5.87 7.88018 5.75L6.32018 0.61C6.28018 0.46 6.26018 0.39 6.26018 0.34C6.26018 0.23 6.31018 0.17 6.42018 0.17H7.07018C7.20018 0.17 7.29018 0.19 7.33018 0.24C7.39018 0.28 7.43018 0.37 7.47018 0.5L8.58018 4.9L9.62018 0.5C9.65018 0.37 9.69018 0.28 9.75018 0.24C9.80018 0.2 9.89018 0.17 10.0002 0.17H10.5502C10.6702 0.17 10.7602 0.19 10.8102 0.24C10.8602 0.28 10.9102 0.37 10.9402 0.5L12.0002 4.96L13.1402 0.5C13.1802 0.37 13.2302 0.28 13.2702 0.24C13.3302 0.2 13.4102 0.17 13.5302 0.17H14.1502C14.2602 0.17 14.3202 0.23 14.3202 0.34C14.3202 0.37 14.3102 0.41 14.3002 0.46C14.3002 0.46 14.2802 0.54 14.2602 0.61L12.6502 5.75C12.6102 5.89 12.5702 5.96 12.5002 6.01C12.4602 6.05 12.3702 6.08 12.2602 6.08H11.6902C11.5602 6.08 11.5002 6.06 11.4202 6.01C11.3529 5.93871 11.3108 5.84742 11.3002 5.75L10.2702 1.46L9.24018 5.74C9.21018 5.87 9.17018 5.96 9.12018 6.01C9.03761 6.05499 8.94403 6.07579 8.85018 6.07H8.28018ZM16.8302 6.25C16.5002 6.25 16.1302 6.21 15.8002 6.13C15.4702 6.05 15.2102 5.96 15.0402 5.87C14.9533 5.82823 14.8804 5.76225 14.8302 5.68C14.803 5.62393 14.7893 5.5623 14.7902 5.5V5.16C14.7902 5.02 14.8402 4.96 14.9402 4.96H15.0602C15.1002 4.96 15.1602 5.01 15.2302 5.04C15.4502 5.14 15.7002 5.22 15.9602 5.27C16.2302 5.32 16.5002 5.35 16.7502 5.35C17.1702 5.35 17.5002 5.28 17.7202 5.13C17.9502 4.96 18.0702 4.77 18.0702 4.5C18.0702 4.31 18.0002 4.16 17.8902 4.03C17.7702 3.91 17.5402 3.79 17.2202 3.69L16.2502 3.39C15.7702 3.23 15.4102 3.01 15.1902 2.71C14.9755 2.4323 14.8594 2.09101 14.8602 1.74C14.8602 1.46 14.9202 1.22 15.0402 1.01C15.1602 0.79 15.3202 0.61 15.5002 0.46C15.7202 0.31 15.9402 0.2 16.2102 0.12C16.4702 0.0399999 16.7502 0 17.0502 0C17.1902 0 17.3402 0.0100002 17.5002 0.0300002C17.6402 0.0500002 17.7802 0.0799999 17.9202 0.0999999C18.0602 0.14 18.1802 0.17 18.3002 0.21C18.4202 0.25 18.5002 0.29 18.5802 0.33C18.6702 0.38 18.7402 0.43 18.7802 0.49C18.8202 0.55 18.8402 0.62 18.8402 0.71V1.03C18.8402 1.17 18.7902 1.24 18.6902 1.24C18.6402 1.24 18.5502 1.21 18.4302 1.16C18.0602 0.99 17.6302 0.9 17.1602 0.9C16.7802 0.9 16.5002 0.96 16.2702 1.09C16.0702 1.21 15.9602 1.41 15.9602 1.68C15.9602 1.87 16.0302 2.03 16.1602 2.15C16.2902 2.28 16.5402 2.4 16.8902 2.52L17.8402 2.82C18.3202 2.96 18.6602 3.18 18.8702 3.46C19.0702 3.73 19.1702 4.04 19.1702 4.39C19.1702 4.67 19.1102 4.93 19.0002 5.16C18.8802 5.38 18.7202 5.58 18.5002 5.74C18.3102 5.91 18.0602 6.03 17.7802 6.12C17.5002 6.21 17.1602 6.25 16.8302 6.25ZM18.0802 9.49C15.8902 11.1 12.7102 11.96 10.0002 11.96C6.15018 11.96 2.70018 10.54 0.0901809 8.19C-0.119819 8 0.0701809 7.75 0.320181 7.9C3.14018 9.53 6.61018 10.52 10.2102 10.52C12.6402 10.52 15.3102 10.02 17.7602 8.96C18.1302 8.81 18.4402 9.22 18.0802 9.49ZM19.0002 8.46C18.7102 8.09 17.1402 8.28 16.4302 8.36C16.2202 8.39 16.1902 8.2 16.3802 8.06C17.6302 7.19 19.6902 7.46 19.9202 7.73C20.1602 8.03 19.8602 10.09 18.6902 11.07C18.5002 11.22 18.3302 11.14 18.4102 10.96C18.6802 10.28 19.2702 8.8 19.0002 8.46Z" fill="#33E1FF"/>
</svg>
