<svg width="40" height="39" viewBox="0 0 40 39" fill="none" xmlns="http://www.w3.org/2000/svg">
<path d="M16.0619 0.00229419V3.44358C18.6232 3.43851 21.1602 3.94047 23.5267 4.92051C25.8931 5.90056 28.0422 7.33931 29.85 9.15383C31.6633 10.9625 33.1012 13.1118 34.0812 15.478C35.0611 17.8442 35.5638 20.3808 35.5602 22.9419H39.0015C39.0015 10.2711 28.7304 0 16.0596 0L16.0619 0.00229419Z" fill="#EEEEEE"/>
<path d="M13.7652 9.17676V12.618C17.1353 12.618 20.3036 13.9303 22.6873 16.314C25.0709 18.6977 26.3832 21.8659 26.3832 25.2361H29.8245C29.8245 20.9769 28.1326 16.8921 25.1208 13.8804C22.1091 10.8687 18.0244 9.17676 13.7652 9.17676ZM17.2065 16.0593L14.9123 18.3535L6.88258 20.6477L0 35.56L0.908501 36.4685L9.25478 28.1222C9.12402 27.6344 9.15789 27.117 9.35113 26.6504C9.54437 26.1838 9.88619 25.794 10.3236 25.5415C10.7609 25.2889 11.2694 25.1878 11.7701 25.2537C12.2709 25.3196 12.7359 25.5489 13.093 25.906C13.4501 26.2631 13.6794 26.7281 13.7453 27.2288C13.8112 27.7296 13.7101 28.238 13.4575 28.6754C13.205 29.1128 12.8152 29.4546 12.3486 29.6479C11.8819 29.8411 11.3646 29.875 10.8768 29.7442L2.5305 38.0905L3.439 38.999L18.3513 32.1164L20.6454 24.0867L22.9396 21.7925L17.2042 16.057L17.2065 16.0593Z" fill="#EEEEEE"/>
</svg>
