<svg width="23" height="18" viewBox="0 0 23 18" fill="none" xmlns="http://www.w3.org/2000/svg">
<path d="M4.673 0C3.389 0 2.44 1.124 2.483 2.342C2.523 3.513 2.47 5.03 2.088 6.266C1.705 7.506 1.058 8.292 0 8.393V9.531C1.058 9.632 1.705 10.418 2.088 11.658C2.47 12.895 2.523 14.411 2.482 15.582C2.44 16.8 3.389 17.924 4.674 17.924H17.828C19.112 17.924 20.062 16.8 20.02 15.582C19.979 14.411 20.032 12.895 20.413 11.658C20.797 10.418 21.443 9.632 22.5 9.531V8.393C21.442 8.292 20.797 7.506 20.413 6.266C20.032 5.03 19.979 3.513 20.02 2.342C20.062 1.124 19.112 0 17.828 0H4.673ZM15.254 11.033C15.254 12.711 14.003 13.729 11.926 13.729H8.39C8.33988 13.7291 8.29023 13.7194 8.24389 13.7003C8.19755 13.6812 8.15543 13.6532 8.11995 13.6178C8.08446 13.5824 8.05631 13.5403 8.0371 13.494C8.01789 13.4477 8.008 13.3981 8.008 13.348V4.576C8.00813 4.52597 8.01812 4.47645 8.03738 4.43027C8.05665 4.3841 8.08483 4.34217 8.1203 4.30688C8.15577 4.2716 8.19785 4.24364 8.24412 4.22462C8.2904 4.20559 8.33997 4.19587 8.39 4.196H11.905C13.637 4.196 14.774 5.133 14.774 6.574C14.774 7.584 14.009 8.49 13.035 8.648V8.701C14.361 8.846 15.254 9.765 15.254 11.033ZM11.54 5.404H9.524V8.252H11.222C12.535 8.252 13.258 7.723 13.258 6.778C13.258 5.893 12.636 5.404 11.54 5.404ZM9.524 9.381V12.52H11.614C12.981 12.52 13.704 11.971 13.704 10.94C13.704 9.91 12.961 9.381 11.526 9.381H9.524Z" fill="#33E1FF"/>
</svg>
