<svg width="28" height="32" viewBox="0 0 28 32" fill="none" xmlns="http://www.w3.org/2000/svg">
<path d="M5.91361 23.9563L3.5432 22.49C3.99561 21.037 7.70549 14.4461 9.92203 14.6316C8.63699 17.9636 7.91694 20.9322 5.91361 23.9563ZM10.5739 16.0891C9.51287 19.2306 8.3235 22.1394 6.82607 24.4902L14.0008 28.6056L25.3392 22.1313V16.1279C24.2414 16.2466 23.571 16.86 23.2042 17.8544C22.6388 19.3871 20.3607 21.1998 18.5244 18.7566C15.605 23.3701 12.8682 22.5772 10.5739 16.0892M9.56641 13.7454C7.69237 9.77444 4.13492 9.723 2.61132 15.6443V21.8546C3.66775 19.9745 6.99388 13.9777 9.56641 13.7454ZM24.7994 15.2007C22.896 13.7861 20.0521 15.5086 18.9556 17.9989C19.9818 19.6768 21.0131 19.3309 21.8838 18.5186C22.5847 17.8646 22.8289 15.8697 24.7994 15.2007ZM16.518 15.3094C14.7417 11.9386 13.2371 9.31275 11.3 14.2344C12.9047 15.4809 14.8275 16.7436 16.518 15.3094ZM18.0439 18.0817C17.6618 17.5063 17.2846 16.8144 16.9334 16.1154C15.2447 17.4348 13.1048 16.7949 10.9662 15.0779C12.2767 18.4216 13.3041 20.2785 14.3303 20.7811C15.4897 21.3491 17.0548 20.033 18.0439 18.0817ZM1.90589 9.07981V22.9202L14 29.8404L26.0941 22.9202V9.07981L14 2.15963L1.90589 9.07981ZM28 8V24L14 32L0 24V8L14 0L28 8ZM25.3392 14.0534C23.2566 10.9394 21.5032 10.7559 20.2193 11.6547C19.0508 12.4724 18.2551 14.4207 17.6186 15.4459C17.9014 16.0749 18.1678 16.4254 18.477 17.0054C19.9688 14.192 22.7415 12.5424 25.3392 14.4586V14.0534Z" fill="#33E1FF"/>
</svg>
