<svg width="40" height="30" viewBox="0 0 40 30" fill="none" xmlns="http://www.w3.org/2000/svg">
<path d="M36.6667 0H3.33333C1.5 0 0 1.5 0 3.33333V26.6667C0 28.5 1.5 30 3.33333 30H36.6667C38.5 30 39.9833 28.5 39.9833 26.6667L40 3.33333C40 1.5 38.5 0 36.6667 0ZM13.3333 5C16.1 5 18.3333 7.23333 18.3333 10C18.3333 12.7667 16.1 15 13.3333 15C10.5667 15 8.33333 12.7667 8.33333 10C8.33333 7.23333 10.5667 5 13.3333 5ZM23.3333 25H3.33333V23.3333C3.33333 20 10 18.1667 13.3333 18.1667C16.6667 18.1667 23.3333 20 23.3333 23.3333V25ZM29.75 18.3333H32.4833L35 21.6667L31.6833 24.9833C29.4753 23.3286 27.8758 20.9908 27.1333 18.3333C26.8333 17.2667 26.6667 16.15 26.6667 15C26.6667 13.85 26.8333 12.7333 27.1333 11.6667C27.8714 9.00714 29.4718 6.66805 31.6833 5.01667L35 8.33333L32.4833 11.6667H29.75C29.3833 12.7167 29.1667 13.8333 29.1667 15C29.1667 16.1667 29.3833 17.2833 29.75 18.3333Z" fill="#EEEEEE"/>
</svg>
