<svg width="24" height="6" viewBox="0 0 24 6" fill="none" xmlns="http://www.w3.org/2000/svg">
<path d="M4.58565 0.00103521C4.46276 -0.00108933 4.34282 0.0387725 4.24565 0.114035C4.14903 0.189457 4.07983 0.294496 4.04865 0.413036L2.73965 5.30904H3.66165C3.78194 5.31014 3.89902 5.27029 3.99365 5.19604C4.08996 5.12314 4.16011 5.02107 4.19365 4.90504L5.16165 1.30104H5.90565C6.01591 1.30138 6.12453 1.32776 6.22265 1.37804C6.3166 1.42548 6.39863 1.4935 6.46265 1.57704C6.52606 1.65992 6.57014 1.75592 6.59165 1.85804C6.61608 1.96579 6.61264 2.07799 6.58165 2.18404C6.54312 2.33419 6.45584 2.4673 6.3335 2.5625C6.21115 2.65769 6.06067 2.70959 5.90565 2.71004H5.52065C5.39879 2.70859 5.28002 2.74842 5.18365 2.82304C5.08735 2.89593 5.0172 2.99801 4.98365 3.11404L4.74365 4.01004H5.94465C6.2653 4.01065 6.5811 3.93179 6.86381 3.78049C7.14651 3.62919 7.38731 3.41017 7.56465 3.14304C7.68402 2.96328 7.77351 2.76539 7.82965 2.55704L7.85665 2.45704C7.94048 2.16155 7.94941 1.84984 7.88265 1.55004C7.82104 1.26416 7.69655 0.995585 7.51822 0.763808C7.33989 0.53203 7.11219 0.342863 6.85165 0.210036C6.57951 0.0702009 6.27762 -0.00184132 5.97165 3.5762e-05L4.58565 0.00103521ZM23.0327 0.00103521C22.9425 -0.000604291 22.8544 0.0282938 22.7827 0.0830359C22.7121 0.136808 22.6626 0.213577 22.6427 0.300036L21.3087 5.31004C21.5027 5.31081 21.6955 5.27834 21.8787 5.21404C22.0569 5.15193 22.2243 5.06216 22.3747 4.94804C22.5247 4.83429 22.6548 4.69642 22.7597 4.54004C22.8675 4.37775 22.9467 4.19814 22.9937 4.00904L23.9897 0.313035C24.001 0.276002 24.0029 0.236694 23.995 0.198759C23.9871 0.160823 23.9698 0.125488 23.9447 0.0960355C23.9209 0.0659047 23.8904 0.041662 23.8557 0.025187C23.8211 0.00871207 23.783 0.000447506 23.7447 0.00103521H23.0327ZM8.38065 1.29804L8.24765 1.80104C8.22667 1.88622 8.22462 1.97497 8.24165 2.06104C8.2578 2.14133 8.29199 2.21691 8.34165 2.28204C8.39119 2.3464 8.45437 2.39899 8.52665 2.43604C8.60392 2.47783 8.69084 2.49852 8.77865 2.49604H10.9357C10.9517 2.49516 10.9677 2.49816 10.9823 2.50478C10.9969 2.51139 11.0097 2.52143 11.0197 2.53404C11.0288 2.54654 11.0349 2.561 11.0375 2.57627C11.0401 2.59154 11.0391 2.60721 11.0347 2.62204L11.0147 2.69404L10.6907 3.89504L10.6777 3.95004C10.6694 3.99225 10.6455 4.02977 10.6107 4.05504C10.5741 4.08248 10.5293 4.0966 10.4837 4.09504H9.17765C9.15462 4.09539 9.13181 4.09043 9.111 4.08054C9.09019 4.07066 9.07193 4.05611 9.05765 4.03804C9.04275 4.02029 9.03247 3.99913 9.02776 3.97644C9.02305 3.95375 9.02404 3.93025 9.03065 3.90804C9.05265 3.83337 9.10165 3.79604 9.17765 3.79604H9.98565C10.1058 3.79742 10.2229 3.75793 10.3177 3.68404C10.4143 3.61062 10.4845 3.5078 10.5177 3.39104L10.6497 2.89304H8.83965C8.71015 2.89216 8.58151 2.91417 8.45965 2.95804C8.34358 2.99975 8.23464 3.05912 8.13665 3.13404C8.03772 3.21048 7.95135 3.30192 7.88065 3.40504C7.80704 3.50935 7.75409 3.6268 7.72465 3.75104L7.69665 3.85104C7.64868 4.02495 7.64421 4.20799 7.68365 4.38404C7.72025 4.55211 7.79255 4.71035 7.89565 4.84804C8.00276 4.98988 8.14155 5.10472 8.30095 5.18337C8.46034 5.26203 8.63592 5.30232 8.81365 5.30104L10.9707 5.30704C11.1701 5.30812 11.3643 5.2429 11.5227 5.12162C11.6811 5.00035 11.7947 4.82989 11.8457 4.63704L12.3707 2.68704C12.4145 2.5189 12.418 2.34275 12.3807 2.17304C12.3465 2.01153 12.2764 1.85978 12.1757 1.72904C12.0738 1.59919 11.9452 1.49278 11.7987 1.41704C11.6451 1.33654 11.474 1.29531 11.3007 1.29704L8.38065 1.29804ZM1.98365 1.30804C1.76643 1.30697 1.55064 1.34316 1.34565 1.41504C1.14696 1.4837 0.960338 1.58325 0.792654 1.71004C0.450855 1.97201 0.204849 2.33926 0.0926542 2.75504L0.0656542 2.85504C-0.0132758 3.15067 -0.021157 3.46078 0.0426542 3.76004C0.104215 4.04523 0.22743 4.3135 0.403654 4.54604C0.583089 4.77737 0.811123 4.96649 1.07165 5.10004C1.3438 5.23987 1.64569 5.31191 1.95165 5.31004H2.41565L2.68165 4.32704C2.69295 4.29045 2.69493 4.25163 2.68742 4.21408C2.67991 4.17654 2.66315 4.14146 2.63865 4.11204C2.6157 4.0814 2.58575 4.05671 2.5513 4.04001C2.51686 4.02331 2.47892 4.01509 2.44065 4.01604H2.01765C1.90697 4.01694 1.79764 3.99158 1.69865 3.94204C1.60512 3.89574 1.52312 3.82911 1.45865 3.74704C1.39596 3.66397 1.35257 3.56798 1.33165 3.46604C1.30698 3.3536 1.31042 3.23682 1.34165 3.12604C1.38457 2.97627 1.47428 2.84417 1.59765 2.74904C1.71812 2.65683 1.86596 2.60755 2.01765 2.60904H2.71465C2.83698 2.61042 2.95615 2.57022 3.05265 2.49504C3.14966 2.42044 3.21955 2.31612 3.25165 2.19804L3.48365 1.30804H1.98365ZM13.0637 1.30804L12.0817 4.99704C12.0703 5.03407 12.0684 5.07338 12.0763 5.11131C12.0842 5.14925 12.1015 5.18458 12.1267 5.21404C12.1494 5.24407 12.1789 5.26832 12.2128 5.28482C12.2467 5.30133 12.284 5.30962 12.3217 5.30904H13.0327C13.1219 5.3108 13.2092 5.28264 13.2807 5.22904C13.3523 5.17874 13.4031 5.10409 13.4237 5.01904L14.0677 2.60904H14.8127C14.9231 2.6086 15.0321 2.6343 15.1307 2.68404C15.224 2.73202 15.3053 2.80037 15.3687 2.88404C15.4319 2.96662 15.476 3.06228 15.4977 3.16404C15.5223 3.27211 15.5188 3.38467 15.4877 3.49104L15.0897 4.99704C15.0787 5.03386 15.0767 5.07275 15.0837 5.11052C15.0907 5.14829 15.1066 5.18385 15.13 5.2143C15.1534 5.24474 15.1837 5.2692 15.2184 5.28567C15.2531 5.30214 15.2913 5.31015 15.3297 5.30904H16.0427C16.1306 5.30991 16.2163 5.28179 16.2867 5.22904C16.3582 5.17736 16.4089 5.10182 16.4297 5.01604L16.7617 3.76804C16.8446 3.47217 16.8546 3.16059 16.7907 2.86004C16.7296 2.57344 16.6064 2.30374 16.4297 2.07004C16.2502 1.8387 16.0222 1.64958 15.7617 1.51604C15.4879 1.37576 15.1842 1.30404 14.8767 1.30704L13.0637 1.30804ZM18.8567 1.30804C18.6906 1.30784 18.5257 1.33521 18.3687 1.38904C18.0618 1.49582 17.7979 1.69936 17.6167 1.96904C17.5235 2.10789 17.4542 2.26133 17.4117 2.42304L17.0057 3.92804C16.9567 4.09316 16.9511 4.26815 16.9897 4.43604C17.0235 4.59825 17.0936 4.75071 17.1947 4.88204C17.2953 5.01302 17.4242 5.11966 17.5717 5.19404C17.7263 5.27094 17.8969 5.31033 18.0697 5.30904H20.5717C20.6919 5.31014 20.809 5.27029 20.9037 5.19604C21 5.12314 21.0701 5.02107 21.1037 4.90504L21.3137 4.11404H18.5657C18.5351 4.11371 18.5051 4.10641 18.4778 4.09268C18.4506 4.07896 18.4268 4.05918 18.4084 4.03485C18.3899 4.01053 18.3773 3.98231 18.3715 3.95236C18.3656 3.9224 18.3667 3.89151 18.3747 3.86204L18.6737 2.73504C18.6945 2.67104 18.7338 2.61466 18.7867 2.57304C18.8373 2.53126 18.901 2.50861 18.9667 2.50904H20.1987C20.2221 2.50914 20.2452 2.51463 20.2662 2.52508C20.2872 2.53554 20.3055 2.55068 20.3197 2.56933C20.3339 2.58798 20.3436 2.60965 20.3481 2.63266C20.3526 2.65567 20.3518 2.6794 20.3457 2.70204L20.3197 2.80204C20.2977 2.87737 20.249 2.91504 20.1737 2.91504H19.3637C19.2413 2.91257 19.1218 2.9517 19.0247 3.02604C18.9297 3.09928 18.8623 3.20257 18.8337 3.31904L18.7007 3.80904H20.7047C20.9019 3.81027 21.0941 3.74668 21.2517 3.62804C21.411 3.50889 21.5241 3.3382 21.5717 3.14504L21.6917 2.69504C21.7364 2.52745 21.7408 2.35167 21.7047 2.18204C21.671 2.02105 21.6016 1.86967 21.5017 1.73904C21.4005 1.60905 21.2726 1.50231 21.1267 1.42604C20.973 1.34588 20.8019 1.305 20.6287 1.30704L18.8567 1.30804Z" fill="#33E1FF"/>
</svg>
