<svg width="24" height="24" viewBox="0 0 24 24" fill="none" xmlns="http://www.w3.org/2000/svg">
<path d="M12.035 5.54793e-05C5.403 -0.0199445 0 5.37005 0 11.9921H4.638C4.638 7.06906 9.52 3.26106 14.702 5.13706C15.6538 5.48438 16.5182 6.03562 17.2345 6.75214C17.9509 7.46867 18.5019 8.33316 18.849 9.28506C20.738 14.4621 16.925 19.3401 12.009 19.3491V14.7391H7.386V19.3621H11.996V24.0001C19.856 24.0001 25.963 16.4121 23.393 8.17006C22.278 4.58006 19.408 1.72406 15.818 0.595056C14.5937 0.208045 13.318 0.00746613 12.034 5.54793e-05H12.035ZM7.386 19.3621H3.823V22.9261H7.385L7.386 19.3621ZM3.822 19.3621V16.3841H0.845V19.3621H3.822Z" fill="#33E1FF"/>
</svg>
