<svg width="94" height="29" viewBox="0 0 94 29" fill="none" xmlns="http://www.w3.org/2000/svg">
<path d="M1.59872 22.0539V11.6787H14.3824V11.0719H1.59872V1.6067H15.1906V1H1V22.6606H15.3103V22.0539H1.59872ZM26.8367 7.06733L21.5377 14.1359L16.3583 7.06751H15.5798L21.1784 14.5911L15.0408 22.6605H15.7594L21.5374 15.0458L27.3454 22.6605H28.0938L21.9266 14.5908L27.5549 7.06715H26.8365L26.8367 7.06733ZM29.8903 28V18.2923H29.9502C30.3095 19.708 31.0181 20.8456 32.0759 21.7052C33.1337 22.5647 34.4808 22.9946 36.1174 22.9946C37.1752 22.9946 38.1134 22.7772 38.9317 22.3424C39.75 21.9075 40.4335 21.316 40.9824 20.5676C41.5312 19.8192 41.9504 18.9496 42.2399 17.9586C42.5292 16.9677 42.674 15.926 42.674 14.834C42.674 13.6609 42.5242 12.5788 42.2248 11.5879C41.9254 10.5968 41.4913 9.7372 40.9226 9.00923C40.3537 8.28109 39.6652 7.71463 38.8567 7.31041C38.0485 6.90582 37.1353 6.70353 36.1174 6.70353C35.339 6.70353 34.6156 6.81988 33.947 7.0524C33.2783 7.2851 32.6847 7.61358 32.1657 8.03837C31.6437 8.46643 31.1894 8.97282 30.8184 9.54C30.4393 10.1165 30.1498 10.7485 29.9502 11.4362H29.8903V7.06733H29.2916V28H29.8903ZM36.1174 22.4179C34.2415 22.4179 32.7344 21.7657 31.5968 20.4613C30.4592 19.1568 29.8903 17.2808 29.8903 14.8337C29.8903 13.8224 30.0301 12.8617 30.3095 11.9517C30.589 11.0416 30.9931 10.2427 31.5219 9.55511C32.0509 8.86739 32.7046 8.32133 33.4828 7.91692C34.2612 7.51234 35.1395 7.31004 36.1174 7.31004C37.1154 7.31004 37.9887 7.51234 38.7371 7.91692C39.4855 8.32133 40.1043 8.87249 40.5932 9.57023C41.0822 10.268 41.4514 11.0669 41.701 11.9668C41.9504 12.8668 42.0751 13.8224 42.0751 14.8337C42.0751 15.7439 41.9605 16.649 41.7308 17.5489C41.5014 18.4489 41.147 19.2579 40.668 19.976C40.1891 20.6938 39.5755 21.2803 38.8269 21.7355C38.0783 22.1905 37.1752 22.4179 36.1174 22.4179ZM45.9672 22.6606V13.8326C45.9672 12.9832 46.0868 12.1538 46.3265 11.345C46.5659 10.536 46.9351 9.82296 47.4341 9.20624C47.9331 8.58935 48.5667 8.10392 49.3352 7.74995C50.1036 7.39599 51.0167 7.24941 52.0746 7.31004V6.70335C51.1564 6.68332 50.3532 6.78419 49.6646 7.0067C48.9758 7.2292 48.3822 7.53255 47.8832 7.91692C47.3842 8.30112 46.9851 8.75104 46.6857 9.26688C46.3866 9.7819 46.1646 10.3391 46.027 10.9202H45.9672V7.06733H45.3684V22.6608L45.9672 22.6606ZM52.823 14.9853H65.6963C65.7364 13.9134 65.6316 12.8821 65.382 11.891C65.1326 10.9 64.7334 10.0202 64.1846 9.25177C63.6356 8.4832 62.9271 7.8663 62.0589 7.40109C61.1906 6.93587 60.1578 6.70335 58.9604 6.70335C58.102 6.70335 57.2638 6.88543 56.4455 7.24959C55.6272 7.61358 54.9086 8.14434 54.2899 8.84208C53.6713 9.53982 53.1723 10.3943 52.7931 11.4058C52.414 12.4169 52.2242 13.5697 52.2242 14.8641C52.2242 16.0168 52.354 17.0938 52.6134 18.0949C52.8729 19.096 53.272 19.9658 53.8109 20.704C54.3499 21.4421 55.0435 22.0135 55.8917 22.4179C56.7398 22.8225 57.7627 23.0146 58.9604 22.9944C60.7166 22.9944 62.1937 22.4937 63.3911 21.4928C64.5887 20.4915 65.2972 19.0809 65.5168 17.2606H64.9181C64.6586 18.9799 63.9948 20.2692 62.9271 21.1286C61.8593 21.9882 60.5172 22.4179 58.9003 22.4179C57.8026 22.4179 56.8745 22.2258 56.1161 21.8416C55.3578 21.4574 54.739 20.9314 54.2599 20.2641C53.781 19.5966 53.4267 18.8129 53.1972 17.9129C52.9676 17.013 52.8429 16.037 52.823 14.9853ZM65.0976 14.3786H52.8231C52.8828 13.2865 53.0824 12.3056 53.4217 11.436C53.7611 10.5662 54.2051 9.82296 54.7541 9.20624C55.3028 8.58935 55.9416 8.11922 56.6701 7.79547C57.3985 7.47192 58.182 7.31004 59.0202 7.31004C60.0182 7.31004 60.8961 7.49722 61.6548 7.8714C62.4131 8.24558 63.0468 8.75632 63.5559 9.40344C64.0647 10.0506 64.4489 10.804 64.7084 11.6634C64.9679 12.523 65.0976 13.4282 65.0976 14.3786ZM78.1208 11.6787H78.7195C78.7195 9.93931 78.2205 8.67529 77.2227 7.88652C76.2246 7.09774 74.8674 6.70335 73.151 6.70335C72.1929 6.70335 71.3847 6.8248 70.7259 7.06751C70.0674 7.31005 69.5285 7.62359 69.1093 8.00778C68.6903 8.39197 68.3909 8.81677 68.2112 9.28199C68.0315 9.74721 67.9417 10.1922 67.9417 10.6168C67.9417 11.4662 68.0914 12.1438 68.3909 12.6494C68.6903 13.1551 69.1592 13.5494 69.7979 13.8326C70.237 14.0347 70.7358 14.2168 71.2948 14.3788C71.8537 14.5405 72.5023 14.7124 73.2408 14.8943C73.8994 15.0564 74.5481 15.218 75.1869 15.3797C75.8255 15.5416 76.3893 15.759 76.8783 16.0319C77.3674 16.3051 77.7665 16.6539 78.0759 17.0787C78.3851 17.5033 78.5398 18.0596 78.5398 18.7471C78.5398 19.4147 78.3853 19.9809 78.0759 20.446C77.7691 20.9088 77.3653 21.2973 76.8934 21.5838C76.4143 21.877 75.8803 22.0893 75.2916 22.2207C74.7028 22.3522 74.129 22.4179 73.5702 22.4179C71.7539 22.4179 70.3617 22.0084 69.3937 21.1894C68.4258 20.3702 67.9419 19.0809 67.9419 17.3213H67.343C67.343 19.2832 67.8669 20.7191 68.9147 21.6293C69.9626 22.5394 71.5144 22.9944 73.5702 22.9944C74.2288 22.9944 74.8924 22.9185 75.5611 22.7668C76.2296 22.6151 76.8285 22.3675 77.3573 22.0235C77.8816 21.6845 78.3221 21.2278 78.6446 20.6889C78.974 20.1426 79.1387 19.4753 79.1387 18.6865C79.1387 17.9382 78.9939 17.3315 78.7046 16.8662C78.4151 16.4012 78.036 16.0168 77.5668 15.7135C77.0978 15.4101 76.569 15.1725 75.9802 15.0006C75.388 14.8277 74.7942 14.6608 74.1988 14.4999C73.466 14.3051 72.7325 14.113 71.9983 13.9236C71.3698 13.7617 70.786 13.5697 70.2471 13.3471C69.7281 13.1246 69.314 12.8062 69.0045 12.3916C68.6951 11.977 68.5406 11.3854 68.5406 10.6168C68.5406 10.4754 68.5805 10.2224 68.6603 9.85846C68.74 9.4943 68.9298 9.12522 69.2291 8.75104C69.5285 8.37704 69.9874 8.04329 70.6063 7.74995C71.2249 7.4568 72.0732 7.31004 73.151 7.31004C73.8895 7.31004 74.563 7.39107 75.1718 7.55276C75.7805 7.71463 76.3045 7.97246 76.7435 8.32643C77.1826 8.68039 77.5219 9.13032 77.7614 9.67638C78.0009 10.2226 78.1208 10.89 78.1208 11.6787ZM91.9821 11.6787H92.5808C92.5808 9.93931 92.082 8.67529 91.084 7.88652C90.086 7.09774 88.7288 6.70335 87.0123 6.70335C86.0544 6.70335 85.2459 6.8248 84.5874 7.06751C83.9287 7.31005 83.3898 7.62359 82.9707 8.00778C82.5515 8.39197 82.2522 8.81677 82.0725 9.28199C81.8928 9.74721 81.8031 10.1922 81.8031 10.6168C81.8031 11.4662 81.9528 12.1438 82.2524 12.6494C82.5515 13.1551 83.0207 13.5494 83.6593 13.8326C84.0985 14.0347 84.5973 14.2168 85.1561 14.3788C85.7149 14.5405 86.3636 14.7124 87.1021 14.8943C87.7609 15.0564 88.4095 15.218 89.0481 15.3797C89.6869 15.5416 90.2506 15.759 90.7397 16.0319C91.2286 16.3051 91.6279 16.6539 91.9371 17.0787C92.2466 17.5033 92.4013 18.0596 92.4013 18.7471C92.4013 19.4147 92.2466 19.9809 91.9371 20.446C91.6304 20.9087 91.2267 21.2973 90.7548 21.5838C90.2756 21.877 89.7417 22.0893 89.1529 22.2207C88.5642 22.3522 87.9903 22.4179 87.4315 22.4179C85.6152 22.4179 84.2232 22.0084 83.2552 21.1894C82.287 20.3702 81.8031 19.0809 81.8031 17.3213H81.2044C81.2044 19.2832 81.7282 20.7191 82.7761 21.6293C83.8239 22.5394 85.3757 22.9944 87.4315 22.9944C88.0902 22.9944 88.7538 22.9185 89.4224 22.7668C90.0909 22.6151 90.6898 22.3675 91.2188 22.0235C91.7431 21.6845 92.1835 21.2278 92.506 20.6889C92.8354 20.1426 93 19.4753 93 18.6865C93 17.9382 92.8554 17.3315 92.5659 16.8662C92.2766 16.4012 91.8974 16.0168 91.4283 15.7135C90.9593 15.4101 90.4303 15.1725 89.8416 15.0006C89.2495 14.8277 88.6556 14.6608 88.0602 14.4999C87.3274 14.3051 86.5939 14.113 85.8598 13.9236C85.231 13.7617 84.6472 13.5697 84.1083 13.3471C83.5894 13.1246 83.1752 12.8062 82.866 12.3916C82.5566 11.977 82.4019 11.3854 82.4019 10.6168C82.4019 10.4754 82.4417 10.2224 82.5217 9.85846C82.6015 9.4943 82.7912 9.12522 83.0904 8.75104C83.3898 8.37704 83.8489 8.04329 84.4675 7.74995C85.0864 7.4568 85.9345 7.31004 87.0125 7.31004C87.751 7.31004 88.4244 7.39107 89.0332 7.55276C89.642 7.71463 90.1658 7.97246 90.6049 8.32643C91.0441 8.68039 91.3834 9.13032 91.6229 9.67638C91.8624 10.2226 91.9822 10.89 91.9822 11.6787H91.9821Z" fill="#E1E8E0" stroke="#E1E8E0"/>
</svg>
