<svg width="74" height="22" viewBox="0 0 74 22" fill="none" xmlns="http://www.w3.org/2000/svg">
<path d="M0.481578 17.1551V8.70119H10.7641V8.2067H0.481578V0.494345H11.4142V0H0V17.6494H11.5105V17.1551H0.481578ZM20.7817 4.94375L16.5195 10.7033L12.3534 4.9439H11.7273L16.2304 11.0743L11.2937 17.6493H11.8717L16.5192 11.4447L21.1909 17.6493H21.7929L16.8323 11.074L21.3594 4.9436L20.7817 4.94375ZM23.2379 22V14.09H23.286C23.5751 15.2436 24.145 16.1705 24.9958 16.8709C25.8467 17.5712 26.9302 17.9215 28.2466 17.9215C29.0975 17.9215 29.8521 17.7444 30.5103 17.3901C31.1685 17.0358 31.7183 16.5537 32.1598 15.944C32.6012 15.3342 32.9384 14.6256 33.1712 13.8181C33.4039 13.0107 33.5204 12.1619 33.5204 11.2722C33.5204 10.3163 33.3999 9.43455 33.1591 8.62716C32.9183 7.81962 32.5691 7.1192 32.1117 6.52604C31.6541 5.93274 31.1002 5.47118 30.45 5.14181C29.7999 4.81215 29.0654 4.64732 28.2466 4.64732C27.6205 4.64732 27.0386 4.74213 26.5008 4.93158C25.963 5.12119 25.4855 5.38884 25.0681 5.73497C24.6482 6.08376 24.2828 6.49637 23.9844 6.95852C23.6794 7.42824 23.4466 7.9432 23.286 8.50357H23.2379V4.94375H22.7563V22H23.2379ZM28.2466 17.4516C26.7377 17.4516 25.5255 16.9202 24.6105 15.8573C23.6955 14.7945 23.2379 13.2659 23.2379 11.2719C23.2379 10.4479 23.3503 9.6651 23.5751 8.92359C23.7998 8.18207 24.1249 7.53105 24.5502 6.97083C24.9757 6.41047 25.5015 5.96553 26.1275 5.63601C26.7536 5.30635 27.4601 5.14152 28.2466 5.14152C29.0493 5.14152 29.7518 5.30635 30.3537 5.63601C30.9557 5.96553 31.4535 6.41462 31.8467 6.98315C32.24 7.55167 32.537 8.20269 32.7378 8.9359C32.9384 9.66926 33.0387 10.4479 33.0387 11.2719C33.0387 12.0135 32.9465 12.7511 32.7618 13.4843C32.5772 14.2176 32.2922 14.8768 31.9069 15.4619C31.5217 16.0468 31.0281 16.5247 30.426 16.8956C29.8239 17.2663 29.0975 17.4516 28.2466 17.4516ZM36.1692 17.6494V10.4562C36.1692 9.76406 36.2655 9.08827 36.4583 8.42924C36.6508 7.77006 36.9478 7.18908 37.3492 6.68657C37.7505 6.18392 38.2602 5.78838 38.8783 5.49996C39.4963 5.21155 40.2309 5.09211 41.0817 5.14152V4.64717C40.3432 4.63085 39.6971 4.71305 39.1433 4.89435C38.5893 5.07564 38.1117 5.32282 37.7104 5.63601C37.309 5.94906 36.988 6.31566 36.7472 6.73597C36.5066 7.15562 36.328 7.60962 36.2174 8.08311H36.1692V4.94375H35.6877V17.6496L36.1692 17.6494ZM41.6837 11.3955H52.0383C52.0706 10.522 51.9863 9.68172 51.7855 8.87418C51.5849 8.06664 51.2638 7.34975 50.8224 6.72366C50.3808 6.09742 49.811 5.59477 49.1126 5.2157C48.4142 4.83663 47.5834 4.64717 46.6203 4.64717C45.9299 4.64717 45.2556 4.79554 44.5974 5.09226C43.9392 5.38884 43.3613 5.82132 42.8636 6.38984C42.366 6.95837 41.9646 7.65464 41.6597 8.47879C41.3547 9.30265 41.2021 10.2419 41.2021 11.2967C41.2021 12.2359 41.3065 13.1135 41.5152 13.9292C41.7239 14.7449 42.0449 15.4536 42.4783 16.0551C42.9119 16.6566 43.4698 17.1221 44.152 17.4516C44.8342 17.7813 45.657 17.9378 46.6203 17.9214C48.0329 17.9214 49.221 17.5134 50.1841 16.6978C51.1474 15.882 51.7173 14.7326 51.8939 13.2494H51.4124C51.2037 14.6502 50.6698 15.7008 49.811 16.4011C48.952 17.1015 47.8725 17.4516 46.572 17.4516C45.6891 17.4516 44.9426 17.2951 44.3325 16.9821C43.7226 16.669 43.2248 16.2404 42.8395 15.6967C42.4543 15.1528 42.1693 14.5142 41.9847 13.7808C41.8 13.0476 41.6997 12.2524 41.6837 11.3955ZM51.5568 10.9011H41.6838C41.7318 10.0112 41.8924 9.212 42.1653 8.50342C42.4383 7.79469 42.7954 7.18908 43.237 6.68657C43.6784 6.18392 44.1922 5.80084 44.7781 5.53705C45.364 5.27341 45.9942 5.14152 46.6684 5.14152C47.4711 5.14152 48.1773 5.29403 48.7875 5.59892C49.3975 5.90381 49.9072 6.31997 50.3167 6.84725C50.726 7.37453 51.035 7.98845 51.2437 8.68873C51.4524 9.38915 51.5568 10.1267 51.5568 10.9011ZM62.0319 8.70119H62.5135C62.5135 7.28388 62.1122 6.25394 61.3096 5.61123C60.5067 4.96853 59.4151 4.64717 58.0345 4.64717C57.2639 4.64717 56.6138 4.74613 56.0839 4.9439C55.5542 5.14152 55.1207 5.397 54.7836 5.71004C54.4465 6.02309 54.2057 6.36922 54.0612 6.74829C53.9167 7.12736 53.8444 7.48996 53.8444 7.83594C53.8444 8.52805 53.9648 9.08011 54.2057 9.49211C54.4465 9.90412 54.8237 10.2255 55.3374 10.4562C55.6906 10.6209 56.0919 10.7692 56.5415 10.9013C56.991 11.033 57.5127 11.1731 58.1068 11.3213C58.6365 11.4533 59.1582 11.5851 59.672 11.7168C60.1857 11.8487 60.6392 12.0259 61.0325 12.2483C61.4259 12.4708 61.7469 12.7551 61.9958 13.1012C62.2446 13.4472 62.369 13.9004 62.369 14.4606C62.369 15.0045 62.2447 15.4659 61.9958 15.8449C61.749 16.222 61.4243 16.5385 61.0447 16.772C60.6593 17.0109 60.2298 17.1838 59.7563 17.291C59.2827 17.3981 58.8212 17.4516 58.3717 17.4516C56.9108 17.4516 55.7909 17.118 55.0124 16.4506C54.2338 15.7831 53.8445 14.7326 53.8445 13.2988H53.3628C53.3628 14.8974 53.7843 16.0674 54.627 16.8091C55.4699 17.5506 56.7181 17.9214 58.3717 17.9214C58.9014 17.9214 59.4352 17.8595 59.9731 17.7359C60.5108 17.6123 60.9925 17.4105 61.4178 17.1303C61.8396 16.854 62.1938 16.4819 62.4533 16.0428C62.7182 15.5977 62.8507 15.0539 62.8507 14.4112C62.8507 13.8015 62.7342 13.3071 62.5015 12.9281C62.2687 12.5491 61.9637 12.2359 61.5864 11.9888C61.2091 11.7416 60.7838 11.548 60.3101 11.4079C59.8339 11.267 59.3562 11.131 58.8773 10.9999C58.2878 10.8412 57.6979 10.6847 57.1073 10.5304C56.6018 10.3985 56.1322 10.2419 55.6987 10.0606C55.2813 9.87934 54.9482 9.61985 54.6993 9.28203C54.4504 8.94421 54.3261 8.46218 54.3261 7.83594C54.3261 7.72066 54.3582 7.51458 54.4224 7.21801C54.4865 6.92128 54.6392 6.62055 54.88 6.31566C55.1207 6.01092 55.4899 5.73898 55.9876 5.49996C56.4853 5.2611 57.1676 5.14152 58.0345 5.14152C58.6285 5.14152 59.1702 5.20754 59.6599 5.33929C60.1496 5.47118 60.571 5.68126 60.9241 5.96968C61.2773 6.2581 61.5502 6.6247 61.7429 7.06964C61.9355 7.51473 62.0319 8.05848 62.0319 8.70119ZM73.1812 8.70119H73.6628C73.6628 7.28388 73.2616 6.25394 72.4589 5.61123C71.6561 4.96853 70.5645 4.64717 69.1838 4.64717C68.4133 4.64717 67.763 4.74613 67.2333 4.9439C66.7035 5.14152 66.27 5.397 65.933 5.71004C65.5958 6.02309 65.355 6.36922 65.2105 6.74829C65.0659 7.12736 64.9938 7.48996 64.9938 7.83594C64.9938 8.52805 65.1142 9.08011 65.3552 9.49211C65.5958 9.90412 65.9732 10.2255 66.4868 10.4562C66.8401 10.6209 67.2413 10.7692 67.6908 10.9013C68.1403 11.033 68.662 11.1731 69.2561 11.3213C69.7859 11.4533 70.3077 11.5851 70.8213 11.7168C71.3351 11.8487 71.7885 12.0259 72.1819 12.2483C72.5752 12.4708 72.8964 12.7551 73.1451 13.1012C73.394 13.4472 73.5184 13.9004 73.5184 14.4606C73.5184 15.0045 73.394 15.4659 73.1451 15.8449C72.8984 16.2219 72.5737 16.5385 72.1941 16.772C71.8086 17.0109 71.3792 17.1838 70.9056 17.291C70.4321 17.3981 69.9705 17.4516 69.521 17.4516C68.0601 17.4516 66.9404 17.118 66.1618 16.4506C65.383 15.7831 64.9938 14.7326 64.9938 13.2988H64.5122C64.5122 14.8974 64.9336 16.0674 65.7765 16.8091C66.6192 17.5506 67.8674 17.9214 69.521 17.9214C70.0508 17.9214 70.5846 17.8595 71.1224 17.7359C71.66 17.6123 72.1418 17.4105 72.5673 17.1303C72.989 16.854 73.3433 16.4819 73.6027 16.0428C73.8676 15.5977 74 15.0539 74 14.4112C74 13.8015 73.8837 13.3071 73.6508 12.9281C73.4181 12.5491 73.1132 12.2359 72.7358 11.9888C72.3586 11.7416 71.9331 11.548 71.4596 11.4079C70.9833 11.267 70.5056 11.131 70.0267 10.9999C69.4373 10.8412 68.8473 10.6847 68.2568 10.5304C67.751 10.3985 67.2815 10.2419 66.848 10.0606C66.4306 9.87934 66.0975 9.61985 65.8487 9.28203C65.5998 8.94421 65.4754 8.46218 65.4754 7.83594C65.4754 7.72066 65.5075 7.51458 65.5718 7.21801C65.636 6.92128 65.7886 6.62055 66.0292 6.31566C66.27 6.01092 66.6393 5.73898 67.1369 5.49996C67.6347 5.2611 68.3169 5.14152 69.1839 5.14152C69.778 5.14152 70.3197 5.20754 70.8093 5.33929C71.299 5.47118 71.7203 5.68126 72.0735 5.96968C72.4268 6.2581 72.6997 6.6247 72.8923 7.06964C73.085 7.51473 73.1814 8.05848 73.1814 8.70119" fill="#33E1FF"/>
</svg>
