<svg width="28" height="38" viewBox="0 0 28 38" fill="none" xmlns="http://www.w3.org/2000/svg">
<path d="M14 13.0012H7.50049M14 13.0012V1H7.50049C5.77645 1 4.12303 1.6322 2.90395 2.75754C1.68487 3.88287 1 5.40914 1 7.0006C1 8.59206 1.68487 10.1183 2.90395 11.2437C4.12303 12.369 5.77645 13.0012 7.50049 13.0012M14 13.0012V25.0006H7.50049M14 13.0012H20.4995M7.50049 13.0012C5.77671 13.0012 4.12353 13.6333 2.90464 14.7585C1.68574 15.8836 1.00098 17.4097 1.00098 19.0009C1.00098 20.5921 1.68574 22.1182 2.90464 23.2433C4.12353 24.3685 5.77671 25.0006 7.50049 25.0006M7.50049 25.0006C6.21509 25.0006 4.95855 25.3524 3.88975 26.0116C2.82096 26.6708 1.9879 27.6077 1.49591 28.7039C1.00392 29.8001 0.875092 31.0063 1.12572 32.1701C1.37635 33.3339 1.99517 34.4029 2.90395 35.2421C3.81273 36.0812 4.97065 36.6528 6.2313 36.8845C7.49195 37.1162 8.79873 36.9976 9.98639 36.5438C11.1741 36.09 12.1893 35.3213 12.9037 34.3349C13.6181 33.3485 13.9996 32.1887 14 31.0021M20.4995 13.0012C18.7757 13.0012 17.1226 13.6333 15.9037 14.7585C14.6848 15.8836 14 17.4097 14 19.0009C14 20.5921 14.6848 22.1182 15.9037 23.2433C17.1226 24.3685 18.7757 25.0006 20.4995 25.0006C22.2233 25.0006 23.8765 24.3685 25.0954 23.2433C26.3143 22.1182 26.999 20.5921 26.999 19.0009C26.999 17.4097 26.3143 15.8836 25.0954 14.7585C23.8765 13.6333 22.2233 13.0012 20.4995 13.0012ZM20.4995 13.0012C22.2235 13.0012 23.877 12.369 25.096 11.2437C26.3151 10.1183 27 8.59206 27 7.0006C27 5.40914 26.3151 3.88287 25.096 2.75754C23.877 1.6322 22.2235 1 20.4995 1" stroke="#E1E8E0" stroke-width="1.5" stroke-linecap="round" stroke-linejoin="round"/>
</svg>
