<svg width="34" height="27" viewBox="0 0 34 27" fill="none" xmlns="http://www.w3.org/2000/svg">
<path d="M22.6116 7.45446L25.5671 4.53479L25.7641 3.30553C20.3785 -1.53209 11.8174 -0.983452 6.96217 4.45016C5.61374 5.95919 4.61329 7.8407 4.07983 9.78368L5.13825 9.63623L11.0491 8.67348L11.5054 8.21251C14.1346 5.36001 18.5803 4.97612 21.6161 7.40307L22.6116 7.45446Z" fill="#EA4335"/>
<path d="M29.7772 9.69783C29.098 7.22661 27.7032 5.00502 25.764 3.30566L21.6161 7.40321C22.4806 8.10097 23.1734 8.98355 23.6422 9.98438C24.1111 10.9852 24.3437 12.0781 24.3226 13.1807V13.9081C26.3614 13.9081 28.0143 15.5407 28.0143 17.5547C28.0143 19.5689 26.3614 21.1607 24.3226 21.1607H16.9288L16.2029 21.9392V26.3134L16.9288 26.9997H24.3226C29.6258 27.0405 33.9584 22.8677 33.9997 17.6291C34.012 16.0657 33.633 14.5236 32.8964 13.1398C32.1597 11.7561 31.0882 10.5737 29.7772 9.69783Z" fill="#4285F4"/>
<path d="M9.54547 26.9996H16.9289V21.1606H9.54547C9.02277 21.1605 8.50628 21.0486 8.03145 20.8328L6.98409 21.1503L4.00791 24.0698L3.74866 25.0635C5.41771 26.3084 7.45396 27.0085 9.54547 26.9996Z" fill="#34A853"/>
<path d="M9.54547 8.05882C4.24217 8.09006 -0.0312774 12.3622 0.00017248 17.6009C0.00890023 19.0445 0.351083 20.4672 1.00065 21.7604C1.65022 23.0536 2.59003 24.1833 3.74849 25.0635L8.03128 20.8327C6.17319 20.0035 5.3475 17.8432 6.18696 16.0079C7.02642 14.1724 9.21329 13.3567 11.071 14.1858C11.8898 14.5512 12.5456 15.1991 12.9155 16.0079L17.1983 11.7772C16.2994 10.6163 15.1409 9.67651 13.8132 9.03142C12.4856 8.38633 11.0248 8.05339 9.5453 8.05866" fill="#FBBC05"/>
</svg>
