<svg width="48" height="48" viewBox="0 0 48 48" fill="none" xmlns="http://www.w3.org/2000/svg">
<path d="M30.1892 17.3231L33.4489 14.0632L33.6662 12.6907C27.7262 7.28939 18.2837 7.90195 12.9287 13.9687C11.4414 15.6536 10.338 17.7543 9.74963 19.9237L10.917 19.7591L17.4364 18.6841L17.9396 18.1695C20.8395 14.9846 25.7428 14.556 29.0912 17.2657L30.1892 17.3231Z" fill="#EA4335"/>
<path d="M38.0925 19.8279C37.3433 17.0687 35.8049 14.5883 33.6662 12.6909L29.0912 17.2659C30.0447 18.045 30.8088 19.0304 31.3259 20.1479C31.843 21.2653 32.0996 22.4856 32.0764 23.7167V24.5287C34.325 24.5287 36.1481 26.3516 36.1481 28.6003C36.1481 30.8492 34.325 32.6265 32.0764 32.6265H23.9214L23.1208 33.4957V38.3795L23.9214 39.1459H32.0764C37.9254 39.1914 42.704 34.5324 42.7496 28.6834C42.7633 26.9378 42.3452 25.216 41.5327 23.671C40.7202 22.126 39.5384 20.8058 38.0925 19.8279Z" fill="#4285F4"/>
<path d="M15.7779 39.1459H23.9214V32.6265H15.7779C15.2014 32.6264 14.6318 32.5015 14.1081 32.2605L12.9529 32.6151L9.67031 35.8747L9.38437 36.9842C11.2252 38.3741 13.4711 39.1558 15.7779 39.1459Z" fill="#34A853"/>
<path d="M15.7779 17.9978C9.92866 18.0327 5.21529 22.8027 5.24998 28.6518C5.2596 30.2636 5.63701 31.852 6.35345 33.2959C7.06989 34.7399 8.10645 36.0012 9.38416 36.9839L14.1079 32.2602C12.0585 31.3343 11.1478 28.9223 12.0737 26.8731C12.9995 24.8238 15.4115 23.9131 17.4605 24.8388C18.3636 25.2468 19.0869 25.9701 19.4949 26.8731L24.2186 22.1494C23.2272 20.8533 21.9493 19.804 20.485 19.0837C19.0207 18.3635 17.4096 17.9918 15.7777 17.9976L15.7779 17.9978Z" fill="#FBBC05"/>
</svg>
