<svg width="38" height="38" viewBox="0 0 38 38" fill="none" xmlns="http://www.w3.org/2000/svg">
<path d="M26.8461 37V31.8409C26.9154 30.9838 26.7965 30.1221 26.4972 29.3131C26.198 28.5042 25.7254 27.7665 25.1108 27.1492C30.9077 26.52 37 24.3809 37 14.5661C36.9995 12.0563 36.008 9.64281 34.2308 7.82508C35.0723 5.62934 35.0128 3.20231 34.0646 1.04816C34.0646 1.04816 31.8861 0.419006 26.8461 3.7086C22.6148 2.59197 18.1544 2.59197 13.9231 3.7086C8.88306 0.419006 6.7046 1.04816 6.7046 1.04816C5.75637 3.20231 5.69687 5.62934 6.53845 7.82508C4.74791 9.65629 3.75541 12.0916 3.76922 14.62C3.76922 24.3629 9.86152 26.5021 15.6584 27.2031C15.0511 27.8142 14.5826 28.5431 14.2836 29.3421C13.9846 30.1412 13.8618 30.9926 13.9231 31.8409V37" stroke="#E1E8E0" stroke-width="1.5" stroke-linecap="round" stroke-linejoin="round"/>
<path d="M13.9231 33.405C8.38462 35.154 3.76923 33.405 1 28.0122" stroke="#E1E8E0" stroke-width="1.5" stroke-linecap="round" stroke-linejoin="round"/>
</svg>
