<svg width="20" height="20" viewBox="0 0 20 20" fill="none" xmlns="http://www.w3.org/2000/svg">
<path d="M10 18C12.1217 18 14.1566 17.1571 15.6569 15.6569C17.1571 14.1566 18 12.1217 18 10C18 7.87827 17.1571 5.84344 15.6569 4.34315C14.1566 2.84285 12.1217 2 10 2C7.87827 2 5.84344 2.84285 4.34315 4.34315C2.84285 5.84344 2 7.87827 2 10C2 12.1217 2.84285 14.1566 4.34315 15.6569C5.84344 17.1571 7.87827 18 10 18V18ZM10 20C4.477 20 0 15.523 0 10C0 4.477 4.477 0 10 0C15.523 0 20 4.477 20 10C20 15.523 15.523 20 10 20Z" fill="#00FFFF"/>
<path d="M10 14.6159L8.159 8.94991H11.841L10 14.6159ZM10 14.6159L5.578 8.94991H8.158L10 14.6159ZM5.578 8.94991L10 14.6159L5.157 11.0979C5.09177 11.0505 5.04326 10.9836 5.01846 10.9069C4.99366 10.8301 4.99385 10.7475 5.019 10.6709L5.579 8.94891L5.578 8.94991ZM5.578 8.94991L6.688 5.53691C6.70025 5.49852 6.72439 5.46503 6.75692 5.44126C6.78946 5.4175 6.82871 5.40469 6.869 5.40469C6.90929 5.40469 6.94854 5.4175 6.98107 5.44126C7.01361 5.46503 7.03774 5.49852 7.05 5.53691L8.159 8.94991H5.579H5.578ZM10 14.6159L11.841 8.94891H14.421L10 14.6159ZM14.422 8.94891L14.982 10.6709C15.0069 10.7477 15.0068 10.8305 14.9816 10.9072C14.9565 10.984 14.9076 11.0508 14.842 11.0979L10 14.6159L14.422 8.94891ZM14.422 8.94891H11.842L12.95 5.53591C12.962 5.49714 12.9861 5.46324 13.0188 5.43917C13.0514 5.41509 13.0909 5.4021 13.1315 5.4021C13.1721 5.4021 13.2116 5.41509 13.2442 5.43917C13.2769 5.46324 13.301 5.49714 13.313 5.53591L14.422 8.94891Z" fill="#00FFFF"/>
</svg>
