<svg width="24" height="24" viewBox="0 0 24 24" fill="none" xmlns="http://www.w3.org/2000/svg">
<mask id="mask0_1929_120" style="mask-type:luminance" maskUnits="userSpaceOnUse" x="0" y="0" width="24" height="24">
<path d="M0 0H24V24H0V0Z" fill="white"/>
</mask>
<g mask="url(#mask0_1929_120)">
<path fill-rule="evenodd" clip-rule="evenodd" d="M11.384 4.18703C11.765 4.30222 12.1706 4.30846 12.555 4.20503L18.881 15.387C18.5881 15.6692 18.3823 16.0294 18.288 16.425H5.70998C5.60877 16.0097 5.38593 15.634 5.06998 15.346L11.384 4.18703ZM10.463 3.62203C10.481 3.64203 10.501 3.66103 10.52 3.68003L4.19298 14.865C4.16315 14.857 4.13314 14.8497 4.10298 14.843V9.15603C4.39064 9.09168 4.66174 8.9681 4.89899 8.79317C5.13625 8.61824 5.33446 8.3958 5.48098 8.14003C5.62691 7.88571 5.71907 7.60413 5.75175 7.31275C5.78443 7.02136 5.75694 6.72636 5.67098 6.44603L10.463 3.62203ZM14.033 2.78703C14.1343 2.46883 14.1596 2.13128 14.1067 1.80154C14.0539 1.4718 13.9243 1.15907 13.7286 0.888498C13.5328 0.617931 13.2763 0.397083 12.9797 0.243717C12.683 0.0903507 12.3545 0.00874841 12.0206 0.00547371C11.6866 0.00219901 11.3566 0.0773433 11.057 0.224862C10.7574 0.372381 10.4966 0.588157 10.2955 0.854833C10.0945 1.12151 9.9589 1.43164 9.89958 1.76028C9.84025 2.08893 9.85889 2.4269 9.95398 2.74703L5.15898 5.57303C4.92887 5.33704 4.64716 5.15765 4.33599 5.04895C4.02482 4.94025 3.69268 4.90522 3.36568 4.9466C3.03868 4.98799 2.72574 5.10466 2.45146 5.28745C2.17718 5.47024 1.94904 5.71416 1.78498 6.00003C1.62113 6.28626 1.52545 6.60641 1.50538 6.93561C1.48531 7.26482 1.54139 7.59422 1.66927 7.89823C1.79714 8.20225 1.99337 8.4727 2.24271 8.68858C2.49205 8.90447 2.7878 9.05997 3.10698 9.14303V14.858C2.78849 14.9419 2.49357 15.0979 2.24503 15.314C1.99649 15.5301 1.801 15.8005 1.67368 16.1043C1.54636 16.408 1.49063 16.737 1.5108 17.0657C1.53096 17.3944 1.62649 17.7141 1.78998 18C1.95382 18.2852 2.18147 18.5286 2.4551 18.7111C2.72873 18.8936 3.0409 19.0102 3.36714 19.0518C3.69339 19.0935 4.02485 19.059 4.33555 18.9512C4.64625 18.8433 4.92775 18.6649 5.15798 18.43L9.95298 21.256C9.89567 21.4526 9.86671 21.6563 9.86698 21.861C9.86632 22.1416 9.921 22.4196 10.0279 22.679C10.1348 22.9384 10.2918 23.1742 10.4899 23.3729C10.688 23.5716 10.9234 23.7292 11.1825 23.8368C11.4416 23.9444 11.7194 23.9999 12 24C12.3414 23.9993 12.6776 23.9168 12.9806 23.7595C13.2836 23.6021 13.5445 23.3745 13.7415 23.0957C13.9385 22.8168 14.0659 22.4949 14.1129 22.1567C14.16 21.8186 14.1254 21.4741 14.012 21.152L18.763 18.352C18.9869 18.6051 19.2679 18.8013 19.5827 18.9242C19.8976 19.0471 20.2371 19.0933 20.5733 19.0589C20.9095 19.0245 21.2327 18.9105 21.5161 18.7263C21.7995 18.5422 22.0349 18.2932 22.203 18C22.3715 17.7094 22.4691 17.3832 22.488 17.0479C22.5068 16.7125 22.4464 16.3774 22.3116 16.0698C22.1769 15.7621 21.9715 15.4905 21.7121 15.277C21.4528 15.0636 21.1468 14.9142 20.819 14.841V9.16103C21.1471 9.08777 21.4534 8.93847 21.7133 8.72517C21.9731 8.51188 22.1793 8.24053 22.3151 7.933C22.4509 7.62547 22.5126 7.29034 22.4952 6.9546C22.4778 6.61886 22.3818 6.29189 22.215 6.00003C22.0489 5.71169 21.8177 5.46619 21.5398 5.28318C21.2619 5.10016 20.945 4.9847 20.6145 4.94603C20.284 4.90735 19.9491 4.94653 19.6364 5.06044C19.3238 5.17435 19.0421 5.35982 18.814 5.60203L14.033 2.78703ZM13.434 3.72403L13.509 3.65203L18.317 6.48503C18.2386 6.76031 18.2162 7.0485 18.251 7.33258C18.2859 7.61667 18.3774 7.89088 18.52 8.13903C18.6597 8.38401 18.847 8.59864 19.0707 8.77035C19.2944 8.94206 19.5502 9.0674 19.823 9.13903V14.859C19.7968 14.8662 19.7708 14.8739 19.745 14.882L13.434 3.72403ZM18.329 17.582L13.555 20.396C13.356 20.1831 13.1154 20.0134 12.8481 19.8974C12.5807 19.7815 12.2924 19.7218 12.001 19.722C11.395 19.722 10.849 19.974 10.461 20.38L5.67598 17.56C5.68798 17.521 5.69898 17.482 5.70798 17.442H18.29C18.302 17.489 18.314 17.536 18.329 17.582Z" fill="#33E1FF"/>
</g>
</svg>
