<svg width="43" height="38" viewBox="0 0 43 38" fill="none" xmlns="http://www.w3.org/2000/svg">
<path d="M21.4998 8.53219L5.18599 22.8379C5.06505 22.9462 4.91052 22.9967 4.77764 23.0865V36.8125C4.77764 37.4686 5.31215 38 5.97208 38H17.1125L14.3332 32.5961L22.1052 27.8461L17.6141 18.9978L28.6665 29.1494L20.8944 33.8994L23.8745 38H37.0276C37.6875 38 38.222 37.4686 38.222 36.8125V23.0895C38.0951 23.0034 37.9443 22.9544 37.8293 22.852L21.4998 8.53219ZM42.6034 17.5364L38.222 13.6896V3.5625C38.222 2.90641 37.6875 2.375 37.0276 2.375H32.2498C31.5899 2.375 31.0553 2.90641 31.0553 3.5625V7.39887L23.4968 0.765197C22.9272 0.256056 22.2135 0.00074381 21.4998 1.62286e-06C20.7861 -0.000740565 20.0739 0.253088 19.5066 0.762228L0.396275 17.5364C-0.0941929 17.975 -0.135252 18.7254 0.305945 19.2138L1.90351 20.9816C2.34396 21.4693 3.09944 21.5101 3.59066 21.0714L20.71 6.05848C21.1616 5.66289 21.8387 5.66289 22.2904 6.05848L39.4097 21.0707C39.9002 21.5086 40.6557 21.4685 41.0969 20.9809L42.6944 19.213C43.1349 18.7254 43.0946 17.9743 42.6034 17.5364Z" fill="#EEEEEE"/>
</svg>
