<svg width="27" height="28" viewBox="0 0 27 28" fill="none" xmlns="http://www.w3.org/2000/svg">
<path d="M9.74894 17.7928L9.79408 17.8143L9.87452 17.8523C9.97711 17.9004 10.0807 17.9473 10.1853 17.9931L10.251 18.0217C10.3709 18.0732 10.4918 18.1224 10.6137 18.1694L10.7021 18.2033C10.8152 18.2465 10.9292 18.288 11.0443 18.3276L11.0873 18.3421C11.2134 18.3851 11.3406 18.4252 11.469 18.4643L11.5613 18.4911C11.6918 18.5298 11.8207 18.5758 11.9554 18.6003C20.5038 20.1264 22.9867 13.5706 22.9867 13.5706C20.9011 16.2307 17.1994 16.9325 13.692 16.1513C13.5592 16.122 13.4301 16.0812 13.3005 16.0437L13.203 16.0148C13.0767 15.9769 12.951 15.9369 12.826 15.8948L12.7744 15.8765C12.663 15.8379 12.5522 15.7977 12.442 15.7559L12.349 15.7201C12.2284 15.6737 12.1088 15.625 11.9902 15.5741L11.9184 15.5429C11.817 15.4981 11.7161 15.4522 11.6158 15.4051L11.5281 15.3639C11.4496 15.3263 11.3717 15.2862 11.294 15.2471L11.1378 15.1669C11.0434 15.1172 10.9499 15.0659 10.8574 15.0128L10.7627 14.9611C10.6397 14.8898 10.5179 14.8167 10.3972 14.7417L10.2987 14.6776C10.2111 14.6226 10.1244 14.5662 10.0387 14.5084L9.95497 14.4507C9.87234 14.3935 9.79041 14.3355 9.70919 14.2767L9.60021 14.1959C9.52557 14.1403 9.45167 14.0838 9.37851 14.0264L9.27959 13.9486C9.18649 13.8738 9.09434 13.7978 9.00317 13.7208L8.973 13.6958C8.87456 13.6114 8.77757 13.5254 8.68208 13.4378L8.60023 13.3606C8.52945 13.295 8.45984 13.2283 8.3914 13.1605L8.30955 13.0803C8.22276 12.9933 8.13739 12.9049 8.05347 12.8152L8.04085 12.8019C7.95236 12.7071 7.86574 12.6106 7.78103 12.5125L7.71298 12.4333C7.64968 12.3588 7.5874 12.2834 7.52612 12.2071L7.4576 12.1237C7.38427 12.0309 7.31231 11.9371 7.24175 11.8423C5.29465 9.24167 4.59495 5.65486 6.15127 2.70917L4.77175 4.42232C3.00402 6.90961 3.22431 10.1459 4.57437 12.7891L4.67329 12.9771L4.73667 13.0961L4.77596 13.1646L4.84635 13.288C4.88813 13.3604 4.931 13.4324 4.97497 13.5042L5.04863 13.623C5.09728 13.6998 5.14717 13.7761 5.1983 13.852L5.26191 13.9486C5.33223 14.0515 5.40441 14.1534 5.47847 14.2545L5.48478 14.2625L5.52126 14.3108C5.58581 14.3975 5.6516 14.4832 5.71864 14.568L5.793 14.6605C5.85272 14.734 5.91352 14.8072 5.97541 14.88L6.0451 14.9613C6.12804 15.0575 6.21278 15.1523 6.29931 15.2457L6.30445 15.251L6.31427 15.2615C6.39846 15.3517 6.48499 15.4396 6.57245 15.528L6.65524 15.6098C6.72306 15.6765 6.79181 15.7425 6.8615 15.8078L6.94592 15.8864C7.03853 15.972 7.1327 16.056 7.22842 16.1385L7.2331 16.1419L7.28221 16.1831C7.36687 16.2549 7.45254 16.3257 7.53922 16.3956L7.64563 16.4785C7.71625 16.5339 7.78766 16.5885 7.85984 16.6424L7.9742 16.7276C8.05371 16.7848 8.13376 16.8411 8.21437 16.8964L8.30206 16.9573L8.32615 16.974C8.40286 17.0257 8.4812 17.0752 8.55954 17.1249L8.66057 17.1908C8.78061 17.2656 8.90238 17.3386 9.02585 17.4097L9.12688 17.4656C9.21731 17.5167 9.30867 17.5668 9.40096 17.6158L9.5525 17.6927L9.74894 17.7928ZM10.6126 9.36783C10.8041 9.63664 11.0162 9.95628 11.2704 10.1724C11.3626 10.2718 11.4589 10.3684 11.5571 10.4639L11.6329 10.5367C11.7283 10.6275 11.8259 10.7164 11.9257 10.8032L11.9379 10.8133L11.9407 10.8163C12.0517 10.9115 12.1663 11.0031 12.2828 11.0933L12.3607 11.1529C12.4776 11.2406 12.5966 11.3267 12.7187 11.4089L12.7292 11.4164L12.8925 11.5217L12.9701 11.5721C13.0573 11.6266 13.1455 11.6802 13.2355 11.731L13.2729 11.7523C13.3506 11.7961 13.4288 11.8389 13.5075 11.8808L13.5908 11.9236L13.7549 12.0067L13.7797 12.0177C13.8923 12.072 14.0064 12.1241 14.1221 12.1739L14.1976 12.2043C14.2904 12.2431 14.3838 12.2802 14.478 12.3158L14.5982 12.3589C14.6838 12.39 14.7694 12.4184 14.8559 12.4466L14.9726 12.4832C15.0956 12.5205 15.217 12.5677 15.3452 12.5885C21.9451 13.6594 23.4689 8.68367 23.4689 8.68367C22.0952 10.6205 19.4353 11.5444 16.5968 10.8232C16.4713 10.7909 16.3467 10.7556 16.2231 10.7174L16.1106 10.6819C16.0228 10.6541 15.9356 10.6247 15.8491 10.5937L15.7313 10.5507C15.6368 10.5152 15.5429 10.4781 15.4497 10.4396L15.3739 10.408C15.2578 10.3586 15.1431 10.3063 15.0297 10.2512L14.8569 10.1651L14.7572 10.115C14.6838 10.0757 14.611 10.0355 14.5388 9.99429L14.4867 9.96521C14.3974 9.91422 14.3092 9.86163 14.2219 9.80745L14.1422 9.75502L13.971 9.6442C13.85 9.562 13.7311 9.47688 13.6144 9.3889L13.5342 9.32685C12.2917 8.36678 11.3069 7.05386 10.8385 5.56533C10.3479 4.02208 10.4536 2.28924 11.3036 0.883136L10.2592 2.32702C8.98095 4.12786 9.05041 6.53914 10.0476 8.44394C10.2145 8.76396 10.4033 9.07262 10.6126 9.36783ZM17.5691 7.13973L17.7331 7.19537L17.8053 7.21781C17.8832 7.24162 17.9602 7.26955 18.0404 7.28421C21.6846 7.97364 22.6733 5.45314 22.9364 5.08221C22.0704 6.30284 20.6154 6.5957 18.8299 6.17142C18.6836 6.13512 18.5394 6.09156 18.3977 6.0409C18.2232 5.98014 18.052 5.91059 17.8849 5.83254C17.5676 5.68306 17.2663 5.50304 16.9854 5.29515C15.3877 4.10794 14.3952 1.84412 15.4378 0L14.8737 0.761095C14.1202 1.8471 14.0461 3.19573 14.569 4.39461C15.1204 5.66768 16.2504 6.66599 17.5691 7.13973ZM14.0515 21.7482H13.0632C13.0353 21.7494 13.0085 21.7593 12.9867 21.7765C12.9649 21.7937 12.9494 21.8172 12.9423 21.8437L12.5915 23.4327L12.2407 25.0218C12.2338 25.0483 12.2183 25.072 12.1966 25.0892C12.1748 25.1064 12.148 25.1162 12.12 25.1173H11.4206C10.7286 25.1173 10.8086 24.6486 10.9503 24.0065L10.9545 23.9871L10.9699 23.906L10.9727 23.8909L11.0043 23.7261L11.0382 23.5495L11.0742 23.3698L11.2337 22.6069L11.3934 21.8439C11.3965 21.8323 11.3967 21.8201 11.3941 21.8083C11.3914 21.7966 11.386 21.7856 11.3783 21.7763C11.3705 21.7669 11.3606 21.7595 11.3494 21.7546C11.3382 21.7497 11.326 21.7474 11.3137 21.748H10.2994C10.2715 21.749 10.2447 21.7589 10.223 21.7761C10.2013 21.7934 10.1859 21.8171 10.1792 21.8437L9.96105 22.8567L9.7431 23.8698L9.74263 23.8712L9.72252 23.9656C9.47135 25.0882 9.53777 26.1591 10.903 26.1927L10.9428 26.1934H13.0856C13.1136 26.1924 13.1404 26.1825 13.1622 26.1653C13.1839 26.1481 13.1994 26.1245 13.2063 26.0979L13.6684 23.9711L14.1305 21.8439C14.142 21.7913 14.1064 21.7484 14.0515 21.7482ZM3.46799 21.737H2.38289C2.35484 21.738 2.32785 21.7478 2.30592 21.7649C2.28398 21.7821 2.26825 21.8057 2.26105 21.8322L2.15815 22.2769L2.05526 22.7216C2.04333 22.774 2.07817 22.8168 2.13313 22.8168H3.22665C3.25461 22.8157 3.28146 22.8058 3.30326 22.7886C3.32506 22.7714 3.34067 22.7478 3.34779 22.7213L3.44718 22.2769L3.54657 21.8325C3.55803 21.78 3.52295 21.737 3.46799 21.737ZM3.15322 23.1209H2.05947C2.03141 23.1219 2.00443 23.1317 1.98249 23.1488C1.96055 23.166 1.94483 23.1896 1.93763 23.2161L1.78398 23.8824L1.63057 24.5485L1.58777 24.7395L1.44021 25.4195L1.29288 26.0998C1.28142 26.1522 1.2578 26.2369 1.24026 26.2878C1.24026 26.2878 1.03587 26.8831 0.692333 26.8762L0.649303 26.8753L0.35207 26.87C0.324167 26.8708 0.296996 26.8802 0.274952 26.8969C0.252908 26.9137 0.236911 26.9369 0.229295 26.9632L0.115874 27.4301L0.00268662 27.8967C-0.0101756 27.9489 0.0244354 27.992 0.0789243 27.9929C0.273728 27.9952 0.710106 28 0.974132 28C1.83216 28 2.28467 27.5345 2.57442 26.195L2.91375 24.6577L3.23203 23.2159C3.24349 23.1639 3.20794 23.1209 3.15322 23.1209ZM23.2923 22.7605L23.247 22.5771L23.2023 22.3893L23.1796 22.2945C23.0908 21.9563 22.83 21.7615 22.2636 21.7615L21.382 21.7606L20.57 21.7594H19.6563C19.6284 21.7604 19.6015 21.7702 19.5798 21.7874C19.558 21.8047 19.5426 21.8283 19.5359 21.8549L19.4954 22.0418L19.4477 22.2625L19.4344 22.3245L19.023 24.2112L18.6325 26.0022C18.6208 26.0549 18.6171 26.1195 18.6236 26.1456C18.6302 26.1719 18.7356 26.1934 18.7903 26.1934H19.6145C19.6694 26.1934 19.7389 26.1838 19.7688 26.1719C19.7987 26.16 19.8429 26.0544 19.8539 26.002L20.0003 25.2924L20.147 24.5826L20.1472 24.5815L20.1668 24.4869L20.3446 23.6718L20.5015 22.9519C20.5084 22.9254 20.5239 22.9018 20.5456 22.8846C20.5672 22.8674 20.594 22.8575 20.6219 22.8564L23.2152 22.8553C23.2701 22.8557 23.3047 22.8129 23.2923 22.7605ZM26.6307 21.1027L26.4309 21.1034H25.601C25.5706 21.1051 25.5409 21.1131 25.5139 21.1271C25.487 21.141 25.4635 21.1605 25.445 21.1843L23.6095 23.817C23.5786 23.8614 23.5433 23.855 23.5311 23.8028L23.3959 23.2228C23.3887 23.1962 23.373 23.1726 23.351 23.1554C23.329 23.1382 23.302 23.1285 23.2739 23.1275H22.0941C22.0391 23.1275 22.0066 23.1697 22.0216 23.2212L22.5503 25.0348C22.5653 25.0866 22.5664 25.1713 22.5529 25.2235L22.3225 26.1012C22.3087 26.1534 22.3424 26.1957 22.3974 26.1957H23.5636C23.5918 26.1946 23.619 26.1849 23.6413 26.1679C23.6636 26.151 23.6799 26.1276 23.688 26.1012L23.9186 25.2235C23.9368 25.1616 23.9655 25.1032 24.0035 25.0506L26.9833 21.1785C27.0165 21.1355 26.9985 21.1005 26.9438 21.1009L26.6307 21.1027ZM17.2562 23.3739V23.373C17.2522 23.4006 17.2382 23.426 17.2169 23.4445C17.1955 23.463 17.1681 23.4734 17.1395 23.474H15.6436C15.5916 23.474 15.5655 23.4396 15.5732 23.397L15.5746 23.3936L15.5736 23.394L15.5743 23.3892L15.5811 23.3643C15.724 22.9924 16.0149 22.7484 16.5619 22.7484C17.1779 22.7481 17.2981 23.0426 17.2562 23.3739ZM16.8173 21.6832C14.8971 21.6832 14.442 22.8244 14.1866 23.9763C13.9315 25.1505 13.9532 26.2479 15.9406 26.2479H16.1814L16.2413 26.2477H16.2553L16.4939 26.247H16.4981C17.0229 26.2449 17.5493 26.2411 17.7623 26.2395C17.7901 26.2382 17.8167 26.2281 17.8382 26.2108C17.8597 26.1935 17.8748 26.1698 17.8813 26.1433L17.9618 25.7584L17.9775 25.6835L18.0733 25.2242C18.0764 25.2126 18.0766 25.2004 18.074 25.1886C18.0713 25.1769 18.0659 25.1659 18.0582 25.1566C18.0504 25.1473 18.0405 25.1399 18.0293 25.135C18.0181 25.1301 18.0059 25.1279 17.9936 25.1285H16.2072C15.4965 25.1285 15.2855 24.9437 15.3634 24.4001H18.219L18.2188 24.4004L18.2207 24.4001C18.2433 24.3993 18.2652 24.392 18.2836 24.3792C18.3021 24.3664 18.3164 24.3486 18.3247 24.328L18.3315 24.3037L18.3313 24.304C18.7553 22.7381 18.6337 21.6834 16.8173 21.6832ZM7.74127 23.3679L7.71415 23.4616L7.49853 24.2101L7.28291 24.9581C7.27398 24.9846 7.25705 25.0077 7.23438 25.0245C7.2117 25.0413 7.18434 25.051 7.15593 25.0522H6.0147C5.14896 25.0522 4.93802 24.3891 5.14896 23.4114C5.35967 22.4113 5.77289 21.7897 6.62507 21.7267C7.78968 21.6406 8.0226 22.4425 7.74127 23.3679ZM8.52423 24.9948C8.52423 24.9948 9.06234 23.7153 9.18441 22.9766C9.35115 21.9877 8.84532 20.553 6.89167 20.553C4.94925 20.553 4.10549 21.9225 3.7837 23.4114C3.46191 24.9112 3.88356 26.2262 5.81499 26.2154L7.3388 26.2099L8.76276 26.2049C8.79099 26.2035 8.8181 26.1937 8.84044 26.1767C8.86277 26.1598 8.87925 26.1365 8.88764 26.1101L9.13577 25.1837C9.14956 25.1315 9.11612 25.0889 9.06117 25.0884L8.82333 25.087L8.5855 25.0857C8.53896 25.0854 8.5123 25.0557 8.51791 25.0165L8.52423 24.9948ZM18.1405 24.1382C18.1405 24.1466 18.1388 24.155 18.1355 24.1627C18.1322 24.1705 18.1274 24.1776 18.1214 24.1836C18.1153 24.1895 18.1081 24.1943 18.1001 24.1975C18.0922 24.2007 18.0837 24.2024 18.0751 24.2024C18.0665 24.2024 18.058 24.2008 18.05 24.1976C18.0421 24.1944 18.0349 24.1897 18.0288 24.1837C18.0227 24.1778 18.0178 24.1707 18.0145 24.163C18.0112 24.1552 18.0095 24.1468 18.0095 24.1384C18.0095 24.1214 18.0163 24.1051 18.0286 24.0931C18.0409 24.081 18.0575 24.0742 18.0749 24.0742C18.0922 24.0742 18.1089 24.0809 18.1212 24.0929C18.1335 24.1049 18.1404 24.1212 18.1405 24.1382Z" fill="#33E1FF"/>
</svg>
