<svg width="34" height="33" viewBox="0 0 34 33" fill="none" xmlns="http://www.w3.org/2000/svg">
<path d="M0 0V33H34V0H0ZM18.5028 25.7378C18.5028 28.9498 16.5625 30.4106 13.7315 30.4106C11.1769 30.4106 9.6934 29.1258 8.93973 27.577L11.5419 26.048C12.0439 26.9016 12.5007 27.632 13.5955 27.632C14.6449 27.632 15.3068 27.2437 15.3068 25.685V15.147H18.5028V25.7378ZM26.0576 30.4106C23.0905 30.4106 21.1729 29.0378 20.2379 27.2426L22.8389 25.7829C23.5235 26.8587 24.4143 27.6639 25.9896 27.6639C27.3122 27.6639 28.1463 27.0215 28.1463 26.1283C28.1463 25.0657 27.2782 24.6873 25.8185 24.0768L25.0251 23.7358C22.7199 22.7843 21.1911 21.5875 21.1911 19.0608C21.1911 16.7365 23.0089 14.9633 25.8695 14.9633C27.9004 14.9633 29.3601 15.6508 30.4119 17.4427L27.9299 18.9882C27.3859 18.0422 26.7897 17.6572 25.8763 17.6572C24.9424 17.6572 24.344 18.2314 24.344 18.9882C24.344 19.9254 24.9333 20.295 26.3047 20.8692L27.1014 21.2102C29.818 22.3322 31.348 23.4872 31.348 26.0832C31.3559 28.8816 29.0972 30.4062 26.061 30.4062L26.0576 30.4106Z" fill="#E1E8E0"/>
</svg>
