<svg width="20" height="20" viewBox="0 0 20 20" fill="none" xmlns="http://www.w3.org/2000/svg">
<path d="M19.41 4.52C19.42 4.54 19.42 4.57 19.42 4.6V8.89C19.42 8.99 19.36 9.11 19.27 9.16L15.66 11.24V15.35C15.66 15.46 15.61 15.56 15.51 15.62L7.99 19.95C7.97 19.96 7.95 19.99 7.93 19.99H7.71C7.71 19.99 7.71 19.96 7.67 19.95L0.15 15.62C0.104245 15.5913 0.0664954 15.5515 0.0402677 15.5043C0.01404 15.4571 0.000187341 15.404 0 15.35V2.49C0 2.44 -9.31323e-09 2.41 0.00999999 2.39C0.00999999 2.38 0.02 2.37 0.02 2.36C0.02 2.34 0.03 2.33 0.04 2.31C0.04 2.3 0.0499999 2.29 0.0599999 2.28L0.0900002 2.25L0.12 2.22C0.13 2.21 0.14 2.2 0.15 2.2L3.91 0.03C4.01 -0.01 4.13 -0.01 4.21 0.03L7.99 2.2C8 2.21 8.01 2.21 8.02 2.22L8.05 2.25L8.08 2.28C8.09 2.29 8.1 2.3 8.1 2.31C8.11 2.33 8.12 2.34 8.12 2.36C8.12 2.37 8.13 2.38 8.13 2.39C8.14 2.42 8.14 2.44 8.14 2.49V10.49L11.28 8.71V4.6C11.28 4.57 11.28 4.54 11.29 4.52L11.3 4.49C11.3 4.49 11.31 4.46 11.32 4.44C11.32 4.43 11.33 4.42 11.34 4.41L11.37 4.38L11.4 4.35C11.41 4.34 11.42 4.33 11.43 4.33L15.21 2.16C15.29 2.1 15.41 2.1 15.51 2.16L19.27 4.33C19.28 4.33 19.29 4.34 19.3 4.35L19.33 4.38L19.36 4.41C19.37 4.42 19.37 4.43 19.38 4.44C19.39 4.46 19.39 4.49 19.4 4.49C19.41 4.49 19.41 4.49 19.41 4.52ZM18.8 8.71V5.14L15.66 6.94V10.49L18.8 8.71ZM15.04 15.17V11.59L8.14 15.53V19.14L15.04 15.17ZM0.62 2.99V15.17L7.52 19.14V15.53L3.92 13.49H3.91C3.9 13.49 3.89 13.49 3.88 13.46C3.87 13.46 3.86 13.45 3.85 13.44L3.82 13.41C3.81 13.4 3.81 13.39 3.8 13.38C3.79 13.36 3.79 13.35 3.78 13.34C3.78 13.32 3.77 13.31 3.77 13.3C3.76 13.29 3.76 13.27 3.76 13.26V4.81L0.62 2.99ZM4.07 0.67L0.94 2.49L4.07 4.27L7.21 2.49L4.07 0.67ZM7.52 10.87V2.99L4.38 4.81V12.68L7.52 10.87ZM15.35 2.79L12.21 4.6L15.35 6.4L18.48 4.6L15.35 2.79ZM15.04 6.94L11.9 5.14V8.71L15.04 10.49V6.94ZM7.83 14.99L14.71 11.05L11.59 9.25L4.71 13.22L7.83 14.99Z" fill="#33E1FF"/>
</svg>
