<svg width="36" height="37" viewBox="0 0 36 37" fill="none" xmlns="http://www.w3.org/2000/svg">
<path d="M35.9815 8.37103C35.993 8.41959 36 8.47394 36 8.52134V16.4649C36.0003 16.5663 35.9736 16.6659 35.9227 16.7537C35.8719 16.8414 35.7986 16.9142 35.7104 16.9644L29.0321 20.8067V28.4127C29.0324 28.514 29.0057 28.6137 28.9549 28.7014C28.904 28.7892 28.8307 28.8619 28.7425 28.9122L14.8021 36.9217C14.7696 36.9397 14.735 36.9537 14.6991 36.9633L14.6631 36.9818C14.5662 37.0061 14.4647 37.0061 14.3678 36.9818C14.3532 36.9774 14.3392 36.9712 14.3261 36.9633C14.2926 36.9529 14.2604 36.939 14.23 36.9217L0.295348 28.9122C0.206562 28.8621 0.132534 28.7896 0.0806937 28.7019C0.0288536 28.6142 0.00102471 28.5145 0 28.4127V4.58309C0 4.53452 0.0115823 4.48018 0.0243228 4.43277C0.0301139 4.41427 0.035905 4.40271 0.0428544 4.38421L0.0787594 4.29402C0.0845505 4.27552 0.103082 4.26396 0.114664 4.24545L0.169101 4.17261C0.188599 4.16059 0.206836 4.14665 0.223538 4.13098C0.24786 4.11248 0.265234 4.09514 0.289557 4.08242L7.25745 0.0770995C7.34556 0.0265828 7.44539 0 7.547 0C7.64861 0 7.74845 0.0265828 7.83656 0.0770995L14.8102 4.08242C14.8346 4.09398 14.8519 4.11248 14.8705 4.13098L14.9307 4.17261C14.9485 4.19579 14.9648 4.22013 14.9793 4.24545C14.9909 4.25702 15.0095 4.27552 15.021 4.29402L15.0569 4.38421C15.0627 4.40271 15.0755 4.41427 15.0755 4.43277C15.093 4.4809 15.1013 4.5319 15.0998 4.58309V19.4643L20.9025 16.1284V8.5225C20.9047 8.45417 20.9192 8.3868 20.9454 8.32362L20.9813 8.23343C20.9929 8.20915 21.0114 8.19759 21.023 8.17909C21.0415 8.15481 21.0531 8.13052 21.0716 8.11318C21.0901 8.09584 21.1133 8.08312 21.1318 8.07155C21.1492 8.0523 21.1696 8.03591 21.1921 8.02299L28.1658 4.01767C28.2529 3.9643 28.3531 3.93605 28.4553 3.93605C28.5575 3.93605 28.6577 3.9643 28.7449 4.01767L35.7128 8.02299C35.7371 8.03455 35.7545 8.05305 35.7788 8.07155C35.7973 8.08312 35.8147 8.09584 35.8332 8.11318C35.8517 8.13052 35.8691 8.15481 35.8877 8.17909C35.8992 8.19759 35.9178 8.20915 35.9236 8.23343C35.9421 8.2635 35.9479 8.29356 35.9595 8.32362C35.971 8.33518 35.978 8.35368 35.9838 8.37219L35.9815 8.37103ZM34.8348 16.1273V9.5273L32.3979 10.9241L29.0321 12.8631V19.4631L34.8348 16.1273ZM27.8739 28.075V21.4681L24.5556 23.3528L15.0963 28.7491V35.4162L27.8739 28.075ZM1.15591 5.58789V28.075L13.9323 35.4162V28.7491L7.25397 24.9728C7.22965 24.9612 7.21228 24.9427 7.19374 24.9242C7.17521 24.9126 7.15205 24.8999 7.13931 24.8826H7.13352C7.11499 24.8641 7.1034 24.8409 7.08487 24.8224C7.07329 24.8039 7.05476 24.7866 7.04318 24.7623C7.02969 24.7396 7.01955 24.7151 7.01306 24.6895C7.00148 24.6652 6.98874 24.6478 6.98295 24.6236C6.97716 24.5993 6.97137 24.5692 6.97137 24.5392C6.96557 24.5149 6.95978 24.4975 6.95978 24.4733V8.92373L3.59398 6.98466L1.15591 5.58789ZM7.54469 1.24609L1.74197 4.58193L7.54469 7.91777L13.3474 4.58193L7.54469 1.24609ZM10.5665 22.0717L13.9323 20.1326V5.58904L11.4954 6.98582L8.1238 8.92488V23.4685L10.5665 22.0717ZM28.453 5.18435L22.6433 8.52019L28.453 11.856L34.2557 8.52019L28.453 5.18435ZM27.8739 12.8631L22.0642 9.5273V16.1273L25.43 18.0664L27.8727 19.4631L27.8739 12.8631ZM14.5126 27.7443L27.2832 20.4691L21.4863 17.1332L8.72145 24.4686L14.5126 27.7443Z" fill="#E1E8E0"/>
</svg>
