<svg xmlns="http://www.w3.org/2000/svg" xmlns:xlink="http://www.w3.org/1999/xlink" width="500" zoomAndPan="magnify" viewBox="0 0 375 374.999991" height="500" preserveAspectRatio="xMidYMid meet" version="1.0"><defs><g/><clipPath id="id1"><path d="M 85.519531 200.175781 L 289.519531 200.175781 L 289.519531 290.761719 L 85.519531 290.761719 Z M 85.519531 200.175781 " clip-rule="nonzero"/></clipPath><clipPath id="id2"><path d="M 85.519531 84.277344 L 289.519531 84.277344 L 289.519531 175.027344 L 85.519531 175.027344 Z M 85.519531 84.277344 " clip-rule="nonzero"/></clipPath><clipPath id="id3"><path d="M 120.953125 200.5 L 253.703125 200.5 L 253.703125 253.703125 L 120.953125 253.703125 Z M 120.953125 200.5 " clip-rule="nonzero"/></clipPath><clipPath id="id4"><path d="M 120.953125 120.953125 L 253.703125 120.953125 L 253.703125 174.953125 L 120.953125 174.953125 Z M 120.953125 120.953125 " clip-rule="nonzero"/></clipPath></defs><g clip-path="url(#id1)"><path fill="#fdf1e4" d="M 187.484375 290.761719 C 131.289062 290.761719 85.519531 244.992188 85.519531 188.726562 C 85.519531 132.464844 131.289062 86.761719 187.484375 86.761719 C 243.679688 86.761719 289.449219 132.53125 289.449219 188.726562 C 289.519531 244.992188 243.75 290.761719 187.484375 290.761719 Z M 187.484375 88.488281 C 132.1875 88.488281 87.246094 133.429688 87.246094 188.726562 C 87.246094 244.023438 132.257812 289.035156 187.484375 289.035156 C 242.714844 289.035156 287.792969 244.023438 287.792969 188.726562 C 287.792969 133.429688 242.78125 88.488281 187.484375 88.488281 Z M 187.484375 88.488281 " fill-opacity="1" fill-rule="nonzero"/></g><path stroke-linecap="round" transform="matrix(2.258487, 0, 0, 2.25, 75.431551, 187.499988)" fill="none" stroke-linejoin="miter" d="M 0.500755 0.00000547222 L 25.735431 0.00000547222 " stroke="#fdf1e4" stroke-width="1" stroke-opacity="1" stroke-miterlimit="4"/><path stroke-linecap="round" transform="matrix(2.258487, 0, 0, 2.25, 240.539022, 187.499988)" fill="none" stroke-linejoin="miter" d="M 0.499869 0.00000547222 L 25.734545 0.00000547222 " stroke="#fdf1e4" stroke-width="1" stroke-opacity="1" stroke-miterlimit="4"/><g clip-path="url(#id2)"><path fill="#fdf1e4" d="M 187.484375 288.277344 C 131.289062 288.277344 85.519531 242.503906 85.519531 186.242188 C 85.519531 129.976562 131.289062 84.277344 187.484375 84.277344 C 243.679688 84.277344 289.449219 130.046875 289.449219 186.242188 C 289.519531 242.503906 243.75 288.277344 187.484375 288.277344 Z M 187.484375 86 C 132.1875 86 87.246094 130.945312 87.246094 186.242188 C 87.246094 241.539062 132.257812 286.550781 187.484375 286.550781 C 242.714844 286.550781 287.792969 241.539062 287.792969 186.242188 C 287.792969 130.945312 242.78125 86 187.484375 86 Z M 187.484375 86 " fill-opacity="1" fill-rule="nonzero"/></g><g fill="#fdf1e4" fill-opacity="1"><g transform="translate(98.632817, 200.789498)"><g><path d="M 12.613281 7.621094 L 15.632812 7 L 13.894531 -1.441406 L 0.28125 1.363281 L 0.996094 4.832031 L 6.304688 3.738281 L 7.167969 7.9375 L 10.164062 7.320312 L 9.300781 3.121094 L 11.589844 2.652344 Z M 12.613281 7.621094 "/></g></g></g><g fill="#fdf1e4" fill-opacity="1"><g transform="translate(101.08057, 212.701599)"><g><path d="M 2.359375 6.761719 C 3.539062 9.882812 6.347656 11.617188 8.777344 10.699219 L 17.636719 7.347656 L 16.386719 4.035156 L 8.152344 7.148438 C 7.003906 7.582031 5.714844 6.929688 5.238281 5.671875 C 4.765625 4.414062 5.296875 3.074219 6.445312 2.640625 L 14.679688 -0.472656 L 13.425781 -3.789062 L 4.566406 -0.4375 C 2.136719 0.480469 1.179688 3.640625 2.359375 6.761719 Z M 2.359375 6.761719 "/></g></g></g><g fill="#fdf1e4" fill-opacity="1"><g transform="translate(107.146413, 227.779893)"><g><path d="M 5.054688 2.679688 L 14.472656 -2.644531 L 12.726562 -5.730469 L 0.625 1.109375 L 4.546875 8.046875 L 7.230469 6.53125 Z M 5.054688 2.679688 "/></g></g></g><g fill="#fdf1e4" fill-opacity="1"><g transform="translate(112.663834, 237.321033)"><g><path d="M 5.34375 2.039062 L 14.039062 -4.398438 L 11.929688 -7.246094 L 0.757812 1.023438 L 5.5 7.429688 L 7.976562 5.597656 Z M 5.34375 2.039062 "/></g></g></g><g fill="#fdf1e4" fill-opacity="1"><g transform="translate(119.309117, 246.203968)"><g><path d="M 3.921875 4.296875 C 5.78125 6.203125 8.496094 6.765625 10.402344 4.90625 C 14.1875 1.21875 8.84375 -2.371094 10.355469 -3.84375 C 10.785156 -4.261719 11.308594 -4.125 11.695312 -3.726562 C 12.183594 -3.230469 12.417969 -2.390625 12.371094 -1.308594 L 15.59375 -1.21875 C 15.75 -2.886719 15.164062 -4.613281 13.953125 -5.859375 C 12.417969 -7.4375 9.808594 -8.289062 7.683594 -6.222656 C 4.230469 -2.859375 9.472656 0.863281 7.964844 2.332031 C 7.566406 2.722656 6.960938 2.664062 6.328125 2.015625 C 5.488281 1.152344 5.273438 0.00390625 5.683594 -1.070312 L 2.367188 -1.886719 C 1.753906 0.0078125 2.144531 2.46875 3.921875 4.296875 Z M 3.921875 4.296875 "/></g></g></g><g fill="#fdf1e4" fill-opacity="1"><g transform="translate(128.606804, 255.50045)"><g><path d="M 16.519531 -4.777344 L 8.355469 -11.109375 L 6.464844 -8.675781 L 9.15625 -6.589844 L 2.527344 1.960938 L 5.308594 4.117188 L 11.9375 -4.429688 L 14.628906 -2.34375 Z M 16.519531 -4.777344 "/></g></g></g><g fill="#fdf1e4" fill-opacity="1"><g transform="translate(137.989366, 262.74963)"><g><path d="M 8.554688 4.78125 L 11.871094 6.632812 L 14.261719 -7.953125 L 10.804688 -9.886719 L -0.363281 -0.203125 L 2.972656 1.660156 L 4.828125 -0.0898438 L 9.074219 2.285156 Z M 7.015625 -2.15625 L 10.746094 -5.699219 L 9.707031 -0.652344 Z M 7.015625 -2.15625 "/></g></g></g><g fill="#fdf1e4" fill-opacity="1"><g transform="translate(151.41286, 270.117032)"><g><path d="M 7.433594 2.742188 C 10.042969 3.636719 12.832031 2.925781 14.699219 1.121094 L 12.3125 -1.339844 C 11.351562 -0.394531 9.964844 -0.0625 8.5625 -0.542969 C 6.566406 -1.226562 5.578125 -3.207031 6.261719 -5.199219 C 6.945312 -7.195312 8.941406 -8.152344 10.933594 -7.46875 C 12.335938 -6.988281 13.226562 -5.875 13.40625 -4.539062 L 16.804688 -5.015625 C 16.4375 -7.589844 14.667969 -9.863281 12.058594 -10.757812 C 8.3125 -12.039062 4.273438 -10.042969 2.996094 -6.320312 C 1.722656 -2.59375 3.6875 1.460938 7.433594 2.742188 Z M 7.433594 2.742188 "/></g></g></g><g fill="#fdf1e4" fill-opacity="1"><g transform="translate(167.52939, 275.398624)"><g><path d="M 9.972656 1.453125 L 14.625 2.132812 L 9.105469 -6.5625 L 15.78125 -11.746094 L 11.3125 -12.398438 L 6.492188 -8.394531 L 6.101562 -8.449219 L 6.773438 -13.058594 L 3.265625 -13.570312 L 1.261719 0.183594 L 4.769531 0.695312 L 5.664062 -5.449219 L 5.894531 -5.414062 Z M 9.972656 1.453125 "/></g></g></g><g fill="#fdf1e4" fill-opacity="1"><g transform="translate(183.420735, 277.31223)"><g/></g></g><g fill="#fdf1e4" fill-opacity="1"><g transform="translate(190.803525, 277.566941)"><g><path d="M 1.265625 -0.144531 L 6.054688 -0.691406 C 9.851562 -1.125 12.605469 -4.5625 12.167969 -8.386719 C 11.734375 -12.207031 8.273438 -14.933594 4.476562 -14.5 L -0.3125 -13.953125 Z M 4.4375 -3.609375 L 3.558594 -11.296875 L 4.824219 -11.441406 C 6.734375 -11.65625 8.421875 -10.148438 8.671875 -7.984375 C 8.917969 -5.820312 7.613281 -3.972656 5.703125 -3.753906 Z M 4.4375 -3.609375 "/></g></g></g><g fill="#fdf1e4" fill-opacity="1"><g transform="translate(206.473207, 275.496232)"><g><path d="M 6.71875 -13.117188 L 5.890625 -16.082031 L -2.410156 -13.757812 L 1.339844 -0.375 L 9.636719 -2.699219 L 8.804688 -5.664062 L 3.921875 -4.296875 L 3.289062 -6.550781 L 7.417969 -7.707031 L 6.59375 -10.648438 L 2.464844 -9.496094 L 1.835938 -11.746094 Z M 6.71875 -13.117188 "/></g></g></g><g fill="#fdf1e4" fill-opacity="1"><g transform="translate(218.749836, 271.998475)"><g><path d="M 2.992188 -16.648438 L 4.070312 -6.976562 L -2.53125 -14.125 L -6.152344 -12.46875 L 4.191406 -1.914062 L 7.796875 -3.5625 L 6.59375 -18.292969 Z M 2.992188 -16.648438 "/></g></g></g><g fill="#fdf1e4" fill-opacity="1"><g transform="translate(232.436034, 265.474923)"><g><path d="M 2.382812 -14.542969 L 0.6875 -17.113281 L -6.503906 -12.363281 L 1.160156 -0.765625 L 8.347656 -5.519531 L 6.648438 -8.089844 L 2.417969 -5.289062 L 1.128906 -7.242188 L 4.703125 -9.605469 L 3.015625 -12.15625 L -0.558594 -9.792969 L -1.847656 -11.746094 Z M 2.382812 -14.542969 "/></g></g></g><g fill="#fdf1e4" fill-opacity="1"><g transform="translate(242.871098, 258.374411)"><g><path d="M 1.613281 -5.488281 L -5.488281 -13.648438 L -8.160156 -11.324219 L 0.960938 -0.835938 L 6.972656 -6.066406 L 4.949219 -8.390625 Z M 1.613281 -5.488281 "/></g></g></g><g fill="#fdf1e4" fill-opacity="1"><g transform="translate(251.436261, 251.057612)"><g><path d="M 5.203125 -5.976562 C 7.71875 -9.007812 7.300781 -13.507812 4.273438 -16.023438 C 1.242188 -18.539062 -3.257812 -18.121094 -5.773438 -15.09375 C -8.304688 -12.046875 -7.875 -7.5625 -4.84375 -5.046875 C -1.8125 -2.53125 2.671875 -2.929688 5.203125 -5.976562 Z M 2.53125 -8.195312 C 1.183594 -6.574219 -1.015625 -6.355469 -2.636719 -7.703125 C -4.261719 -9.046875 -4.449219 -11.25 -3.101562 -12.875 C -1.769531 -14.476562 0.429688 -14.699219 2.050781 -13.351562 C 3.675781 -12.003906 3.863281 -9.800781 2.53125 -8.195312 Z M 2.53125 -8.195312 "/></g></g></g><g fill="#fdf1e4" fill-opacity="1"><g transform="translate(262.585368, 237.065843)"><g><path d="M -8.402344 -13.351562 L -11.457031 -7.972656 L 0.628906 -1.109375 L 2.378906 -4.191406 L -2.355469 -6.878906 L -1.050781 -9.175781 C 0.140625 -11.269531 -0.476562 -13.75 -2.570312 -14.941406 C -4.625 -16.109375 -7.210938 -15.445312 -8.402344 -13.351562 Z M -3.832031 -10.089844 L -4.851562 -8.296875 L -7.027344 -9.53125 L -6.007812 -11.324219 C -5.597656 -12.050781 -4.855469 -12.324219 -4.230469 -11.96875 C -3.585938 -11.601562 -3.421875 -10.816406 -3.832031 -10.089844 Z M -3.832031 -10.089844 "/></g></g></g><g fill="#fdf1e4" fill-opacity="1"><g transform="translate(269.15279, 225.14351)"><g><path d="M -6.46875 -13.242188 L -9.339844 -14.355469 L -12.457031 -6.320312 L 0.503906 -1.296875 L 3.617188 -9.332031 L 0.746094 -10.445312 L -1.089844 -5.714844 L -3.269531 -6.5625 L -1.71875 -10.554688 L -4.570312 -11.660156 L -6.121094 -7.667969 L -8.300781 -8.511719 Z M -6.46875 -13.242188 "/></g></g></g><g fill="#fdf1e4" fill-opacity="1"><g transform="translate(273.69275, 213.23859)"><g><path d="M -3.4375 -9.988281 C -3.632812 -11.671875 -4.910156 -13.089844 -6.761719 -13.503906 C -9.117188 -14.023438 -11.421875 -12.707031 -11.960938 -10.285156 L -13.296875 -4.246094 L 0.273438 -1.242188 L 1.042969 -4.703125 L -3.933594 -5.804688 L -3.757812 -6.597656 L 1.917969 -8.664062 L 2.777344 -12.554688 Z M -6.269531 -8.433594 L -6.71875 -6.421875 L -9.523438 -7.042969 L -9.074219 -9.054688 C -8.894531 -9.871094 -8.175781 -10.328125 -7.363281 -10.148438 C -6.550781 -9.96875 -6.089844 -9.25 -6.269531 -8.433594 Z M -6.269531 -8.433594 "/></g></g></g><g fill="#fdf1e4" fill-opacity="1"><g transform="translate(108.539926, 176.792196)"><g><path d="M -10.203125 -16.457031 L -1.953125 -9.828125 L -12.34375 -7.917969 L -13.148438 -4.707031 L 0.332031 -1.324219 L 1.078125 -4.292969 L -6.96875 -6.308594 L 1.988281 -7.933594 L 2.417969 -9.640625 L -4.6875 -15.3125 L 3.335938 -13.300781 L 4.078125 -16.269531 L -9.402344 -19.648438 Z M -10.203125 -16.457031 "/></g></g></g><g fill="#fdf1e4" fill-opacity="1"><g transform="translate(113.182155, 159.203218)"><g><path d="M 0.59375 -1.230469 L 2.578125 -5.367188 C 4.234375 -8.8125 2.792969 -12.972656 -0.675781 -14.640625 C -4.140625 -16.304688 -8.292969 -14.832031 -9.949219 -11.386719 L -11.933594 -7.253906 Z M -0.527344 -5.160156 L -8.167969 -8.835938 L -7.515625 -10.191406 C -6.5625 -12.175781 -4.171875 -12.929688 -2 -11.882812 C 0.171875 -10.839844 1.078125 -8.503906 0.125 -6.519531 Z M -0.527344 -5.160156 "/></g></g></g><g fill="#fdf1e4" fill-opacity="1"><g transform="translate(119.585151, 146.554569)"><g/></g></g><g fill="#fdf1e4" fill-opacity="1"><g transform="translate(122.993078, 141.334026)"><g><path d="M 0.90625 -1.171875 L 2.773438 -3.59375 L -8.226562 -12.089844 L -10.09375 -9.667969 Z M 0.90625 -1.171875 "/></g></g></g><g fill="#fdf1e4" fill-opacity="1"><g transform="translate(126.935787, 136.107833)"><g><path d="M -3.152344 -16.792969 L -10.109375 -9.539062 L -8.15625 -7.660156 L -5.71875 -10.203125 L 2.355469 -2.457031 L 4.457031 -4.648438 L -3.617188 -12.394531 L -1.195312 -14.917969 Z M -3.152344 -16.792969 "/></g></g></g><g fill="#fdf1e4" fill-opacity="1"><g transform="translate(134.048018, 128.73262)"><g><path d="M -0.953125 -17.058594 L -8.792969 -10.765625 L -7.097656 -8.652344 L -4.351562 -10.855469 L 2.65625 -2.132812 L 5.023438 -4.03125 L -1.984375 -12.757812 L 0.742188 -14.945312 Z M -0.953125 -17.058594 "/></g></g></g><g fill="#fdf1e4" fill-opacity="1"><g transform="translate(142.205301, 122.350761)"><g><path d="M 1.25 -0.800781 L 3.824219 -2.449219 L -3.671875 -14.152344 L -6.246094 -12.503906 Z M 1.25 -0.800781 "/></g></g></g><g fill="#fdf1e4" fill-opacity="1"><g transform="translate(147.62965, 118.743905)"><g><path d="M 5.15625 -2.320312 C 7.488281 -3.460938 8.789062 -5.804688 7.648438 -8.132812 C 5.386719 -12.753906 0.203125 -8.792969 -0.855469 -10.957031 C -1.203125 -11.664062 -0.824219 -12.261719 -0.160156 -12.589844 C 0.546875 -12.9375 1.449219 -12.886719 2.410156 -12.507812 L 3.382812 -15.152344 C 1.949219 -15.761719 0.207031 -15.789062 -1.332031 -15.03125 C -3.304688 -14.066406 -4.742188 -11.890625 -3.519531 -9.394531 C -1.441406 -5.148438 3.820312 -8.992188 4.894531 -6.808594 C 5.230469 -6.121094 4.871094 -5.378906 3.914062 -4.910156 C 2.769531 -4.351562 1.558594 -4.554688 0.621094 -5.308594 L -0.953125 -2.785156 C 0.625 -1.621094 2.972656 -1.25 5.15625 -2.320312 Z M 5.15625 -2.320312 "/></g></g></g><g fill="#fdf1e4" fill-opacity="1"><g transform="translate(157.743005, 113.73408)"><g><path d="M 9.425781 -2.929688 L 12.542969 -3.898438 L 3.640625 -15.6875 L 0.367188 -14.667969 L -0.289062 0.0898438 L 2.832031 -0.878906 L 2.875 -3.632812 L 7.828125 -5.171875 Z M 2.890625 -6.308594 L 2.960938 -12.101562 L 6.296875 -7.367188 Z M 2.890625 -6.308594 "/></g></g></g><g fill="#fdf1e4" fill-opacity="1"><g transform="translate(170.340333, 109.952839)"><g><path d="M 8.03125 -12.574219 L 7.625 -15.230469 L -0.640625 -13.964844 L 1.464844 -0.226562 L 4.488281 -0.6875 L 3.636719 -6.230469 L 8.125 -6.917969 L 7.71875 -9.574219 L 3.230469 -8.886719 L 2.789062 -11.769531 Z M 8.03125 -12.574219 "/></g></g></g><g fill="#fdf1e4" fill-opacity="1"><g transform="translate(180.577374, 108.24431)"><g><path d="M 7.066406 0.21875 C 10.355469 0.234375 12.867188 -1.769531 12.878906 -4.386719 L 12.921875 -13.839844 L 9.863281 -13.851562 L 9.824219 -4.980469 C 9.816406 -3.566406 8.628906 -2.484375 7.078125 -2.492188 C 5.546875 -2.5 4.371094 -3.59375 4.378906 -5.007812 L 4.421875 -13.878906 L 1.363281 -13.894531 L 1.316406 -4.441406 C 1.304688 -1.824219 3.820312 0.203125 7.066406 0.21875 Z M 7.066406 0.21875 "/></g></g></g><g fill="#fdf1e4" fill-opacity="1"><g transform="translate(194.945174, 108.404686)"><g><path d="M 9.484375 -4.132812 C 11.1875 -4.324219 12.59375 -5.628906 12.925781 -7.496094 C 13.339844 -9.824219 11.9375 -12 9.585938 -12.417969 L 3.769531 -13.449219 L 1.347656 0.238281 L 4.355469 0.773438 L 5.292969 -4.519531 L 6.503906 -4.304688 L 8.941406 1.582031 L 12.316406 2.179688 Z M 8.082031 -6.589844 L 5.734375 -7.007812 L 6.308594 -10.246094 L 8.65625 -9.828125 C 9.617188 -9.660156 10.203125 -8.851562 10.035156 -7.914062 C 9.867188 -6.957031 9.042969 -6.421875 8.082031 -6.589844 Z M 8.082031 -6.589844 "/></g></g></g><g fill="#fdf1e4" fill-opacity="1"><g transform="translate(207.563039, 110.875035)"><g/></g></g><g fill="#fdf1e4" fill-opacity="1"><g transform="translate(213.400717, 112.464845)"><g><path d="M 10.191406 -1.765625 C 11.894531 -1.546875 13.570312 -2.480469 14.335938 -4.21875 C 15.285156 -6.382812 14.441406 -8.832031 12.257812 -9.792969 L 6.851562 -12.171875 L 1.25 0.550781 L 4.050781 1.78125 L 6.214844 -3.136719 L 7.339844 -2.640625 L 8.3125 3.65625 L 11.449219 5.039062 Z M 9.414062 -4.488281 L 7.230469 -5.449219 L 8.558594 -8.457031 L 10.742188 -7.496094 C 11.632812 -7.105469 12.007812 -6.179688 11.625 -5.3125 C 11.234375 -4.421875 10.304688 -4.09375 9.414062 -4.488281 Z M 9.414062 -4.488281 "/></g></g></g><g fill="#fdf1e4" fill-opacity="1"><g transform="translate(224.980834, 117.566519)"><g><path d="M 8.269531 5.386719 L 11.003906 7.167969 L 14.398438 -7.207031 L 11.527344 -9.078125 L -0.253906 -0.164062 L 2.484375 1.617188 L 4.632812 -0.105469 L 8.980469 2.726562 Z M 6.703125 -1.800781 L 11.207031 -5.445312 L 9.691406 0.148438 Z M 6.703125 -1.800781 "/></g></g></g><g fill="#fdf1e4" fill-opacity="1"><g transform="translate(235.937092, 124.634552)"><g><path d="M 16.855469 -3.257812 L 13.039062 0.820312 L 8.914062 -3.046875 L 12.730469 -7.121094 L 10.5 -9.210938 L 0.996094 0.933594 L 3.230469 3.023438 L 7.0625 -1.066406 L 11.1875 2.796875 L 7.355469 6.886719 L 9.570312 8.964844 L 19.070312 -1.179688 Z M 16.855469 -3.257812 "/></g></g></g><g fill="#fdf1e4" fill-opacity="1"><g transform="translate(246.697436, 134.465665)"><g><path d="M 19.121094 3.0625 L 8.707031 4.957031 L 14.066406 -4.144531 L 12.167969 -6.859375 L 0.785156 1.121094 L 2.539062 3.625 L 9.332031 -1.136719 L 4.695312 6.695312 L 5.703125 8.136719 L 14.644531 6.484375 L 7.871094 11.230469 L 9.628906 13.734375 L 21.007812 5.753906 Z M 19.121094 3.0625 "/></g></g></g><g fill="#fdf1e4" fill-opacity="1"><g transform="translate(256.928084, 149.533256)"><g><path d="M 3.972656 9.03125 L 5.289062 12.023438 L 15.996094 1.84375 L 14.617188 -1.292969 L -0.121094 -0.277344 L 1.195312 2.714844 L 3.933594 2.445312 L 6.023438 7.195312 Z M 6.59375 2.160156 L 12.359375 1.574219 L 8.03125 5.425781 Z M 6.59375 2.160156 "/></g></g></g><g fill="#fdf1e4" fill-opacity="1"><g transform="translate(262.276042, 161.392568)"><g><path d="M 16.132812 7.855469 L 7.183594 9.96875 L 14.566406 1.207031 L 13.84375 -1.859375 L 0.3125 1.332031 L 1.015625 4.304688 L 9.988281 2.1875 L 2.578125 10.933594 L 3.304688 14 L 16.832031 10.808594 Z M 16.132812 7.855469 "/></g></g></g><g clip-path="url(#id3)"><path fill="#fdf1e4" d="M 187.304688 253.703125 C 150.734375 253.703125 120.953125 223.917969 120.953125 187.304688 C 120.953125 150.691406 150.734375 120.953125 187.304688 120.953125 C 223.871094 120.953125 253.65625 150.734375 253.65625 187.304688 C 253.703125 223.917969 223.917969 253.703125 187.304688 253.703125 Z M 187.304688 122.074219 C 151.320312 122.074219 122.074219 151.320312 122.074219 187.304688 C 122.074219 223.289062 151.363281 252.578125 187.304688 252.578125 C 223.242188 252.578125 252.578125 223.289062 252.578125 187.304688 C 252.578125 151.320312 223.289062 122.074219 187.304688 122.074219 Z M 187.304688 122.074219 " fill-opacity="1" fill-rule="nonzero"/></g><g clip-path="url(#id4)"><path fill="#fdf1e4" d="M 187.304688 253.703125 C 150.734375 253.703125 120.953125 223.917969 120.953125 187.304688 C 120.953125 150.691406 150.734375 120.953125 187.304688 120.953125 C 223.871094 120.953125 253.65625 150.734375 253.65625 187.304688 C 253.703125 223.917969 223.917969 253.703125 187.304688 253.703125 Z M 187.304688 122.074219 C 151.320312 122.074219 122.074219 151.320312 122.074219 187.304688 C 122.074219 223.289062 151.363281 252.578125 187.304688 252.578125 C 223.242188 252.578125 252.578125 223.289062 252.578125 187.304688 C 252.578125 151.320312 223.289062 122.074219 187.304688 122.074219 Z M 187.304688 122.074219 " fill-opacity="1" fill-rule="nonzero"/></g><g fill="#fdf1e4" fill-opacity="1"><g transform="translate(162.081894, 200.624987)"><g><path d="M 3.226562 0 L 11.449219 0 L 11.449219 -32.25 L 3.226562 -32.25 Z M 3.226562 0 "/></g></g></g><g fill="#fdf1e4" fill-opacity="1"><g transform="translate(183.580526, 200.624987)"><g><path d="M 20.90625 -12.792969 C 24.617188 -14.082031 27.195312 -17.683594 27.195312 -22.089844 C 27.195312 -27.679688 23.058594 -32.25 17.304688 -32.25 L 2.957031 -32.25 L 2.957031 0 L 11.179688 0 L 11.179688 -11.824219 L 13.058594 -11.824219 L 20.585938 0 L 29.828125 0 Z M 15.960938 -18.433594 L 11.179688 -18.433594 L 11.179688 -25.101562 L 15.960938 -25.101562 C 17.898438 -25.101562 19.296875 -23.703125 19.296875 -21.765625 C 19.296875 -19.832031 17.898438 -18.433594 15.960938 -18.433594 Z M 15.960938 -18.433594 "/></g></g></g></svg>