<svg xmlns="http://www.w3.org/2000/svg" xmlns:xlink="http://www.w3.org/1999/xlink" width="500" zoomAndPan="magnify" viewBox="0 0 375 374.999991" height="500" preserveAspectRatio="xMidYMid meet" version="1.0"><defs><g/><clipPath id="id1"><path d="M 85.519531 200.175781 L 289.519531 200.175781 L 289.519531 290.761719 L 85.519531 290.761719 Z M 85.519531 200.175781 " clip-rule="nonzero"/></clipPath><clipPath id="id2"><path d="M 85.519531 84.277344 L 289.519531 84.277344 L 289.519531 175.027344 L 85.519531 175.027344 Z M 85.519531 84.277344 " clip-rule="nonzero"/></clipPath><clipPath id="id3"><path d="M 120.953125 200.5 L 253.703125 200.5 L 253.703125 253.703125 L 120.953125 253.703125 Z M 120.953125 200.5 " clip-rule="nonzero"/></clipPath><clipPath id="id4"><path d="M 120.953125 120.953125 L 253.703125 120.953125 L 253.703125 174.953125 L 120.953125 174.953125 Z M 120.953125 120.953125 " clip-rule="nonzero"/></clipPath></defs><g clip-path="url(#id1)"><path fill="#1a1a1a" d="M 187.484375 290.761719 C 131.289062 290.761719 85.519531 244.992188 85.519531 188.726562 C 85.519531 132.464844 131.289062 86.761719 187.484375 86.761719 C 243.679688 86.761719 289.449219 132.53125 289.449219 188.726562 C 289.519531 244.992188 243.75 290.761719 187.484375 290.761719 Z M 187.484375 88.488281 C 132.1875 88.488281 87.246094 133.429688 87.246094 188.726562 C 87.246094 244.023438 132.257812 289.035156 187.484375 289.035156 C 242.714844 289.035156 287.792969 244.023438 287.792969 188.726562 C 287.792969 133.429688 242.78125 88.488281 187.484375 88.488281 Z M 187.484375 88.488281 " fill-opacity="1" fill-rule="nonzero"/></g><path stroke-linecap="round" transform="matrix(1.505658, 0, 0, 1.5, 75.431551, 187.499988)" fill="none" stroke-linejoin="miter" d="M 0.499478 0.00000820833 L 38.852205 0.00000820833 " stroke="#1a1a1a" stroke-width="1" stroke-opacity="1" stroke-miterlimit="4"/><path stroke-linecap="round" transform="matrix(1.505658, 0, 0, 1.5, 240.539022, 187.499988)" fill="none" stroke-linejoin="miter" d="M 0.500743 0.00000820833 L 38.85347 0.00000820833 " stroke="#1a1a1a" stroke-width="1" stroke-opacity="1" stroke-miterlimit="4"/><g clip-path="url(#id2)"><path fill="#1a1a1a" d="M 187.484375 288.277344 C 131.289062 288.277344 85.519531 242.503906 85.519531 186.242188 C 85.519531 129.976562 131.289062 84.277344 187.484375 84.277344 C 243.679688 84.277344 289.449219 130.046875 289.449219 186.242188 C 289.519531 242.503906 243.75 288.277344 187.484375 288.277344 Z M 187.484375 86 C 132.1875 86 87.246094 130.945312 87.246094 186.242188 C 87.246094 241.539062 132.257812 286.550781 187.484375 286.550781 C 242.714844 286.550781 287.792969 241.539062 287.792969 186.242188 C 287.792969 130.945312 242.78125 86 187.484375 86 Z M 187.484375 86 " fill-opacity="1" fill-rule="nonzero"/></g><g fill="#1a1a1a" fill-opacity="1"><g transform="translate(99.859246, 211.202985)"><g><path d="M 0.890625 2.65625 L 0.59375 1.78125 L 13.140625 -2.421875 L 15.453125 4.453125 L 14.640625 4.71875 L 12.625 -1.28125 L 7.3125 0.5 L 9.203125 6.15625 L 8.375 6.4375 L 6.484375 0.78125 Z M 0.890625 2.65625 "/></g></g></g><g fill="#1a1a1a" fill-opacity="1"><g transform="translate(103.507567, 222.054607)"><g><path d="M 17.046875 4.328125 L 9.40625 8.203125 C 8.050781 8.898438 6.789062 9.050781 5.625 8.65625 C 4.46875 8.257812 3.53125 7.359375 2.8125 5.953125 C 2.125 4.585938 1.96875 3.328125 2.34375 2.171875 C 2.71875 1.023438 3.59375 0.101562 4.96875 -0.59375 L 12.578125 -4.46875 L 13 -3.625 L 5.359375 0.25 C 4.234375 0.832031 3.515625 1.59375 3.203125 2.53125 C 2.890625 3.476562 3.03125 4.523438 3.625 5.671875 C 4.1875 6.796875 4.929688 7.507812 5.859375 7.8125 C 6.796875 8.125 7.816406 8 8.921875 7.4375 L 16.640625 3.515625 Z M 17.046875 4.328125 "/></g></g></g><g fill="#1a1a1a" fill-opacity="1"><g transform="translate(110.787356, 235.701446)"><g><path d="M 1.09375 1.53125 L 11.875 -6.15625 L 12.40625 -5.40625 L 2.34375 1.765625 L 6 6.90625 L 5.28125 7.421875 Z M 1.09375 1.53125 "/></g></g></g><g fill="#1a1a1a" fill-opacity="1"><g transform="translate(117.561313, 244.988892)"><g><path d="M 1.265625 1.375 L 10.984375 -7.59375 L 11.609375 -6.90625 L 2.53125 1.46875 L 6.8125 6.09375 L 6.171875 6.6875 Z M 1.265625 1.375 "/></g></g></g><g fill="#1a1a1a" fill-opacity="1"><g transform="translate(125.455733, 253.380808)"><g><path d="M 9.21875 3.265625 C 8.507812 4.109375 7.632812 4.515625 6.59375 4.484375 C 5.5625 4.460938 4.53125 4.023438 3.5 3.171875 C 2.257812 2.128906 1.425781 1.191406 1 0.359375 L 1.59375 -0.34375 C 2.070312 0.582031 2.878906 1.519531 4.015625 2.46875 C 4.835938 3.164062 5.648438 3.523438 6.453125 3.546875 C 7.253906 3.578125 7.914062 3.28125 8.4375 2.65625 C 8.757812 2.269531 8.945312 1.882812 9 1.5 C 9.050781 1.113281 8.976562 0.660156 8.78125 0.140625 C 8.59375 -0.367188 8.242188 -1.039062 7.734375 -1.875 C 7.003906 -3.082031 6.613281 -4.0625 6.5625 -4.8125 C 6.519531 -5.5625 6.785156 -6.28125 7.359375 -6.96875 C 7.992188 -7.726562 8.804688 -8.097656 9.796875 -8.078125 C 10.796875 -8.054688 11.765625 -7.65625 12.703125 -6.875 C 13.648438 -6.082031 14.394531 -5.160156 14.9375 -4.109375 L 14.15625 -3.71875 C 13.601562 -4.757812 12.941406 -5.601562 12.171875 -6.25 C 11.421875 -6.875 10.679688 -7.195312 9.953125 -7.21875 C 9.222656 -7.25 8.609375 -6.960938 8.109375 -6.359375 C 7.785156 -5.984375 7.59375 -5.617188 7.53125 -5.265625 C 7.46875 -4.910156 7.507812 -4.507812 7.65625 -4.0625 C 7.800781 -3.613281 8.140625 -2.9375 8.671875 -2.03125 C 9.242188 -1.101562 9.617188 -0.347656 9.796875 0.234375 C 9.984375 0.828125 10.03125 1.363281 9.9375 1.84375 C 9.84375 2.320312 9.601562 2.796875 9.21875 3.265625 Z M 9.21875 3.265625 "/></g></g></g><g fill="#1a1a1a" fill-opacity="1"><g transform="translate(134.845487, 261.037249)"><g><path d="M 4.5 2.859375 L 3.703125 2.359375 L 10.328125 -8.078125 L 6.703125 -10.390625 L 7.171875 -11.125 L 15.21875 -6.015625 L 14.75 -5.28125 L 11.125 -7.578125 Z M 4.5 2.859375 "/></g></g></g><g fill="#1a1a1a" fill-opacity="1"><g transform="translate(144.836134, 267.267502)"><g><path d="M 9.4375 -0.828125 L 4.546875 -3.0625 L 0.921875 0.421875 L 0 0 L 10.359375 -9.859375 L 10.890625 -9.625 L 10.125 4.625 L 9.171875 4.1875 Z M 5.1875 -3.671875 L 9.5 -1.703125 L 9.84375 -6.796875 C 9.863281 -7.191406 9.921875 -7.738281 10.015625 -8.4375 C 9.609375 -7.976562 9.226562 -7.570312 8.875 -7.21875 Z M 5.1875 -3.671875 "/></g></g></g><g fill="#1a1a1a" fill-opacity="1"><g transform="translate(156.954924, 272.648438)"><g><path d="M 10.71875 -10 C 9.125 -10.46875 7.722656 -10.320312 6.515625 -9.5625 C 5.304688 -8.800781 4.445312 -7.53125 3.9375 -5.75 C 3.40625 -3.9375 3.425781 -2.40625 4 -1.15625 C 4.582031 0.09375 5.671875 0.945312 7.265625 1.40625 C 8.335938 1.71875 9.359375 1.863281 10.328125 1.84375 L 10.109375 2.625 C 9.179688 2.6875 8.085938 2.535156 6.828125 2.171875 C 5.046875 1.660156 3.804688 0.679688 3.109375 -0.765625 C 2.421875 -2.222656 2.375 -3.988281 2.96875 -6.0625 C 3.34375 -7.351562 3.914062 -8.421875 4.6875 -9.265625 C 5.46875 -10.109375 6.390625 -10.664062 7.453125 -10.9375 C 8.523438 -11.207031 9.671875 -11.164062 10.890625 -10.8125 C 12.128906 -10.457031 13.171875 -9.90625 14.015625 -9.15625 L 13.4375 -8.453125 C 12.644531 -9.191406 11.738281 -9.707031 10.71875 -10 Z M 10.71875 -10 "/></g></g></g><g fill="#1a1a1a" fill-opacity="1"><g transform="translate(170.099462, 276.257167)"><g><path d="M 10.671875 1.453125 L 9.546875 1.3125 L 5.46875 -6.296875 L 3.5 -5 L 2.765625 0.375 L 1.859375 0.25 L 3.65625 -12.859375 L 4.5625 -12.734375 L 3.625 -5.921875 L 5.28125 -7.15625 L 11.15625 -11.828125 L 12.328125 -11.671875 L 6.1875 -6.859375 Z M 10.671875 1.453125 "/></g></g></g><g fill="#1a1a1a" fill-opacity="1"><g transform="translate(182.617571, 277.7134)"><g/></g></g><g fill="#1a1a1a" fill-opacity="1"><g transform="translate(189.377564, 278.049487)"><g><path d="M 11.28125 -7.765625 C 11.476562 -5.554688 11.046875 -3.832031 9.984375 -2.59375 C 8.921875 -1.363281 7.269531 -0.648438 5.03125 -0.453125 L 1.875 -0.171875 L 0.703125 -13.359375 L 4.265625 -13.671875 C 6.359375 -13.859375 8.003906 -13.445312 9.203125 -12.4375 C 10.398438 -11.4375 11.09375 -9.878906 11.28125 -7.765625 Z M 10.265625 -7.640625 C 10.097656 -9.535156 9.492188 -10.914062 8.453125 -11.78125 C 7.410156 -12.65625 5.960938 -13.007812 4.109375 -12.84375 L 1.671875 -12.625 L 2.703125 -1.0625 L 4.890625 -1.25 C 8.816406 -1.601562 10.609375 -3.734375 10.265625 -7.640625 Z M 10.265625 -7.640625 "/></g></g></g><g fill="#1a1a1a" fill-opacity="1"><g transform="translate(204.53482, 276.424717)"><g><path d="M 8.84375 -2.171875 L 1.828125 -0.453125 L -1.328125 -13.3125 L 5.6875 -15.03125 L 5.890625 -14.1875 L -0.234375 -12.6875 L 0.96875 -7.828125 L 6.75 -9.234375 L 6.9375 -8.421875 L 1.15625 -7.015625 L 2.515625 -1.484375 L 8.640625 -2.984375 Z M 8.84375 -2.171875 "/></g></g></g><g fill="#1a1a1a" fill-opacity="1"><g transform="translate(216.442179, 273.376546)"><g><path d="M 4.125 -15.875 L 5.0625 -16.234375 L 5.34375 -2.125 L 4.59375 -1.828125 L -4.875 -12.296875 L -3.953125 -12.65625 L 2.453125 -5.515625 C 3.421875 -4.441406 4.113281 -3.625 4.53125 -3.0625 C 4.46875 -3.519531 4.429688 -4.257812 4.421875 -5.28125 Z M 4.125 -15.875 "/></g></g></g><g fill="#1a1a1a" fill-opacity="1"><g transform="translate(228.243997, 268.525856)"><g><path d="M 7.921875 -4.484375 L 1.625 -0.921875 L -4.890625 -12.4375 L 1.40625 -16 L 1.828125 -15.25 L -3.65625 -12.140625 L -1.1875 -7.796875 L 3.984375 -10.734375 L 4.390625 -10 L -0.78125 -7.0625 L 2.015625 -2.109375 L 7.5 -5.21875 Z M 7.921875 -4.484375 "/></g></g></g><g fill="#1a1a1a" fill-opacity="1"><g transform="translate(238.819317, 262.365185)"><g><path d="M 1.5 -1.125 L -6.453125 -11.703125 L -5.71875 -12.265625 L 1.703125 -2.390625 L 6.75 -6.1875 L 7.28125 -5.484375 Z M 1.5 -1.125 "/></g></g></g><g fill="#1a1a1a" fill-opacity="1"><g transform="translate(248.179088, 255.335924)"><g><path d="M 4.3125 -13.9375 C 5.8125 -12.476562 6.632812 -10.941406 6.78125 -9.328125 C 6.9375 -7.722656 6.367188 -6.265625 5.078125 -4.953125 C 3.796875 -3.628906 2.347656 -3.019531 0.734375 -3.125 C -0.878906 -3.226562 -2.441406 -4.015625 -3.953125 -5.484375 C -5.460938 -6.953125 -6.28125 -8.484375 -6.40625 -10.078125 C -6.53125 -11.679688 -5.953125 -13.140625 -4.671875 -14.453125 C -3.390625 -15.773438 -1.945312 -16.382812 -0.34375 -16.28125 C 1.25 -16.1875 2.800781 -15.40625 4.3125 -13.9375 Z M -3.234375 -6.1875 C -1.878906 -4.875 -0.539062 -4.15625 0.78125 -4.03125 C 2.113281 -3.914062 3.332031 -4.425781 4.4375 -5.5625 C 5.550781 -6.695312 6.03125 -7.921875 5.875 -9.234375 C 5.726562 -10.554688 4.972656 -11.882812 3.609375 -13.21875 C 2.242188 -14.539062 0.90625 -15.253906 -0.40625 -15.359375 C -1.71875 -15.472656 -2.925781 -14.960938 -4.03125 -13.828125 C -5.132812 -12.703125 -5.613281 -11.476562 -5.46875 -10.15625 C -5.332031 -8.832031 -4.585938 -7.507812 -3.234375 -6.1875 Z M -3.234375 -6.1875 "/></g></g></g><g fill="#1a1a1a" fill-opacity="1"><g transform="translate(259.385747, 243.372629)"><g><path d="M -2.078125 -13.453125 C -1.035156 -12.722656 -0.484375 -11.804688 -0.421875 -10.703125 C -0.367188 -9.609375 -0.796875 -8.410156 -1.703125 -7.109375 L -2.875 -5.4375 L 1.609375 -2.296875 L 1.078125 -1.53125 L -9.765625 -9.125 L -7.90625 -11.78125 C -6.101562 -14.351562 -4.160156 -14.910156 -2.078125 -13.453125 Z M -3.53125 -5.890625 L -2.5 -7.375 C -1.644531 -8.59375 -1.222656 -9.613281 -1.234375 -10.4375 C -1.253906 -11.269531 -1.710938 -12.003906 -2.609375 -12.640625 C -3.453125 -13.222656 -4.253906 -13.394531 -5.015625 -13.15625 C -5.785156 -12.925781 -6.546875 -12.269531 -7.296875 -11.1875 L -8.546875 -9.40625 Z M -3.53125 -5.890625 "/></g></g></g><g fill="#1a1a1a" fill-opacity="1"><g transform="translate(266.654998, 232.704722)"><g><path d="M 4.140625 -8.109375 L 0.859375 -1.671875 L -10.921875 -7.703125 L -7.640625 -14.140625 L -6.875 -13.734375 L -9.75 -8.109375 L -5.296875 -5.84375 L -2.578125 -11.15625 L -1.828125 -10.765625 L -4.546875 -5.453125 L 0.515625 -2.875 L 3.390625 -8.5 Z M 4.140625 -8.109375 "/></g></g></g><g fill="#1a1a1a" fill-opacity="1"><g transform="translate(272.150783, 221.69414)"><g><path d="M -4.53125 -4.53125 L 0.921875 -2.640625 L 0.609375 -1.765625 L -11.890625 -6.09375 L -10.859375 -9.0625 C -10.316406 -10.625 -9.628906 -11.671875 -8.796875 -12.203125 C -7.972656 -12.742188 -6.984375 -12.816406 -5.828125 -12.421875 C -4.992188 -12.128906 -4.363281 -11.664062 -3.9375 -11.03125 C -3.507812 -10.394531 -3.332031 -9.578125 -3.40625 -8.578125 L 3.46875 -10.015625 L 3.109375 -8.96875 L -3.46875 -7.640625 Z M -5.28125 -4.78125 L -4.453125 -7.171875 C -4.085938 -8.222656 -4.039062 -9.125 -4.3125 -9.875 C -4.582031 -10.625 -5.175781 -11.15625 -6.09375 -11.46875 C -7.039062 -11.800781 -7.828125 -11.753906 -8.453125 -11.328125 C -9.085938 -10.910156 -9.628906 -10.054688 -10.078125 -8.765625 L -10.78125 -6.703125 Z M -5.28125 -4.78125 "/></g></g></g><g fill="#1a1a1a" fill-opacity="1"><g transform="translate(112.16976, 166.561202)"><g><path d="M 2.78125 -7.15625 L -10.390625 -7.015625 L -10.421875 -6.9375 C -9.703125 -6.71875 -8.976562 -6.460938 -8.25 -6.171875 L 1 -2.578125 L 0.6875 -1.75 L -11.640625 -6.546875 L -11.125 -7.875 L 1.40625 -8.015625 L 1.4375 -8.078125 L -7.703125 -16.65625 L -7.203125 -17.953125 L 5.125 -13.15625 L 4.78125 -12.296875 L -4.5625 -15.9375 C -5.21875 -16.1875 -5.878906 -16.476562 -6.546875 -16.8125 L -6.578125 -16.75 L 3 -7.71875 Z M 2.78125 -7.15625 "/></g></g></g><g fill="#1a1a1a" fill-opacity="1"><g transform="translate(118.031565, 151.8342)"><g><path d="M 0.578125 -13.6875 C 2.460938 -12.507812 3.578125 -11.125 3.921875 -9.53125 C 4.273438 -7.945312 3.859375 -6.195312 2.671875 -4.28125 L 0.984375 -1.59375 L -10.25 -8.59375 L -8.359375 -11.625 C -7.242188 -13.414062 -5.925781 -14.488281 -4.40625 -14.84375 C -2.882812 -15.195312 -1.222656 -14.8125 0.578125 -13.6875 Z M 0.078125 -12.8125 C -1.535156 -13.8125 -3 -14.15625 -4.3125 -13.84375 C -5.632812 -13.53125 -6.789062 -12.582031 -7.78125 -11 L -9.0625 -8.9375 L 0.796875 -2.796875 L 1.953125 -4.65625 C 4.035156 -8.007812 3.410156 -10.726562 0.078125 -12.8125 Z M 0.078125 -12.8125 "/></g></g></g><g fill="#1a1a1a" fill-opacity="1"><g transform="translate(125.318462, 140.623604)"><g/></g></g><g fill="#1a1a1a" fill-opacity="1"><g transform="translate(128.747515, 136.390907)"><g><path d="M 1.265625 -1.375 L -8.453125 -10.359375 L -7.828125 -11.046875 L 1.890625 -2.0625 Z M 1.265625 -1.375 "/></g></g></g><g fill="#1a1a1a" fill-opacity="1"><g transform="translate(132.141, 132.564493)"><g><path d="M 3.984375 -3.546875 L 3.28125 -2.921875 L -4.9375 -12.15625 L -8.15625 -9.296875 L -8.734375 -9.953125 L -1.609375 -16.28125 L -1.03125 -15.625 L -4.234375 -12.78125 Z M 3.984375 -3.546875 "/></g></g></g><g fill="#1a1a1a" fill-opacity="1"><g transform="translate(139.585307, 125.96553)"><g><path d="M 4.40625 -3 L 3.625 -2.46875 L -3.34375 -12.6875 L -6.890625 -10.265625 L -7.375 -10.984375 L 0.5 -16.359375 L 0.984375 -15.640625 L -2.5625 -13.21875 Z M 4.40625 -3 "/></g></g></g><g fill="#1a1a1a" fill-opacity="1"><g transform="translate(148.044999, 120.372923)"><g><path d="M 1.640625 -0.90625 L -4.703125 -12.515625 L -3.890625 -12.953125 L 2.453125 -1.34375 Z M 1.640625 -0.90625 "/></g></g></g><g fill="#1a1a1a" fill-opacity="1"><g transform="translate(152.464158, 117.826753)"><g><path d="M 7.125 -6.703125 C 7.550781 -5.679688 7.515625 -4.71875 7.015625 -3.8125 C 6.523438 -2.90625 5.660156 -2.1875 4.421875 -1.65625 C 2.929688 -1.03125 1.71875 -0.71875 0.78125 -0.71875 L 0.421875 -1.578125 C 1.460938 -1.578125 2.664062 -1.863281 4.03125 -2.4375 C 5.019531 -2.851562 5.710938 -3.410156 6.109375 -4.109375 C 6.503906 -4.816406 6.546875 -5.546875 6.234375 -6.296875 C 6.035156 -6.753906 5.773438 -7.09375 5.453125 -7.3125 C 5.140625 -7.53125 4.707031 -7.671875 4.15625 -7.734375 C 3.613281 -7.796875 2.851562 -7.796875 1.875 -7.734375 C 0.457031 -7.640625 -0.59375 -7.738281 -1.28125 -8.03125 C -1.96875 -8.332031 -2.484375 -8.894531 -2.828125 -9.71875 C -3.210938 -10.632812 -3.171875 -11.53125 -2.703125 -12.40625 C -2.234375 -13.28125 -1.4375 -13.957031 -0.3125 -14.4375 C 0.832031 -14.914062 2.003906 -15.15625 3.203125 -15.15625 L 3.171875 -14.28125 C 1.992188 -14.28125 0.941406 -14.085938 0.015625 -13.703125 C -0.890625 -13.316406 -1.519531 -12.800781 -1.875 -12.15625 C -2.226562 -11.507812 -2.253906 -10.828125 -1.953125 -10.109375 C -1.753906 -9.660156 -1.507812 -9.328125 -1.21875 -9.109375 C -0.9375 -8.890625 -0.5625 -8.738281 -0.09375 -8.65625 C 0.363281 -8.582031 1.117188 -8.578125 2.171875 -8.640625 C 3.253906 -8.722656 4.097656 -8.707031 4.703125 -8.59375 C 5.304688 -8.488281 5.800781 -8.285156 6.1875 -7.984375 C 6.582031 -7.679688 6.894531 -7.253906 7.125 -6.703125 Z M 7.125 -6.703125 "/></g></g></g><g fill="#1a1a1a" fill-opacity="1"><g transform="translate(161.917148, 113.812579)"><g><path d="M 6.765625 -6.640625 L 1.578125 -5.25 L 0.984375 -0.265625 L 0 0 L 1.734375 -14.203125 L 2.28125 -14.34375 L 10.75 -2.859375 L 9.734375 -2.59375 Z M 1.671875 -6.140625 L 6.25 -7.359375 L 3.296875 -11.5 C 3.046875 -11.820312 2.734375 -12.28125 2.359375 -12.875 C 2.347656 -12.257812 2.3125 -11.703125 2.25 -11.203125 Z M 1.671875 -6.140625 "/></g></g></g><g fill="#1a1a1a" fill-opacity="1"><g transform="translate(172.871648, 110.973225)"><g><path d="M 2.78125 -0.34375 L 1.859375 -0.234375 L 0.203125 -13.359375 L 7.390625 -14.265625 L 7.5 -13.421875 L 1.234375 -12.625 L 1.9375 -7.0625 L 7.859375 -7.8125 L 7.96875 -6.953125 L 2.046875 -6.203125 Z M 2.78125 -0.34375 "/></g></g></g><g fill="#1a1a1a" fill-opacity="1"><g transform="translate(182.207622, 109.651037)"><g><path d="M 11.875 -12.984375 L 11.6875 -4.421875 C 11.65625 -2.898438 11.191406 -1.71875 10.296875 -0.875 C 9.398438 -0.0390625 8.164062 0.359375 6.59375 0.328125 C 5.0625 0.296875 3.875 -0.15625 3.03125 -1.03125 C 2.1875 -1.914062 1.78125 -3.128906 1.8125 -4.671875 L 2 -13.203125 L 2.9375 -13.171875 L 2.75 -4.609375 C 2.726562 -3.335938 3.0625 -2.335938 3.75 -1.609375 C 4.4375 -0.890625 5.425781 -0.519531 6.71875 -0.5 C 7.976562 -0.46875 8.960938 -0.789062 9.671875 -1.46875 C 10.378906 -2.144531 10.742188 -3.101562 10.765625 -4.34375 L 10.953125 -13 Z M 11.875 -12.984375 "/></g></g></g><g fill="#1a1a1a" fill-opacity="1"><g transform="translate(195.573326, 110.033136)"><g><path d="M 3.78125 -5.171875 L 2.75 0.5 L 1.84375 0.328125 L 4.203125 -12.6875 L 7.296875 -12.125 C 8.910156 -11.832031 10.046875 -11.316406 10.703125 -10.578125 C 11.367188 -9.835938 11.59375 -8.867188 11.375 -7.671875 C 11.21875 -6.804688 10.851562 -6.113281 10.28125 -5.59375 C 9.71875 -5.070312 8.945312 -4.769531 7.96875 -4.6875 L 10.421875 1.890625 L 9.328125 1.6875 L 7.015625 -4.59375 Z M 3.921875 -5.953125 L 6.421875 -5.5 C 7.515625 -5.300781 8.40625 -5.390625 9.09375 -5.765625 C 9.789062 -6.148438 10.222656 -6.820312 10.390625 -7.78125 C 10.578125 -8.769531 10.410156 -9.539062 9.890625 -10.09375 C 9.378906 -10.65625 8.453125 -11.054688 7.109375 -11.296875 L 4.953125 -11.6875 Z M 3.921875 -5.953125 "/></g></g></g><g fill="#1a1a1a" fill-opacity="1"><g transform="translate(206.740939, 112.24331)"><g/></g></g><g fill="#1a1a1a" fill-opacity="1"><g transform="translate(211.774043, 113.571962)"><g><path d="M 4.78125 -4.25 L 2.578125 1.078125 L 1.734375 0.71875 L 6.796875 -11.5 L 9.703125 -10.296875 C 11.210938 -9.671875 12.210938 -8.925781 12.703125 -8.0625 C 13.203125 -7.195312 13.21875 -6.203125 12.75 -5.078125 C 12.40625 -4.265625 11.898438 -3.664062 11.234375 -3.28125 C 10.578125 -2.894531 9.757812 -2.765625 8.78125 -2.890625 L 9.78125 4.0625 L 8.765625 3.640625 L 7.8125 -3 Z M 5.09375 -4.984375 L 7.4375 -4.015625 C 8.46875 -3.585938 9.359375 -3.484375 10.109375 -3.703125 C 10.867188 -3.929688 11.4375 -4.5 11.8125 -5.40625 C 12.195312 -6.320312 12.195312 -7.109375 11.8125 -7.765625 C 11.4375 -8.421875 10.617188 -9.007812 9.359375 -9.53125 L 7.328125 -10.359375 Z M 5.09375 -4.984375 "/></g></g></g><g fill="#1a1a1a" fill-opacity="1"><g transform="translate(222.067721, 117.847829)"><g><path d="M 9.484375 0.203125 L 4.859375 -2.546875 L 0.875 0.515625 L 0 0 L 11.375 -8.671875 L 11.875 -8.375 L 9.5625 5.703125 L 8.65625 5.15625 Z M 5.5625 -3.078125 L 9.625 -0.65625 L 10.53125 -5.671875 C 10.59375 -6.066406 10.707031 -6.609375 10.875 -7.296875 C 10.425781 -6.878906 10 -6.515625 9.59375 -6.203125 Z M 5.5625 -3.078125 "/></g></g></g><g fill="#1a1a1a" fill-opacity="1"><g transform="translate(231.708675, 123.495264)"><g><path d="M 8.796875 7.34375 L 8.078125 6.734375 L 12.25 1.75 L 6.3125 -3.1875 L 2.140625 1.796875 L 1.4375 1.203125 L 9.921875 -8.953125 L 10.625 -8.359375 L 6.859375 -3.859375 L 12.796875 1.078125 L 16.5625 -3.421875 L 17.28125 -2.8125 Z M 8.796875 7.34375 "/></g></g></g><g fill="#1a1a1a" fill-opacity="1"><g transform="translate(241.932348, 131.853909)"><g><path d="M 4.875 5.9375 L 11.1875 -5.625 L 11.140625 -5.6875 C 10.585938 -5.164062 10.015625 -4.65625 9.421875 -4.15625 L 1.75 2.140625 L 1.1875 1.453125 L 11.40625 -6.953125 L 12.3125 -5.859375 L 6.296875 5.15625 L 6.34375 5.203125 L 18.3125 1.4375 L 19.1875 2.5 L 8.96875 10.90625 L 8.375 10.1875 L 16.125 3.8125 C 16.664062 3.375 17.242188 2.941406 17.859375 2.515625 L 17.828125 2.46875 L 5.265625 6.390625 Z M 4.875 5.9375 "/></g></g></g><g fill="#1a1a1a" fill-opacity="1"><g transform="translate(251.878096, 144.283017)"><g><path d="M 8.125 4.890625 L 5.46875 0.203125 L 0.5 0.890625 L 0 0 L 14.1875 -1.890625 L 14.46875 -1.390625 L 5.46875 9.6875 L 4.953125 8.78125 Z M 6.375 0.09375 L 8.703125 4.203125 L 11.953125 0.296875 C 12.203125 -0.0234375 12.566406 -0.4375 13.046875 -0.9375 C 12.453125 -0.800781 11.90625 -0.703125 11.40625 -0.640625 Z M 6.375 0.09375 "/></g></g></g><g fill="#1a1a1a" fill-opacity="1"><g transform="translate(257.447477, 153.966597)"><g><path d="M 4 10.765625 L 3.671875 9.90625 L 11.96875 -1.546875 L 11.9375 -1.609375 C 10.644531 -1.046875 9.671875 -0.640625 9.015625 -0.390625 L 0.96875 2.59375 L 0.65625 1.75 L 13.0625 -2.859375 L 13.375 -1.984375 L 5.109375 9.4375 L 5.125 9.484375 C 6.113281 9.054688 7.070312 8.675781 8 8.34375 L 16.09375 5.328125 L 16.40625 6.15625 Z M 4 10.765625 "/></g></g></g><g clip-path="url(#id3)"><path fill="#1a1a1a" d="M 187.304688 253.703125 C 150.734375 253.703125 120.953125 223.917969 120.953125 187.304688 C 120.953125 150.691406 150.734375 120.953125 187.304688 120.953125 C 223.871094 120.953125 253.65625 150.734375 253.65625 187.304688 C 253.703125 223.917969 223.917969 253.703125 187.304688 253.703125 Z M 187.304688 122.074219 C 151.320312 122.074219 122.074219 151.320312 122.074219 187.304688 C 122.074219 223.289062 151.363281 252.578125 187.304688 252.578125 C 223.242188 252.578125 252.578125 223.289062 252.578125 187.304688 C 252.578125 151.320312 223.289062 122.074219 187.304688 122.074219 Z M 187.304688 122.074219 " fill-opacity="1" fill-rule="nonzero"/></g><g clip-path="url(#id4)"><path fill="#1a1a1a" d="M 187.304688 253.703125 C 150.734375 253.703125 120.953125 223.917969 120.953125 187.304688 C 120.953125 150.691406 150.734375 120.953125 187.304688 120.953125 C 223.871094 120.953125 253.65625 150.734375 253.65625 187.304688 C 253.703125 223.917969 223.917969 253.703125 187.304688 253.703125 Z M 187.304688 122.074219 C 151.320312 122.074219 122.074219 151.320312 122.074219 187.304688 C 122.074219 223.289062 151.363281 252.578125 187.304688 252.578125 C 223.242188 252.578125 252.578125 223.289062 252.578125 187.304688 C 252.578125 151.320312 223.289062 122.074219 187.304688 122.074219 Z M 187.304688 122.074219 " fill-opacity="1" fill-rule="nonzero"/></g><g fill="#1a1a1a" fill-opacity="1"><g transform="translate(153.234238, 199.124987)"><g><path d="M 22.144531 -42.609375 C 20.984375 -43.339844 19.347656 -42.910156 17.285156 -41.277344 C 13.84375 -38.613281 9.460938 -32.980469 6.40625 -27.21875 C 4.257812 -23.21875 0.902344 -15.695312 2.578125 -10.578125 C 3.957031 -6.578125 7.78125 -5.675781 10.792969 -5.632812 C 10.792969 -5.632812 10.792969 -5.632812 10.835938 -5.632812 C 11.265625 -5.632812 11.652344 -6.019531 11.652344 -6.449219 C 11.652344 -6.921875 11.265625 -7.308594 10.835938 -7.308594 C 7.179688 -7.351562 4.988281 -8.597656 4.171875 -11.09375 C 1.632812 -18.703125 12.082031 -35.128906 18.273438 -39.988281 C 19.90625 -41.234375 20.898438 -41.449219 21.242188 -41.191406 C 21.457031 -41.0625 22.402344 -40.160156 21.113281 -34.699219 C 20.164062 -30.828125 16.683594 -15.78125 13.585938 -1.761719 C 11.824219 6.191406 10.492188 12.554688 9.589844 17.113281 C 9.03125 19.777344 8.683594 21.84375 8.46875 23.261719 C 8.125 25.410156 8.039062 26.269531 8.902344 26.53125 C 8.988281 26.574219 9.074219 26.574219 9.160156 26.574219 C 9.890625 26.574219 10.234375 25.667969 10.578125 24.679688 C 10.75 24.25 10.535156 23.777344 10.105469 23.605469 C 10.105469 23.605469 10.0625 23.605469 10.0625 23.605469 C 11.480469 14.316406 20.335938 -24.335938 22.703125 -34.3125 C 23.820312 -39 23.648438 -41.621094 22.144531 -42.609375 Z M 22.144531 -42.609375 "/></g></g></g><g fill="#1a1a1a" fill-opacity="1"><g transform="translate(182.171254, 199.124987)"><g><path d="M 43.339844 10.449219 C 42.996094 10.148438 42.480469 10.191406 42.179688 10.578125 C 40.933594 12.082031 39.730469 12.8125 38.527344 12.769531 C 35.601562 12.683594 32.378906 8.125 28.9375 3.355469 C 26.488281 -0.128906 23.777344 -3.957031 20.683594 -6.878906 C 23.003906 -7.652344 25.28125 -8.773438 27.476562 -10.277344 C 31.558594 -13.070312 35.214844 -17.070312 37.835938 -21.5 C 41.792969 -28.25 42.695312 -34.957031 40.203125 -39 C 38.871094 -41.191406 35.902344 -43.683594 29.367188 -43.210938 C 19.476562 -42.523438 7.996094 -36.03125 3.871094 -28.722656 C 1.761719 -25.066406 1.589844 -21.371094 3.269531 -17.972656 C 3.484375 -17.585938 3.957031 -17.414062 4.386719 -17.628906 C 4.773438 -17.800781 4.945312 -18.316406 4.730469 -18.746094 C 3.269531 -21.628906 3.484375 -24.722656 5.289062 -27.90625 C 9.160156 -34.65625 20.207031 -40.933594 29.496094 -41.578125 C 34.011719 -41.878906 37.191406 -40.71875 38.785156 -38.140625 C 40.976562 -34.613281 40.074219 -28.550781 36.417969 -22.316406 C 31.515625 -14.058594 24.9375 -9.804688 19.175781 -8.167969 C 18.488281 -8.726562 17.800781 -9.246094 17.070312 -9.675781 C 16.339844 -10.148438 15.609375 -10.535156 14.878906 -10.878906 C 15.308594 -12.511719 15.695312 -14.101562 16.039062 -15.609375 C 17.972656 -23.347656 19.734375 -30.65625 20.726562 -35.085938 C 20.8125 -35.515625 20.554688 -35.945312 20.078125 -36.074219 C 19.648438 -36.160156 19.21875 -35.859375 19.132812 -35.429688 C 18.144531 -31 16.339844 -23.734375 14.445312 -15.996094 C 14.058594 -14.445312 13.714844 -12.941406 13.328125 -11.523438 C 10.878906 -12.425781 8.859375 -12.425781 7.609375 -11.480469 C 6.835938 -10.835938 6.535156 -9.890625 6.835938 -8.945312 C 7.265625 -7.652344 8.816406 -6.234375 11.953125 -5.847656 C 5.03125 22.746094 5.160156 24.550781 6.492188 25.023438 C 6.621094 25.066406 6.75 25.066406 6.835938 25.066406 C 7.652344 25.066406 8.296875 23.949219 9.417969 21.5 C 9.589844 21.113281 9.417969 20.597656 8.988281 20.421875 C 8.554688 20.25 8.082031 20.421875 7.867188 20.855469 C 7.78125 21.070312 7.652344 21.328125 7.566406 21.542969 C 8.296875 16.597656 11.007812 5.03125 13.628906 -5.761719 C 15.351562 -5.71875 17.070312 -5.933594 18.832031 -6.320312 C 22.101562 -3.484375 24.980469 0.601562 27.605469 4.300781 C 31.429688 9.675781 34.699219 14.316406 38.484375 14.445312 C 38.527344 14.445312 38.570312 14.445312 38.613281 14.445312 C 40.332031 14.445312 41.921875 13.5 43.46875 11.609375 C 43.769531 11.265625 43.683594 10.75 43.339844 10.449219 Z M 8.425781 -9.460938 C 8.339844 -9.761719 8.382812 -9.976562 8.640625 -10.148438 C 8.988281 -10.449219 9.460938 -10.578125 10.019531 -10.578125 C 10.878906 -10.578125 11.910156 -10.277344 12.941406 -9.890625 C 12.726562 -9.074219 12.554688 -8.253906 12.339844 -7.480469 C 10.019531 -7.738281 8.683594 -8.640625 8.425781 -9.460938 Z M 14.058594 -7.394531 C 14.1875 -7.996094 14.316406 -8.597656 14.488281 -9.203125 C 15.136719 -8.902344 15.738281 -8.554688 16.210938 -8.253906 C 16.511719 -8.082031 16.8125 -7.910156 17.070312 -7.695312 C 16.039062 -7.523438 15.007812 -7.4375 14.058594 -7.394531 Z M 14.058594 -7.394531 "/></g></g></g></svg>