<svg width="40" height="35" viewBox="0 0 40 35" fill="none" xmlns="http://www.w3.org/2000/svg">
<path d="M33.715 23.9001C33.8837 23.8019 34.024 23.6605 34.1217 23.4902C34.2195 23.3195 34.2713 23.1257 34.2717 22.9283L34.2917 16.4193C34.2921 16.222 34.3438 16.0282 34.4417 15.8575C34.5398 15.6869 34.6807 15.5455 34.85 15.4475L38.3333 13.4179C38.5023 13.3201 38.6937 13.2689 38.8883 13.2694C39.0833 13.2699 39.2747 13.3223 39.4433 13.4213C39.612 13.5195 39.7522 13.6609 39.85 13.8312C39.9473 14.0021 39.9984 14.1959 39.9983 14.3931V26.2267C39.9982 26.4246 39.9465 26.6189 39.8485 26.7902C39.7504 26.9614 39.6095 27.1034 39.44 27.2019L26.285 34.8514C26.1171 34.9488 25.9269 35 25.7333 35C25.5398 35 25.3496 34.9488 25.1817 34.8514L14.8583 28.8755C14.6882 28.7773 14.5468 28.6352 14.4483 28.4639C14.35 28.2921 14.2982 28.0972 14.2983 27.8987V21.9312C14.2983 21.9245 14.305 21.9211 14.3117 21.9245C14.3183 21.9279 14.325 21.9245 14.325 21.916V21.9093C14.325 21.9042 14.3283 21.9009 14.3317 21.8975L22.835 16.9541C22.8417 16.9491 22.8383 16.9373 22.83 16.9373C22.8287 16.9373 22.8274 16.937 22.8263 16.9364C22.8251 16.9358 22.8241 16.9349 22.8233 16.9339C22.8226 16.933 22.8221 16.9319 22.8218 16.9307C22.8215 16.9295 22.8215 16.9283 22.8217 16.9271L22.8383 11.0778C22.8391 10.8797 22.7882 10.6849 22.6907 10.513C22.5933 10.3412 22.4528 10.1985 22.2833 10.0993C22.1143 10.0005 21.9226 9.9485 21.7275 9.9485C21.5324 9.9485 21.3407 10.0005 21.1717 10.0993L14.8533 13.7874C14.6847 13.8855 14.4937 13.9372 14.2992 13.9372C14.1047 13.9372 13.9136 13.8855 13.745 13.7874L7.405 10.0925C7.23615 9.99442 7.04481 9.94294 6.85013 9.94321C6.65545 9.94348 6.46425 9.9955 6.29567 10.0941C6.12709 10.1926 5.98703 10.3343 5.88951 10.5049C5.792 10.6754 5.74044 10.8689 5.74 11.066V21.6394C5.74007 21.8365 5.68899 22.0301 5.59188 22.201C5.49478 22.3718 5.35504 22.5138 5.18667 22.6128C5.01854 22.7116 4.82773 22.764 4.63334 22.7647C4.43869 22.7652 4.2473 22.714 4.07834 22.6162L0.560002 20.5798C0.389899 20.4816 0.24846 20.3395 0.150002 20.1682C0.0513518 19.996 -0.000408339 19.8003 2.42592e-06 19.6013L0.0316691 1.12196C0.0322735 0.925132 0.0838655 0.731908 0.181295 0.561573C0.278725 0.391239 0.418585 0.249752 0.586915 0.151235C0.755245 0.0527179 0.946157 0.000617178 1.14059 0.00013285C1.33503 -0.000351477 1.5262 0.0507977 1.695 0.148475L13.745 7.1552C13.9136 7.25334 14.1047 7.30499 14.2992 7.30499C14.4937 7.30499 14.6847 7.25334 14.8533 7.1552L26.9 0.148475C27.0689 0.050578 27.2603 -0.000624039 27.455 5.74022e-06C27.65 0.000402081 27.8414 0.0527732 28.01 0.151849C28.1789 0.250585 28.3191 0.392557 28.4167 0.563513C28.5133 0.734558 28.5639 0.928291 28.5633 1.12533V19.6097C28.5633 19.8071 28.5133 20.0011 28.415 20.1732C28.317 20.3444 28.1762 20.4864 28.0067 20.5849L21.6983 24.2629C21.5286 24.3618 21.3878 24.5044 21.29 24.6762C21.1924 24.8476 21.1413 25.0419 21.1417 25.2397C21.1418 25.4376 21.1936 25.632 21.2917 25.8032C21.3905 25.9749 21.5326 26.1169 21.7033 26.2149L25.1833 28.2209C25.3511 28.3171 25.5406 28.3676 25.7333 28.3677C25.9276 28.3674 26.1183 28.3157 26.2867 28.2175L33.715 23.8984V23.9001ZM34.445 7.31885C34.4448 7.51735 34.4966 7.71237 34.595 7.88404C34.6943 8.05591 34.837 8.19798 35.0083 8.29571C35.1791 8.39338 35.3723 8.44357 35.5685 8.4412C35.7646 8.43883 35.9566 8.38398 36.125 8.28221L39.46 6.25763C39.6244 6.1578 39.7605 6.01656 39.855 5.84766C39.9499 5.67844 39.9999 5.48719 40 5.29259V1.1692C39.9996 0.970552 39.9473 0.775549 39.8483 0.604004C39.7491 0.432446 39.6068 0.29055 39.4358 0.192754C39.2649 0.0949583 39.0714 0.0447527 38.875 0.0472458C38.6789 0.0494722 38.4868 0.104188 38.3183 0.205838L34.985 2.23041C34.82 2.33001 34.6833 2.47128 34.5883 2.64039C34.4941 2.8098 34.4447 3.00102 34.445 3.19546V7.31885Z" fill="#00FFFF"/>
</svg>
