<svg width="59" height="36" viewBox="0 0 59 36" fill="none" xmlns="http://www.w3.org/2000/svg">
<path d="M29.1799 36C28.9799 36 28.7932 35.9468 28.6198 35.8538L26.8461 34.804C26.5793 34.6578 26.7127 34.6047 26.7928 34.5781C27.1528 34.4585 27.2195 34.4319 27.5929 34.2194C27.6329 34.1927 27.6864 34.206 27.7263 34.2326L29.0866 35.0432C29.1399 35.0698 29.2066 35.0698 29.2466 35.0432L34.5678 31.9734C34.6211 31.9469 34.6479 31.8936 34.6479 31.8273V25.7011C34.6479 25.6345 34.6211 25.5815 34.5678 25.5548L29.2466 22.4984C29.1933 22.4717 29.1266 22.4717 29.0866 22.4984L23.7654 25.5548C23.7121 25.5814 23.6853 25.6479 23.6853 25.701V31.8272C23.6853 31.8804 23.7121 31.9468 23.7654 31.9734L25.2191 32.8106C26.0059 33.2093 26.4993 32.7442 26.4993 32.2791V26.2325C26.4993 26.1529 26.566 26.0731 26.6594 26.0731H27.3395C27.4196 26.0731 27.4995 26.1395 27.4995 26.2325V32.2791C27.4995 33.3288 26.9261 33.9402 25.9259 33.9402C25.6191 33.9402 25.3791 33.9402 24.6989 33.6079L23.2986 32.8106C22.9519 32.6114 22.7385 32.2392 22.7385 31.8405V25.7143C22.7385 25.3157 22.9519 24.9435 23.2986 24.7442L28.6198 21.6744C28.9532 21.4884 29.4067 21.4884 29.7401 21.6744L35.0612 24.7442C35.408 24.9435 35.6214 25.3157 35.6214 25.7143V31.8405C35.6214 32.2392 35.408 32.6114 35.0612 32.8106L29.7401 35.8804C29.5667 35.9602 29.3666 36 29.1799 36ZM30.8203 31.7874C28.4865 31.7874 28.0063 30.7243 28.0063 29.8206C28.0063 29.7408 28.073 29.6612 28.1664 29.6612H28.8599C28.9399 29.6612 29.0065 29.7143 29.0065 29.7941C29.1133 30.4983 29.42 30.8439 30.8336 30.8439C31.9539 30.8439 32.4341 30.5914 32.4341 29.9933C32.4341 29.6478 32.3006 29.3954 30.5536 29.2226C29.0999 29.0764 28.193 28.7575 28.193 27.6014C28.193 26.5249 29.1 25.887 30.6203 25.887C32.3273 25.887 33.1675 26.4718 33.2743 27.7474C33.2743 27.7874 33.2609 27.8272 33.2342 27.8671C33.2075 27.8937 33.1675 27.9202 33.1275 27.9202H32.434C32.3673 27.9202 32.3006 27.8671 32.2873 27.8006C32.1273 27.0698 31.7138 26.8306 30.6203 26.8306C29.3933 26.8306 29.2466 27.2559 29.2466 27.5747C29.2466 27.9601 29.42 28.0797 31.0737 28.2923C32.714 28.505 33.4876 28.8106 33.4876 29.9534C33.4742 31.1229 32.5141 31.7874 30.8203 31.7874Z" fill="#E1E8E0"/>
<path d="M12.6695 12.04C12.6695 11.8008 12.5361 11.5747 12.3228 11.4552L6.66819 8.21269C6.57472 8.15945 6.4681 8.13289 6.36148 8.11955H6.30806C6.20143 8.11955 6.0947 8.15945 6.00135 8.21269L0.346749 11.4552C0.133276 11.5747 0 11.8007 0 12.04L0.0133853 20.7575C0.0133853 20.8771 0.080081 20.9967 0.186702 21.0499C0.293438 21.1164 0.426714 21.1164 0.520181 21.0499L3.88093 19.1363C4.09429 19.0167 4.22768 18.7907 4.22768 18.5516V14.4718C4.22768 14.2327 4.36096 14.0067 4.57443 13.8871L6.00135 13.0632C6.10808 12.9967 6.22809 12.97 6.3481 12.97C6.4681 12.97 6.58811 12.9967 6.68157 13.0632L8.10849 13.8871C8.32197 14.0067 8.45524 14.2325 8.45524 14.4718V18.5516C8.45524 18.7907 8.58863 19.0167 8.80199 19.1363L12.1627 21.0499C12.2147 21.0825 12.2748 21.0998 12.3361 21.0998C12.3975 21.0998 12.4576 21.0825 12.5095 21.0499C12.6162 20.9967 12.6829 20.8771 12.6829 20.7575L12.6695 12.04ZM39.849 0.0399273C39.7424 -0.0133091 39.609 -0.0133091 39.5155 0.0399273C39.4089 0.106386 39.3422 0.212629 39.3422 0.33221V8.97018C39.3422 9.04987 39.3023 9.12955 39.2222 9.18278C39.1422 9.22257 39.0621 9.22257 38.9822 9.18278L37.5685 8.37217C37.4649 8.31337 37.3477 8.28244 37.2284 8.28244C37.1091 8.28244 36.9919 8.31337 36.8883 8.37217L31.2337 11.628C31.0203 11.7476 30.8869 11.9735 30.8869 12.2127V18.7109C30.8869 18.9501 31.0203 19.1762 31.2337 19.2957L36.8883 22.5516C36.9919 22.6104 37.1091 22.6413 37.2284 22.6413C37.3477 22.6413 37.4649 22.6104 37.5685 22.5516L43.2231 19.2957C43.4365 19.1762 43.5699 18.9502 43.5699 18.7109V2.51168C43.5699 2.25918 43.4365 2.03336 43.2231 1.91366L39.849 0.0399273ZM39.3289 16.5715C39.3289 16.6379 39.3023 16.6911 39.2488 16.7176L37.3151 17.8339C37.2881 17.847 37.2584 17.8538 37.2284 17.8538C37.1983 17.8538 37.1687 17.847 37.1417 17.8339L35.208 16.7176C35.1545 16.6911 35.1279 16.6246 35.1279 16.5715V14.3389C35.1279 14.2724 35.1545 14.2193 35.208 14.1928L37.1417 13.0764C37.1687 13.0633 37.1983 13.0564 37.2284 13.0564C37.2584 13.0564 37.2881 13.0633 37.3151 13.0764L39.2488 14.1928C39.3023 14.2192 39.3289 14.2858 39.3289 14.3389V16.5715ZM58.6665 14.2858C58.88 14.1662 59 13.9403 59 13.701V12.1196C59 11.8805 58.8666 11.6545 58.6665 11.535L53.052 8.29248C52.9483 8.23368 52.8311 8.20276 52.7118 8.20276C52.5926 8.20276 52.4754 8.23368 52.3717 8.29248L46.7171 11.5482C46.5037 11.6678 46.3704 11.8937 46.3704 12.1329V18.6313C46.3704 18.8704 46.5038 19.0964 46.7171 19.2159L52.3317 22.4053C52.5452 22.5249 52.7986 22.5249 52.9987 22.4053L56.3993 20.5185C56.5061 20.4652 56.5728 20.3456 56.5728 20.2261C56.5728 20.1065 56.5061 19.9869 56.3993 19.9337L50.7181 16.6778C50.6113 16.6114 50.5446 16.5051 50.5446 16.3856V14.3523C50.5446 14.2328 50.6113 14.1132 50.7181 14.0599L52.4917 13.05C52.5437 13.0174 52.6038 13.0001 52.6651 13.0001C52.7265 13.0001 52.7866 13.0174 52.8385 13.05L54.6123 14.0599C54.719 14.1264 54.7856 14.2327 54.7856 14.3523V15.947C54.7856 16.0666 54.8523 16.1862 54.959 16.2393C55.0109 16.2719 55.071 16.2892 55.1324 16.2892C55.1938 16.2892 55.2539 16.2719 55.3058 16.2393L58.6665 14.2858Z" fill="#E1E8E0"/>
<path d="M52.6251 13.9799C52.6449 13.9669 52.6681 13.96 52.6918 13.96C52.7155 13.96 52.7387 13.9669 52.7585 13.9799L53.8388 14.6045C53.8787 14.6312 53.9054 14.6709 53.9054 14.7241V15.9733C53.9054 16.0265 53.8788 16.0664 53.8388 16.0929L52.7585 16.7175C52.7387 16.7305 52.7155 16.7374 52.6918 16.7374C52.6681 16.7374 52.6449 16.7305 52.6251 16.7175L51.545 16.0929C51.5049 16.0664 51.4783 16.0265 51.4783 15.9733V14.7242C51.4783 14.6709 51.5048 14.631 51.545 14.6046L52.6251 13.9799Z" fill="#E1E8E0"/>
<path d="M22.125 8.31894C22.0213 8.26016 21.9042 8.22925 21.7849 8.22925C21.6657 8.22925 21.5485 8.26016 21.4449 8.31894L15.8303 11.548C15.6168 11.6675 15.4968 11.8935 15.4968 12.1326V18.6045C15.4968 18.8436 15.6302 19.0696 15.8303 19.1892L21.4449 22.4184C21.5485 22.4772 21.6657 22.5081 21.7849 22.5081C21.9042 22.5081 22.0213 22.4772 22.125 22.4184L27.7396 19.1892C27.953 19.0696 28.0731 18.8436 28.0731 18.6045V12.1328C28.0731 11.8936 27.9396 11.6677 27.7396 11.5481L22.125 8.31894Z" fill="url(#paint0_linear_1814_137)"/>
<defs>
<linearGradient id="paint0_linear_1814_137" x1="873.05" y1="257.924" x2="260.747" y2="1223.46" gradientUnits="userSpaceOnUse">
<stop stop-color="#41873F"/>
<stop offset="0.3288" stop-color="#418B3D"/>
<stop offset="0.6352" stop-color="#419637"/>
<stop offset="0.9319" stop-color="#3FA92D"/>
<stop offset="1" stop-color="#3FAE2A"/>
</linearGradient>
</defs>
</svg>
