<svg width="24" height="13" viewBox="0 0 24 13" fill="none" xmlns="http://www.w3.org/2000/svg">
<path d="M7.01 4.519H6.066L5.551 7.167H6.389C6.945 7.167 7.359 7.06233 7.631 6.853C7.903 6.643 8.08633 6.29333 8.181 5.804C8.27233 5.334 8.231 5.00233 8.057 4.809C7.88233 4.61567 7.53333 4.519 7.01 4.519ZM12 0C5.373 0 0 2.826 0 6.312C0 9.798 5.373 12.625 12 12.625C18.627 12.625 24 9.798 24 6.312C24 2.826 18.627 0 12 0ZM8.74 7.451C8.479 7.701 8.165 7.889 7.823 8.002C7.48633 8.11067 7.058 8.16533 6.538 8.166H5.357L5.03 9.847H3.652L4.882 3.521H7.532C8.32867 3.521 8.91 3.73033 9.276 4.149C9.642 4.567 9.752 5.151 9.606 5.901C9.55068 6.19794 9.44769 6.48397 9.301 6.748C9.15767 7.00333 8.97067 7.23767 8.74 7.451ZM12.764 8.166L13.307 5.367C13.3697 5.04833 13.347 4.83133 13.239 4.716C13.1323 4.6 12.9033 4.542 12.552 4.542H11.46L10.756 8.167H9.388L10.618 1.84H11.985L11.658 3.522H12.876C13.6427 3.522 14.1713 3.65567 14.462 3.923C14.898 4.324 14.84 4.623 14.725 5.222L14.153 8.166H12.764ZM20.361 5.901C20.3057 6.19794 20.2027 6.48397 20.056 6.748C19.9133 7.00333 19.7263 7.23767 19.495 7.451C19.2339 7.70024 18.9207 7.88843 18.578 8.002C18.242 8.11067 17.8133 8.16533 17.292 8.166H16.112L15.785 9.848H14.407L15.637 3.522H18.286C19.0827 3.522 19.664 3.73133 20.03 4.15C20.3967 4.56733 20.507 5.151 20.361 5.901ZM17.766 4.519H16.823L16.307 7.167H17.145C17.7017 7.167 18.1157 7.06233 18.387 6.853C18.6583 6.643 18.842 6.29333 18.938 5.804C19.0293 5.334 18.9877 5.00233 18.813 4.809C18.551 4.519 18.289 4.519 17.766 4.519Z" fill="#33E1FF"/>
</svg>
