<svg width="41" height="31" viewBox="0 0 41 31" fill="none" xmlns="http://www.w3.org/2000/svg">
<path d="M13.6391 23.4551C13.4469 22.1271 12.9184 21.0484 11.6355 20.5268C11.1334 20.3232 10.6986 19.9518 10.2037 19.7178C9.64159 19.4506 9.06983 19.1962 8.47645 19.0309C8.02722 18.9037 7.60921 19.1174 7.34255 19.5346C7.0903 19.9264 7.27288 20.2953 7.48429 20.6234C7.72212 20.9923 7.98638 21.3434 8.25304 21.6894C8.69507 22.2644 9.16353 22.8164 9.59354 23.3991C10.0043 23.9563 10.3551 24.5745 10.295 25.3122C10.1629 26.9303 9.47102 28.2711 8.35634 29.3624C8.23382 29.4794 8.01761 29.5634 7.85905 29.5481C7.14796 29.4667 6.50173 29.1817 5.98042 28.6551C5.38223 28.0522 5.47352 27.3424 6.18942 26.9023C6.35999 26.798 6.53776 26.7013 6.69391 26.5741C7.13114 26.2256 7.27768 25.6302 7.03985 25.1138C6.92694 24.8645 6.79962 24.5948 6.61223 24.4142C5.69694 23.5314 4.79838 22.6205 3.81823 21.8167C1.44223 19.8628 0.221917 17.2781 0.0344545 14.1488C-0.176952 10.6735 0.584592 7.42987 2.31668 4.46087C2.97252 3.33385 3.73647 2.26017 4.90881 1.70311C5.70639 1.32404 6.58084 1.11034 7.43376 0.873746C9.78093 0.219922 12.1496 -0.271081 14.5928 0.166497C16.6973 0.540474 18.2373 1.68784 18.9436 3.87828C19.4072 5.31059 19.5177 6.79123 19.3736 8.30757C19.0901 11.2868 17.0121 13.9504 14.3021 14.739C13.1274 15.0799 12.486 14.8891 11.7797 13.8537C11.2728 13.1083 10.8524 12.2967 10.3983 11.5105C10.3311 11.3935 10.283 11.2587 10.2254 11.134C10.1701 11.0094 10.11 10.8898 10.0524 10.7651C10.223 12.0575 10.5064 13.3016 11.1719 14.4108C11.5322 15.0137 12.0127 15.4589 12.7166 15.5251C15.3063 15.7718 17.4925 14.8712 19.0444 12.6655C20.7813 10.1976 21.1634 7.35847 20.6612 4.3692C20.5627 3.77898 20.397 3.20147 20.2793 2.6138C20.2 2.23473 20.3417 1.95489 20.6949 1.82259C20.8582 1.76408 21.0264 1.71574 21.1897 1.68013C23.3087 1.19676 25.4516 1.03648 27.6113 1.26799C30.0618 1.52748 32.38 2.23982 34.4533 3.68239C37.6989 5.94406 39.7097 9.16238 40.8027 13.0549C40.9613 13.6197 40.9853 14.2379 40.9997 14.8333C41.0093 15.2301 40.7691 15.3344 40.4832 15.0851C40.1685 14.8129 39.8802 14.5025 39.6088 14.182C39.3565 13.8792 39.1547 13.5332 38.9097 13.2152C38.7199 12.9659 38.5541 13.0041 38.4628 13.3145C38.4052 13.5027 38.3547 13.6884 38.3043 13.8767C37.7373 16.0188 36.8437 17.9726 35.3951 19.6187C35.1933 19.8502 35.0131 20.1937 34.9891 20.499C34.9266 21.3436 34.8809 22.206 34.9578 23.0481C35.1164 24.857 35.3638 26.6581 35.556 28.4645C35.6641 29.4847 35.3542 30.0851 34.4485 30.4388C33.8119 30.6855 33.1296 30.8662 32.457 30.917C31.3855 30.9959 30.3045 30.9399 29.2282 30.9399C29.1994 29.6679 29.3027 28.4187 28.1736 27.7369C28.3922 26.793 28.6445 25.8975 28.7958 24.9817C28.9207 24.221 28.815 23.473 28.3105 22.8498C27.8373 22.2621 27.2439 22.1018 26.7009 22.4376C25.0649 23.4476 23.3639 23.4527 21.6319 22.7912C20.8367 22.486 20.2817 22.659 19.842 23.4273C19.3688 24.2541 19.1694 25.1827 19.2222 26.1215C19.2895 27.3045 19.4841 28.4748 19.633 29.6527C19.7147 30.3116 19.645 30.482 19.0276 30.6499C17.6559 31.0188 16.2601 31.0595 14.8571 30.9399C14.7826 30.9323 14.7081 30.8992 14.6601 30.8865C14.5904 29.6527 14.7129 28.3704 13.3244 27.714C13.9394 26.3326 13.8553 24.9003 13.6439 23.468L13.6391 23.4552V23.4551ZM5.34612 18.6137C5.55032 18.4102 5.71368 18.0922 5.77133 17.7996C5.91547 17.0669 5.39657 16.0849 4.79598 15.8127C4.47647 15.6652 4.1978 15.7186 3.97198 15.9883C3.42184 16.6472 2.87891 17.3137 2.3383 17.9829C2.24701 18.0974 2.16533 18.2322 2.10047 18.367C1.88426 18.8072 2.01158 19.1277 2.47283 19.2473C2.75151 19.3211 3.03979 19.3363 3.32567 19.3796C4.07039 19.3033 4.7911 19.171 5.34604 18.6164V18.6138L5.34612 18.6137ZM5.40858 11.2893C5.40618 10.7652 4.99297 10.3276 4.5053 10.3251C4.00321 10.3226 3.57079 10.7983 3.5876 11.3224C3.60922 11.849 4.02243 12.2713 4.51731 12.2611C5.017 12.2535 5.41579 11.821 5.41098 11.2918L5.40858 11.2893Z" fill="#E1E8E0"/>
</svg>
