<svg width="24" height="18" viewBox="0 0 24 18" fill="none" xmlns="http://www.w3.org/2000/svg">
<path d="M23.996 4.24304C23.94 5.08004 23.739 6.37804 23.28 8.09304C22.285 11.808 19.01 18.967 12.86 17.32C6.71002 15.67 7.45302 7.83304 8.44802 4.11904C8.90802 2.40304 9.38203 1.17904 9.75303 0.425037C10.173 -0.427963 10.599 0.136037 11.568 0.948037C12.252 1.52104 13.978 2.73904 16.579 3.43604C19.18 4.13304 21.285 3.94204 22.162 3.78804C23.407 3.56904 24.059 3.29404 23.996 4.24304V4.24304ZM14.189 8.10604C14.189 8.10604 14.062 6.28704 12.416 5.82004C10.772 5.35304 9.80303 6.86004 9.80303 6.86004L14.189 8.10604ZM18.247 12.645L10.478 10.473C10.478 10.473 10.924 12.779 13.816 13.626C16.678 14.462 18.246 12.646 18.246 12.645H18.247ZM20.948 10.135C20.948 10.135 20.818 8.31704 19.175 7.84904C17.531 7.38004 16.563 8.88704 16.563 8.88704L20.948 10.135ZM8.57002 15.011C3.82102 16.29 1.30902 10.787 0.549025 7.93104C0.197025 6.61204 0.0440249 5.61304 0.00302493 4.96904C-0.0439751 4.23904 0.458025 4.44904 1.41802 4.61504C2.09502 4.73304 3.71802 4.87604 5.72602 4.33504C6.56343 4.11006 7.37211 3.78927 8.13602 3.37904C8.07802 3.57604 8.02202 3.77904 7.96602 3.98904C7.53302 5.60704 7.13902 8.04404 7.33402 10.415C5.35802 11.147 5.06702 12.838 5.06702 12.838L7.59102 12.123C7.81802 13.125 8.19102 14.11 8.74102 14.961C8.68427 14.9782 8.62727 14.9946 8.57002 15.01V15.011ZM4.38202 8.71304C5.64702 8.38004 5.74502 7.08204 5.74502 7.08204L2.37103 7.97004C2.37103 7.97004 3.11602 9.04604 4.38102 8.71304H4.38202Z" fill="#00FFFF"/>
</svg>
