<svg width="40" height="40" viewBox="0 0 40 40" fill="none" xmlns="http://www.w3.org/2000/svg">
<path d="M38.4 0H1.6C0.715 0 0 0.715 0 1.6V38.4C0 39.285 0.715 40 1.6 40H38.4C39.285 40 40 39.285 40 38.4V1.6C40 0.715 39.285 0 38.4 0ZM12.8 31.6C12.8 31.82 12.62 32 12.4 32H8.4C8.18 32 8 31.82 8 31.6V8.4C8 8.18 8.18 8 8.4 8H12.4C12.62 8 12.8 8.18 12.8 8.4V31.6ZM22.4 17.6C22.4 17.82 22.22 18 22 18H18C17.78 18 17.6 17.82 17.6 17.6V8.4C17.6 8.18 17.78 8 18 8H22C22.22 8 22.4 8.18 22.4 8.4V17.6ZM32 21.2C32 21.42 31.82 21.6 31.6 21.6H27.6C27.38 21.6 27.2 21.42 27.2 21.2V8.4C27.2 8.18 27.38 8 27.6 8H31.6C31.82 8 32 8.18 32 8.4V21.2Z" fill="#EEEEEE"/>
</svg>
