<svg width="39" height="36" viewBox="0 0 39 36" fill="none" xmlns="http://www.w3.org/2000/svg">
<path d="M39 18.0042C39 15.3261 35.7646 12.7877 30.8035 11.2145C31.9491 5.97445 31.4405 1.80396 29.198 0.468254C28.6546 0.152807 28.0396 -0.00597595 27.417 0.00842183V1.84438C27.7826 1.84438 28.0768 1.92018 28.3238 2.05998C29.4044 2.70341 29.874 5.14911 29.5084 8.2972C29.4206 9.07201 29.2776 9.88724 29.1021 10.7193C27.4408 10.3044 25.7546 10.0044 24.0549 9.82155C23.0423 8.37348 21.9375 6.9971 20.748 5.70159C23.3399 3.20535 25.7725 1.83765 27.4268 1.83765V0C25.2395 0 22.3779 1.61531 19.4837 4.41641C16.5912 1.63384 13.728 0.0336873 11.5424 0.0336873V1.86965C13.1885 1.86965 15.6293 3.23062 18.2211 5.71001C17.108 6.92275 15.9949 8.2972 14.937 9.82155C13.2337 10.0024 11.5446 10.3052 9.88162 10.7277C9.70588 9.9391 9.56759 9.142 9.46725 8.33931C9.0935 5.18954 9.555 2.74384 10.6291 2.09367C10.8664 1.94545 11.1768 1.87807 11.5424 1.87807V0.0421092C10.8761 0.0421092 10.27 0.190334 9.74675 0.501942C7.51238 1.83765 7.01188 5.99804 8.164 11.2229C3.21913 12.8063 0 15.3345 0 18.0042C0 20.6824 3.23538 23.2207 8.1965 24.7922C7.05088 30.034 7.5595 34.2045 9.802 35.5385C10.3188 35.8518 10.9232 36 11.5895 36C13.7767 36 16.6384 34.3847 19.5325 31.5836C22.425 34.3678 25.2866 35.9663 27.4739 35.9663C28.1013 35.98 28.721 35.8208 29.2695 35.5048C31.5039 34.1708 32.0044 30.0104 30.8523 24.7855C35.7809 23.2123 39 20.6739 39 18.0042ZM28.6487 12.5081C28.34 13.6095 27.9821 14.6954 27.5762 15.7623C26.9119 14.4228 26.1824 13.1191 25.3906 11.8563C26.52 12.0298 27.6088 12.2437 28.6504 12.5081H28.6487ZM25.0088 21.2837C24.4136 22.3608 23.7744 23.4111 23.0929 24.4318C20.7078 24.6497 18.3089 24.6525 15.9234 24.4402C14.555 22.4142 13.3584 20.2693 12.3468 18.0295C13.3568 15.7844 14.5484 13.6319 15.9087 11.5952C18.2933 11.3768 20.6916 11.3735 23.0766 11.5851C23.7364 12.5654 24.3815 13.6131 25.0006 14.718C25.6051 15.796 26.1544 16.8908 26.6549 17.9958C26.1488 19.1141 25.5997 20.211 25.0088 21.2837V21.2837ZM27.5762 20.2124C28.0052 21.3157 28.3725 22.4206 28.6731 23.4919C27.6331 23.7563 26.5346 23.9787 25.3988 24.1505C26.1873 22.8761 26.914 21.5618 27.5762 20.2124V20.2124ZM19.5163 29.0048C18.7769 28.2132 18.0375 27.3322 17.3062 26.3671C18.0212 26.4008 18.7525 26.4261 19.4919 26.4261C20.2394 26.4261 20.9787 26.4092 21.7019 26.3671C20.9869 27.3322 20.2475 28.2132 19.5163 29.0048ZM13.6012 24.1505C12.5056 23.9859 11.4178 23.769 10.3415 23.5003C10.6356 22.4375 11.0013 21.3409 11.414 20.2461C11.7406 20.903 12.0835 21.5633 12.4572 22.2236C12.831 22.8821 13.2112 23.5256 13.6012 24.1505ZM19.4756 7.0036C20.215 7.79526 20.9544 8.67618 21.6856 9.64132C20.9706 9.60764 20.2394 9.58237 19.5 9.58237C18.7525 9.58237 18.0131 9.59921 17.29 9.64132C18.005 8.67618 18.7444 7.79526 19.4756 7.0036ZM13.5931 11.858C12.8048 13.1295 12.0781 14.441 11.4156 15.7876C10.9983 14.7137 10.6323 13.6193 10.3187 12.5081C11.3587 12.2521 12.4572 12.0298 13.5931 11.858ZM6.39925 22.173C3.58475 20.93 1.76475 19.2978 1.76475 18.0042C1.76475 16.7106 3.58475 15.07 6.39925 13.8354C7.08175 13.5305 7.82925 13.2577 8.60113 13.0033C9.0545 14.6169 9.65088 16.2979 10.3886 18.0211C9.69209 19.6417 9.10302 21.3098 8.6255 23.0135C7.87061 22.7712 7.12763 22.4907 6.39925 22.173V22.173ZM10.6763 33.9468C9.59563 33.3067 9.126 30.8576 9.49163 27.7112C9.57938 26.9364 9.72238 26.1195 9.89788 25.2874C11.4546 25.6832 13.156 25.9881 14.9451 26.1869C15.9578 27.6349 17.0625 29.0113 18.252 30.3068C15.6601 32.8031 13.2275 34.1708 11.5733 34.1708C11.2612 34.1743 10.953 34.0979 10.6763 33.9484V33.9468ZM29.5327 27.6691C29.9065 30.8172 29.445 33.2646 28.3709 33.9148C28.1336 34.063 27.8232 34.1287 27.4576 34.1287C25.8115 34.1287 23.3707 32.7694 20.7789 30.2883C21.9634 28.9982 23.0607 27.625 24.063 26.1784C25.7663 25.9976 27.4554 25.6948 29.1184 25.2723C29.302 26.1043 29.4434 26.9027 29.5327 27.6691V27.6691ZM32.5926 22.173C31.9101 22.4779 31.1626 22.7508 30.3907 23.0051C29.9048 21.2926 29.3076 19.6162 28.6032 17.9874C29.3345 16.2744 29.9211 14.6018 30.3664 12.9949C31.1237 13.238 31.8693 13.5185 32.6008 13.8354C35.4153 15.0785 37.2352 16.7106 37.2352 18.0042C37.2271 19.2978 35.4071 20.9384 32.5926 22.173V22.173Z" fill="#00FFFF"/>
<path d="M19.4921 21.7703C20.4558 21.7703 21.38 21.3735 22.0614 20.6672C22.7428 19.9609 23.1256 19.0029 23.1256 18.004C23.1256 17.0052 22.7428 16.0472 22.0614 15.3409C21.38 14.6346 20.4558 14.2378 19.4921 14.2378C18.5285 14.2378 17.6043 14.6346 16.9229 15.3409C16.2415 16.0472 15.8586 17.0052 15.8586 18.004C15.8586 19.0029 16.2415 19.9609 16.9229 20.6672C17.6043 21.3735 18.5285 21.7703 19.4921 21.7703V21.7703Z" fill="#00FFFF"/>
</svg>
