<svg width="88" height="78" viewBox="0 0 88 78" fill="none" xmlns="http://www.w3.org/2000/svg">
<path d="M54.1295 48.6692L52.4705 51.5504C52.2249 51.9767 51.8713 52.3308 51.4453 52.5771C51.0192 52.8233 50.5359 52.9529 50.0438 52.9529H37.3334C36.8413 52.9529 36.358 52.8233 35.932 52.5771C35.506 52.3308 35.1523 51.9767 34.9067 51.5504L33.2474 48.6692H54.1292H54.1295ZM58.7743 40.604L55.849 45.6837H31.5283L28.6029 40.604H58.7743V40.604ZM55.9564 32.7172L58.7791 37.6185H28.5981L31.4208 32.7172H55.9564V32.7172ZM50.0435 25.2615C50.5356 25.2614 51.019 25.391 51.4451 25.6372C51.8712 25.8834 52.2249 26.2376 52.4705 26.664L54.2369 29.7316H33.1403L34.9071 26.664C35.1527 26.2377 35.5063 25.8835 35.9323 25.6373C36.3583 25.3911 36.8417 25.2615 37.3337 25.2615H50.0438H50.0435Z" fill="#00435B"/>
<path d="M18.8354 23.9244C17.4275 17.0972 17.1251 11.8607 18.0353 8.05854C18.5766 5.7971 19.5659 3.95227 21.0709 2.62102C22.6596 1.21577 24.6679 0.526149 26.925 0.526149C30.6478 0.526149 34.5618 2.224 38.7441 5.44908C40.4504 6.76479 42.2209 8.35047 44.0596 10.2071C44.2063 10.0189 44.3715 9.84121 44.556 9.67666C49.7546 5.0443 54.1315 2.16555 57.8753 1.05595C60.1012 0.395727 62.191 0.332881 64.094 0.973505C66.103 1.64927 67.7036 3.04708 68.8331 5.00443C70.6969 8.23492 71.1881 12.4797 70.4935 17.7213C70.2103 19.8577 69.7261 22.1847 69.0419 24.7063C69.3001 24.7374 69.5589 24.7948 69.815 24.8796C76.4108 27.0657 81.0817 29.416 83.9094 32.1025C85.592 33.7007 86.6905 35.48 87.0878 37.4498C87.5068 39.5288 87.098 41.6139 85.9701 43.5699C84.1098 46.796 80.689 49.3399 75.8161 51.355C73.8598 52.1643 71.6456 52.8971 69.172 53.5563C69.2849 53.8111 69.3727 54.0817 69.4312 54.3655C70.8391 61.1928 71.1412 66.4293 70.2313 70.2315C69.69 72.4929 68.7003 74.3377 67.1954 75.669C65.607 77.0742 63.5983 77.7638 61.3416 77.7638C57.6185 77.7638 53.7048 76.066 49.5225 72.8409C47.798 71.511 46.0079 69.9057 44.1478 68.0234C43.952 68.3294 43.7151 68.607 43.4437 68.8485C38.245 73.4815 33.8681 76.3596 30.1244 77.4696C27.8984 78.1298 25.8086 78.1926 23.9057 77.552C21.8966 76.8762 20.2961 75.4784 19.1666 73.5211C17.3028 70.2906 16.8115 66.0458 17.5062 60.8042C17.7998 58.5908 18.309 56.1722 19.0327 53.5448C18.7443 53.5156 18.4599 53.4547 18.1847 53.3634C11.5889 51.1773 6.91801 48.827 4.09028 46.1405C2.40763 44.5423 1.30917 42.763 0.911824 40.7932C0.492851 38.7142 0.901688 36.6288 2.02954 34.6728C3.88991 31.447 7.31062 28.9028 12.1836 26.888C14.1983 26.0545 16.4861 25.3023 19.0493 24.6279C18.9565 24.4005 18.8849 24.165 18.8354 23.9244V23.9244Z" fill="#002B3B"/>
<path d="M64.8294 55.037C65.1442 54.9813 65.4684 55.0487 65.7348 55.2255C66.0012 55.4023 66.1894 55.6748 66.2604 55.9865L66.2681 56.0243L66.3381 56.3876C68.6052 68.3067 67.0081 74.2666 61.5469 74.2666C56.204 74.2666 49.4021 69.1811 41.1416 59.0102C40.9948 58.8294 40.9017 58.6111 40.8728 58.3801C40.8439 58.149 40.8804 57.9145 40.9782 57.7032C41.0759 57.4918 41.2309 57.3122 41.4257 57.1845C41.6204 57.0569 41.8471 56.9865 42.0799 56.9812H42.1184L42.5536 56.9843C46.0297 57.0032 49.4088 56.8819 52.6914 56.6207C56.5659 56.3122 60.612 55.7844 64.8294 55.037V55.037ZM27.3242 46.0271L27.3452 46.0626L27.5634 46.4434C29.3127 49.4843 31.1349 52.3705 33.0304 55.1023C35.2631 58.3189 37.7736 61.5754 40.5618 64.8718C40.7687 65.1164 40.8734 65.4314 40.8539 65.7513C40.8345 66.0711 40.6924 66.3711 40.4573 66.5889L40.4259 66.6169L40.1455 66.8585C30.919 74.7639 24.9222 76.3422 22.1553 71.5929C19.4465 66.9447 20.4287 58.4922 25.1013 46.2359C25.184 46.0188 25.3259 45.8291 25.5109 45.6884C25.6958 45.5478 25.9165 45.4617 26.1478 45.44C26.3792 45.4182 26.612 45.4617 26.8199 45.5655C27.0278 45.6692 27.2025 45.8292 27.3242 46.0271V46.0271ZM69.5111 28.439L69.549 28.4515L69.8963 28.5711C81.2846 32.5328 85.6112 36.8864 82.8764 41.6319C80.2017 46.2731 72.4257 49.6526 59.5487 51.7697C59.3153 51.8081 59.0758 51.7793 58.8582 51.6865C58.6407 51.5936 58.4541 51.4408 58.3203 51.2457C58.1865 51.0507 58.1111 50.8215 58.1029 50.5851C58.0946 50.3488 58.1539 50.1149 58.2738 49.911C60.118 46.7735 61.7794 43.6521 63.2573 40.546C64.9332 37.0236 66.506 33.2423 67.9758 29.2033C68.0825 28.9097 68.2958 28.667 68.5732 28.5234C68.8506 28.3797 69.1719 28.3456 69.4733 28.4279L69.5111 28.439V28.439ZM29.2839 26.4445C29.4249 26.5273 29.5481 26.637 29.6467 26.7674C29.7452 26.8978 29.8171 27.0464 29.8582 27.2046C29.8993 27.3628 29.9088 27.5275 29.8862 27.6894C29.8636 27.8513 29.8094 28.0072 29.7266 28.1481C27.8817 31.2853 26.2207 34.407 24.7428 37.5132C23.0669 41.0356 21.4941 44.8165 20.0243 48.8558C19.9152 49.1558 19.695 49.4023 19.4093 49.5446C19.1235 49.6868 18.7941 49.7139 18.489 49.6201L18.4511 49.6076L18.1038 49.4877C6.71548 45.5264 2.38891 41.1724 5.12372 36.4272C7.79839 31.7857 15.5744 28.4066 28.4514 26.2894C28.7386 26.2421 29.0332 26.2968 29.2839 26.4445ZM65.8448 6.9325C68.5536 11.5811 67.5713 20.0335 62.8988 32.2898C62.816 32.507 62.6742 32.6966 62.4892 32.8373C62.3043 32.978 62.0836 33.064 61.8523 33.0858C61.6209 33.1075 61.3881 33.064 61.1802 32.9603C60.9723 32.8565 60.7976 32.6966 60.6758 32.4986L60.6549 32.4632L60.4366 32.0824C58.6874 29.0414 56.8652 26.1553 54.9697 23.4235C52.737 20.2069 50.2265 16.9504 47.4383 13.654C47.2314 13.4093 47.1267 13.0943 47.1462 12.7745C47.1656 12.4546 47.3077 12.1546 47.5427 11.9369L47.5741 11.9088L47.8546 11.6672C57.0811 3.76182 63.0778 2.18358 65.8448 6.9325V6.9325ZM26.9201 4.10376C32.2634 4.10376 39.0653 9.18888 47.3255 19.3598C47.4722 19.5406 47.5653 19.7589 47.5942 19.9899C47.6231 20.221 47.5866 20.4555 47.4889 20.6668C47.3911 20.8781 47.2361 21.0578 47.0413 21.1854C46.8466 21.3131 46.6199 21.3835 46.3872 21.3888H46.3487L45.9135 21.3861C42.4377 21.3671 39.0582 21.4884 35.776 21.7496C31.9012 22.0581 27.855 22.5859 23.6376 23.3333C23.3228 23.389 22.9987 23.3214 22.7324 23.1447C22.4661 22.9679 22.278 22.6955 22.207 22.3838L22.1989 22.3456L22.129 21.9828C19.8618 10.0633 21.4586 4.10376 26.9201 4.10376Z" fill="#00FFFF"/>
<path d="M38.3557 25.4172H49.0247C49.7912 25.4172 50.5442 25.6195 51.2075 26.0036C51.8708 26.3877 52.421 26.9402 52.8025 27.605L58.1596 36.9393C58.5383 37.5992 58.7376 38.3467 58.7376 39.1075C58.7376 39.8683 58.5383 40.6159 58.1596 41.2757L52.8025 50.61C52.421 51.2748 51.8708 51.8272 51.2074 52.2113C50.5441 52.5955 49.7912 52.7978 49.0247 52.7978H38.3557C36.7954 52.7978 35.3543 51.9632 34.5775 50.61L29.2211 41.2757C28.8424 40.6159 28.6431 39.8683 28.6431 39.1075C28.6431 38.3467 28.8424 37.5992 29.2211 36.9393L34.5778 27.605C34.9594 26.9401 35.5097 26.3878 36.1731 26.0036C36.8365 25.6195 37.5895 25.4172 38.356 25.4172H38.3557ZM47.3984 28.2345C48.9594 28.2345 50.4015 29.0701 51.1776 30.4243L54.9133 36.9414C55.2912 37.6007 55.49 38.3475 55.49 39.1075C55.49 39.8675 55.2912 40.6143 54.9133 41.2737L51.1776 47.7907C50.7962 48.4561 50.2459 49.0089 49.5823 49.3934C48.9187 49.7778 48.1653 49.9803 47.3984 49.9802H39.9819C38.4209 49.9802 36.9788 49.145 36.2027 47.7907L32.4671 41.2737C32.0892 40.6143 31.8903 39.8675 31.8903 39.1075C31.8903 38.3475 32.0892 37.6007 32.4671 36.9414L36.2027 30.4243C36.5841 29.759 37.1344 29.2062 37.7979 28.8218C38.4615 28.4373 39.2147 28.2349 39.9816 28.2348H47.3984V28.2345ZM45.6458 31.316H41.7345C40.9683 31.316 40.2156 31.518 39.5524 31.9019C38.8892 32.2857 38.339 32.8377 37.9573 33.5021L35.9834 36.9373C35.604 37.5976 35.4043 38.3459 35.4043 39.1075C35.4043 39.8691 35.604 40.6174 35.9834 41.2777L37.9573 44.7133C38.339 45.3777 38.8892 45.9297 39.5524 46.3135C40.2156 46.6973 40.9683 46.8994 41.7345 46.8994H45.6458C47.2055 46.8994 48.6462 46.0655 49.423 44.7133L51.3969 41.2777C51.7764 40.6174 51.976 39.8691 51.976 39.1075C51.976 38.3459 51.7764 37.5976 51.3969 36.9373L49.423 33.5017C49.0413 32.8373 48.4911 32.2854 47.8279 31.9015C47.1648 31.5177 46.4121 31.3156 45.6458 31.3156V31.316ZM43.9585 34.2653C45.5168 34.2653 46.9565 35.0979 47.7336 36.4481L48.0137 36.9346C48.3941 37.5956 48.5944 38.3449 48.5944 39.1075C48.5944 39.8702 48.3941 40.6195 48.0137 41.2804L47.7336 41.767C47.3517 42.4305 46.8016 42.9816 46.1388 43.3648C45.4761 43.748 44.724 43.9497 43.9585 43.9497H43.4219C42.6563 43.9497 41.9043 43.748 41.2415 43.3648C40.5788 42.9816 40.0287 42.4305 39.6467 41.767L39.3666 41.2804C38.9862 40.6195 38.786 39.8702 38.786 39.1075C38.786 38.3449 38.9862 37.5956 39.3666 36.9346L39.6467 36.4481C40.0287 35.7846 40.5788 35.2335 41.2415 34.8503C41.9043 34.4671 42.6563 34.2653 43.4219 34.2653H43.9585ZM43.6909 37.1708C43.3506 37.1706 43.0163 37.26 42.7215 37.43C42.4267 37.6 42.1819 37.8446 42.0116 38.1392C41.8415 38.4335 41.752 38.7675 41.752 39.1075C41.752 39.4475 41.8415 39.7815 42.0116 40.0759C42.1818 40.3705 42.4265 40.6151 42.7212 40.7852C43.0159 40.9553 43.3501 41.0448 43.6903 41.0448C44.0306 41.0448 44.3648 40.9553 44.6595 40.7852C44.9542 40.6151 45.1989 40.3705 45.3691 40.0759C45.5392 39.7815 45.6287 39.4475 45.6287 39.1075C45.6287 38.7675 45.5392 38.4335 45.3691 38.1392C45.1989 37.8447 44.9543 37.6002 44.6597 37.4302C44.3651 37.2602 44.031 37.1707 43.6909 37.1708V37.1708ZM27.9763 39.1075H31.4633Z" fill="#00FFFF"/>
</svg>
