<svg width="36" height="36" viewBox="0 0 36 36" fill="none" xmlns="http://www.w3.org/2000/svg">
<mask id="mask0_1814_101" style="mask-type:luminance" maskUnits="userSpaceOnUse" x="0" y="0" width="36" height="36">
<path d="M0 0H36V36H0V0Z" fill="white"/>
</mask>
<g mask="url(#mask0_1814_101)">
<path d="M24.9451 24.8445C26.2726 24.7065 27.2806 23.55 27.2356 22.1625C27.2132 21.4956 26.9337 20.8632 26.4556 20.3977C25.9775 19.9322 25.3379 19.6697 24.6706 19.665H24.5776C23.1571 19.71 22.0576 20.913 22.1026 22.347C22.1506 23.0415 22.4251 23.6415 22.8376 24.057C21.2791 27.1575 18.8971 29.4225 15.3226 31.3185C12.8956 32.6145 10.3756 33.0765 7.85713 32.7525C5.79463 32.475 4.19113 31.5495 3.18313 30.024C1.71763 27.759 1.58113 25.3065 2.81713 22.8555C3.68713 21.099 5.06263 19.803 5.93263 19.1565C5.69666 18.3799 5.49794 17.5925 5.33713 16.797C-1.30637 21.654 -0.617872 28.221 1.39513 31.32C2.90713 33.633 5.97613 35.067 9.36763 35.067C10.2935 35.0733 11.2166 34.9644 12.1156 34.743C17.9806 33.588 22.4236 30.072 24.9436 24.846L24.9451 24.8445ZM33.0076 19.11C29.5261 14.994 24.3946 12.7275 18.5311 12.7275H17.7976C17.5887 12.3111 17.2683 11.9609 16.8721 11.716C16.4759 11.471 16.0195 11.3408 15.5536 11.34H15.4606C14.0416 11.3865 12.9406 12.5895 12.9871 14.0235C13.0321 15.411 14.1781 16.5195 15.5521 16.5195H15.6451C16.129 16.4945 16.5961 16.3338 16.9929 16.0558C17.3897 15.7778 17.7003 15.3937 17.8891 14.9475H18.7141C22.1956 14.9475 25.4941 15.9645 28.4716 17.9535C30.7621 19.4805 32.4121 21.468 33.3271 23.874C34.1071 25.815 34.0621 27.711 33.2371 29.331C31.9531 31.782 29.8006 33.123 26.9596 33.123C25.1281 33.123 23.3866 32.568 22.4701 32.151C21.8107 32.7393 21.1229 33.2949 20.4091 33.816C22.3786 34.7415 24.3946 35.25 26.3191 35.25C30.7171 35.25 33.9691 32.799 35.2066 30.348C36.5341 27.666 36.4426 23.0415 33.0076 19.11ZM9.73513 25.6305C9.78013 27.018 10.9261 28.128 12.3001 28.128H12.3916C13.8121 28.083 14.9116 26.88 14.8666 25.446C14.8442 24.7791 14.5647 24.1467 14.0866 23.6812C13.6085 23.2157 12.9689 22.9532 12.3016 22.9485H12.2086C12.0997 22.9413 11.9904 22.9566 11.8876 22.9935C10.0096 19.8495 9.23113 16.428 9.50563 12.7275C9.68863 9.9525 10.6051 7.548 12.2086 5.559C13.5376 3.849 16.1026 3.0165 17.8441 2.97C22.6996 2.877 24.7606 8.982 24.8986 11.433C25.4941 11.571 26.5021 11.895 27.1891 12.126C26.6386 4.635 22.0591 0.75 17.6596 0.75C13.5376 0.75 9.73513 3.756 8.22313 8.196C6.11563 14.115 7.48963 19.803 10.0561 24.2895C9.82663 24.6135 9.68863 25.122 9.73513 25.6305Z" fill="#E1E8E0"/>
</g>
</svg>
