<svg width="36" height="36" viewBox="0 0 36 36" fill="none" xmlns="http://www.w3.org/2000/svg">
<path d="M18 0C27.9439 0 36 8.05613 36 18C36 27.9439 27.9439 36 18 36C8.05613 36 0 27.9439 0 18C0 8.05613 8.05613 0 18 0ZM14.4191 23.994C14.6835 24.9671 14.6543 25.8694 14.3843 26.6839L14.2897 26.9539C14.2549 27.0472 14.2087 27.135 14.1727 27.2183C13.9562 27.6625 13.6761 28.073 13.3414 28.4366C12.2918 29.574 10.8337 30.0071 10.206 29.6438C9.5265 29.2511 9.86512 27.6401 11.079 26.3554C12.3851 24.9784 14.2605 24.093 14.2605 24.093V24.0885L14.4191 23.994ZM29.2905 7.70512C28.476 4.50562 23.1739 3.45713 18.1575 5.238C15.1695 6.29888 11.9419 7.96387 9.61537 10.1374C6.849 12.7204 6.41025 14.9704 6.5925 15.9075C7.236 19.224 11.7776 21.3986 13.6474 23.004V23.0164C13.095 23.2852 9.06525 25.3069 8.12137 27.405C7.10775 29.6066 8.28 31.1839 9.0405 31.383C11.403 32.0389 13.8341 30.843 15.1414 28.9091C16.4014 27.018 16.2889 24.5925 15.7444 23.3966C16.488 23.1975 17.3677 23.103 18.4927 23.238C21.6461 23.6014 22.2727 25.5825 22.1377 26.3914C22.0027 27.2002 21.3514 27.6739 21.1241 27.8089C20.9025 27.9439 20.8316 27.9844 20.8541 28.0789C20.8778 28.2139 20.9891 28.2139 21.1703 28.1903C21.4166 28.1498 22.8116 27.5164 22.8814 25.9864C22.9455 24.0469 21.0994 21.8914 17.8189 21.9319C16.4655 21.9623 15.6094 22.0725 15.0064 22.3189C14.9626 22.2576 14.909 22.2041 14.8477 22.1602C12.8216 19.9811 9.06525 18.4522 9.22275 15.5452C9.27112 14.4911 9.65137 11.7022 16.4239 8.32725C21.978 5.55525 26.4139 6.32362 27.1755 8.01112C28.278 10.4186 24.8141 14.8961 19.0316 15.5452C16.8277 15.7916 15.6791 14.9423 15.3866 14.6261C15.0705 14.2853 15.03 14.2628 14.9107 14.3336C14.7352 14.4203 14.8466 14.715 14.9107 14.8961C15.0919 15.3461 15.7894 16.1325 17.0089 16.5352C18.063 16.8761 20.6539 17.0752 23.7589 15.8614C27.2452 14.5147 29.9644 10.7584 29.178 7.605L29.2905 7.70512Z" fill="#00FFFF"/>
</svg>
