<svg width="44" height="44" viewBox="0 0 44 44" fill="none" xmlns="http://www.w3.org/2000/svg">
<path d="M16.8058 8.72802e-08C14.5989 -0.000224833 12.4136 0.434266 10.3746 1.27866C8.33566 2.12306 6.48299 3.36082 4.92241 4.92126C3.36182 6.48171 2.12389 8.33428 1.2793 10.3732C0.434707 12.4121 7.58265e-08 14.5974 8.72879e-08 16.8043C-0.000224856 19.0114 0.434316 21.1969 1.27881 23.236C2.1233 25.2751 3.36119 27.1278 4.9218 28.6885C6.48241 30.2491 8.33515 31.487 10.3742 32.3315C12.4133 33.176 14.5988 33.6106 16.8058 33.6103C20.7277 33.6103 24.3293 32.2214 27.1893 29.971L28.6878 31.4696C28.3801 32.0674 28.2712 32.7479 28.3768 33.412C28.4825 34.076 28.7972 34.6891 29.2753 35.162L37.143 43.0829C38.3641 44.3057 40.3627 44.3057 41.5855 43.0829L43.084 41.5843C43.6707 40.9939 44 40.1954 44 39.3631C44 38.5307 43.6707 37.7322 43.084 37.1418L35.1632 29.274C34.687 28.7991 34.0703 28.4907 33.4047 28.3944C32.7392 28.2981 32.0603 28.4192 31.4691 28.7396L29.9706 27.2411C31.9321 24.7658 33.1564 21.7877 33.503 18.6485C33.8496 15.5093 33.3045 12.3359 31.9303 9.4923C30.556 6.64866 28.4082 4.24986 25.7332 2.57096C23.0581 0.892059 19.964 0.001016 16.8058 8.72802e-08ZM16.8058 3.10328C20.4395 3.10328 23.9243 4.54678 26.4937 7.11622C29.0632 9.68566 30.5066 13.1706 30.5066 16.8043C30.5066 20.4381 29.0632 23.923 26.4937 26.4924C23.9243 29.0618 20.4395 30.5053 16.8058 30.5053C13.1721 30.5053 9.68724 29.0618 7.11784 26.4924C4.54843 23.923 3.10495 20.4381 3.10495 16.8043C3.10495 13.1706 4.54843 9.68566 7.11784 7.11622C9.68724 4.54678 13.1721 3.10328 16.8058 3.10328ZM8.13487 12.4697C7.22143 13.9492 6.73976 15.6546 6.74424 17.3935C6.74221 18.624 6.98309 19.8429 7.45306 20.9802C7.92304 22.1175 8.61288 23.1509 9.48302 24.021C10.3532 24.8912 11.3865 25.581 12.5238 26.051C13.661 26.521 14.8799 26.7619 16.1105 26.7598C18.045 26.7558 19.9316 26.158 21.5155 25.0472C21.0885 25.0867 20.6598 25.1039 20.231 25.0986C18.6415 25.1026 17.0669 24.7926 15.5976 24.1862C14.1283 23.5799 12.7933 22.6892 11.6693 21.5653C10.5453 20.4414 9.65439 19.1066 9.04785 17.6373C8.4413 16.1681 8.13103 14.5935 8.13487 13.004C8.13487 12.8259 8.12631 12.6478 8.13487 12.4697Z" fill="#EEEEEE"/>
</svg>
