<svg width="42" height="35" viewBox="0 0 42 35" fill="none" xmlns="http://www.w3.org/2000/svg">
<path d="M16.8 4.11765C16.8 3.02558 17.2425 1.97824 18.0302 1.20603C18.8178 0.433822 19.8861 0 21 0C22.1139 0 23.1822 0.433822 23.9698 1.20603C24.7575 1.97824 25.2 3.02558 25.2 4.11765V6.67059C28.952 7.58605 32.2833 9.70712 34.6622 12.6954C37.0411 15.6837 38.3306 19.367 38.325 23.1576C38.325 23.5672 38.1591 23.9599 37.8637 24.2495C37.5683 24.5391 37.1677 24.7018 36.75 24.7018H5.25C4.83228 24.7018 4.43168 24.5391 4.13631 24.2495C3.84094 23.9599 3.675 23.5672 3.675 23.1576C3.675 15.2106 9.2778 8.54412 16.8 6.68912V4.11765ZM23.625 11.3235C23.2073 11.3235 22.8067 11.4862 22.5113 11.7758C22.2159 12.0654 22.05 12.4581 22.05 12.8676C22.05 13.2772 22.2159 13.6699 22.5113 13.9595C22.8067 14.2491 23.2073 14.4118 23.625 14.4118C26.2563 14.4118 28.1253 15.6841 29.6856 17.8706C29.8042 18.0367 29.955 18.1783 30.1294 18.2873C30.3038 18.3964 30.4984 18.4706 30.7021 18.5059C30.9058 18.5412 31.1145 18.5368 31.3165 18.4929C31.5184 18.4491 31.7096 18.3667 31.879 18.2504C32.0485 18.1342 32.193 17.9863 32.3041 17.8153C32.4153 17.6444 32.4911 17.4536 32.5271 17.2539C32.563 17.0542 32.5585 16.8495 32.5138 16.6515C32.4691 16.4536 32.3851 16.2661 32.2665 16.1C30.3135 13.3618 27.5856 11.3235 23.625 11.3235ZM0 30.8824C0 29.7903 0.442499 28.7429 1.23015 27.9707C2.0178 27.1985 3.08609 26.7647 4.2 26.7647H37.8C38.9139 26.7647 39.9822 27.1985 40.7698 27.9707C41.5575 28.7429 42 29.7903 42 30.8824C42 31.9744 41.5575 33.0218 40.7698 33.794C39.9822 34.5662 38.9139 35 37.8 35H4.2C3.08609 35 2.0178 34.5662 1.23015 33.794C0.442499 33.0218 0 31.9744 0 30.8824Z" fill="#EEEEEE"/>
</svg>
