<svg width="24" height="15" viewBox="0 0 24 15" fill="none" xmlns="http://www.w3.org/2000/svg">
<path d="M12 0C8.8 0 6.8 1.6 6 4.8C7.2 3.2 8.6 2.6 10.2 3C11.113 3.228 11.765 3.89 12.488 4.624C13.665 5.818 15.026 7.2 18 7.2C21.2 7.2 23.2 5.6 24 2.4C22.8 4 21.4 4.6 19.8 4.2C18.887 3.972 18.235 3.31 17.512 2.576C16.336 1.382 14.975 0 12 0ZM6 7.2C2.8 7.2 0.8 8.8 0 12C1.2 10.4 2.6 9.8 4.2 10.2C5.113 10.428 5.765 11.09 6.488 11.824C7.665 13.018 9.026 14.4 12 14.4C15.2 14.4 17.2 12.8 18 9.6C16.8 11.2 15.4 11.8 13.8 11.4C12.887 11.172 12.235 10.51 11.512 9.776C10.336 8.582 8.975 7.2 6 7.2V7.2Z" fill="#00FFFF"/>
</svg>
