<svg width="36" height="36" viewBox="0 0 36 36" fill="none" xmlns="http://www.w3.org/2000/svg">
<path d="M18 0C27.9315 0 36 8.0685 36 18C36 27.9315 27.9315 36 18 36C8.0685 36 0 27.9315 0 18C0 8.0685 8.0685 0 18 0ZM22.9163 26.5196C22.3646 26.839 21.9624 27.3645 21.7981 27.9805C21.6339 28.5964 21.721 29.2524 22.0404 29.8041C22.3598 30.3557 22.8853 30.758 23.5013 30.9222C24.1172 31.0864 24.7732 30.9993 25.3249 30.6799C25.5982 30.5222 25.8376 30.3121 26.0295 30.0616C26.2214 29.8112 26.3619 29.5253 26.443 29.2204C26.5241 28.9155 26.5442 28.5976 26.5021 28.2849C26.4601 27.9722 26.3567 27.6709 26.1979 27.3983C26.0407 27.1245 25.8309 26.8845 25.5807 26.6921C25.3304 26.4996 25.0446 26.3585 24.7397 26.2769C24.4347 26.1953 24.1167 26.1747 23.8037 26.2163C23.4908 26.258 23.1892 26.3611 22.9163 26.5196ZM18 25.02C16.9783 25.0204 15.9687 24.7986 15.0413 24.3698L13.3717 27.3577C14.8107 28.071 16.3951 28.4422 18.0011 28.4422C18.9675 28.4422 19.9058 28.3072 20.79 28.0553C20.8707 27.5621 21.0596 27.093 21.3433 26.6816C21.6269 26.2702 21.9981 25.9267 22.4303 25.6759C22.8632 25.425 23.3467 25.2738 23.8455 25.2333C24.3443 25.1928 24.8458 25.2641 25.3136 25.4419C27.1519 23.6465 28.2584 21.2328 28.4186 18.6682L24.9908 18.621C24.8356 20.3681 24.032 21.9939 22.7382 23.1782C21.4443 24.3625 19.754 25.0196 18 25.02ZM10.98 18C10.9794 16.8737 11.2501 15.7639 11.7692 14.7644C12.2883 13.7649 13.0406 12.9052 13.9624 12.258L12.2108 9.31612C10.0769 10.7336 8.53793 12.8855 7.88625 15.363C8.27731 15.6768 8.59257 16.0747 8.80857 16.5272C9.02458 16.9796 9.13577 17.475 9.13388 17.9764C9.13388 19.0316 8.64787 19.9564 7.88625 20.5841C8.53708 23.0635 10.0761 25.2174 12.2108 26.6366L13.9624 23.6891C13.0401 23.0549 12.2864 22.2053 11.7667 21.2139C11.247 20.2225 10.9769 19.1193 10.98 18ZM5.76 15.5981C4.43025 15.5981 3.35812 16.6702 3.35812 18C3.35812 19.3298 4.43025 20.4019 5.76 20.4019C7.08975 20.4019 8.16187 19.3298 8.16187 18C8.16187 16.6702 7.08975 15.5981 5.76 15.5981ZM18 10.98C19.754 10.9804 21.4443 11.6375 22.7382 12.8218C24.032 14.0061 24.8356 15.6319 24.9908 17.379L28.4186 17.3261C28.2533 14.7629 27.1476 12.3508 25.3136 10.5525C24.399 10.8979 23.3449 10.845 22.4303 10.3241C21.9972 10.0716 21.6255 9.72626 21.3418 9.31289C21.0582 8.89953 20.8697 8.42843 20.79 7.9335C19.881 7.68594 18.9432 7.55997 18.0011 7.55888C16.3949 7.55762 14.8103 7.92884 13.3717 8.64338L15.0413 11.6314C15.9687 11.2027 16.9783 10.9808 18 10.9811V10.98ZM22.9163 9.48038C23.469 9.79847 24.1252 9.88462 24.7413 9.71994C25.3574 9.55527 25.8832 9.1532 26.2035 8.60175C26.4414 8.1899 26.5519 7.71674 26.521 7.2421C26.4901 6.76746 26.3191 6.31265 26.0297 5.93516C25.7404 5.55767 25.3455 5.27446 24.8952 5.12132C24.4449 4.96819 23.9593 4.95201 23.4998 5.07483C23.0403 5.19765 22.6275 5.45396 22.3136 5.81135C21.9997 6.16873 21.7989 6.61116 21.7364 7.08269C21.674 7.55422 21.7527 8.03368 21.9627 8.46045C22.1727 8.88723 22.5046 9.24216 22.9163 9.48038Z" fill="#E1E8E0"/>
</svg>
