<svg width="24" height="24" viewBox="0 0 24 24" fill="none" xmlns="http://www.w3.org/2000/svg">
<path d="M8.145 0V5.867L9.99 7.71H14.012L15.857 5.866V0H8.145ZM16.29 0V5.867L18.135 7.711H23.999V0.001L16.29 0ZM1.845 0L0 1.845V7.711H7.712V0H1.845ZM0 8.146V15.856H5.866L7.711 14.012V8.145L0 8.146ZM18.133 8.146L16.29 9.989V14.011L18.135 15.856H24V8.145L18.133 8.146ZM11.986 10.896C11.6929 10.8979 11.4126 11.0161 11.2067 11.2246C11.0008 11.4331 10.8861 11.7149 10.888 12.008C10.8899 12.3011 11.0081 12.5814 11.2166 12.7873C11.4251 12.9932 11.7069 13.1079 12 13.106C12.1452 13.106 12.289 13.0774 12.4231 13.0218C12.5572 12.9662 12.6791 12.8847 12.7817 12.782C12.8843 12.6793 12.9657 12.5574 13.0212 12.4232C13.0766 12.289 13.1051 12.1452 13.105 12C13.1049 11.8539 13.0758 11.7092 13.0194 11.5744C12.963 11.4396 12.8804 11.3173 12.7764 11.2147C12.6724 11.112 12.5491 11.031 12.4136 10.9763C12.2781 10.9216 12.1331 10.8943 11.987 10.896H11.986ZM0 16.29V24H5.866L7.711 22.158V18.135L5.866 16.29H0ZM9.988 16.29L8.145 18.135V24H15.855V18.134L14.01 16.29H9.988ZM16.288 16.29V24H24V18.135L22.158 16.29H16.288Z" fill="#33E1FF"/>
</svg>
