<svg width="26" height="26" viewBox="0 0 26 26" fill="none" xmlns="http://www.w3.org/2000/svg">
<path d="M13 0C5.8 0 0 5.8 0 13C0 20.2 5.8 26 13 26C20.2 26 26 20.2 26 13C26 5.8 20.2 0 13 0ZM13 2C19.1 2 24 6.9 24 13C24 19.1 19.1 24 13 24C6.9 24 2 19.1 2 13C2 6.9 6.9 2 13 2ZM13.209 6.045C12.759 6.121 12.301 7.5 12.301 7.5C12.301 7.5 11.1 7.3 10.1 8.3C9.9 8.5 9.7 8.6 9.4 8.7C9.3 8.8 9.2 8.8 9 9.4C8.6 10.3 9.6 11.4 9.6 11.4C7.5 12.9 7.6 14.9 7.7 15.4C6.4 16.5 6.9 17.9 7.2 18.3C7.4 18.6 7.6 18.5 7.7 18.5C7.7 18.6 7.2 19.2 7.7 19.4C8.2 19.7 9 19.8 9.4 19.4C9.7 19.1 9.8 18.5 9.9 18.2C10 18.1 10 18.4 10.4 18.6C10.4 18.6 9.7 18.9 10 19.6C10.1 19.8 10.4 20 11 20C11.2 20 13.6 19.9 14.2 19.7C14.6 19.6 14.7 19.4 14.7 19.4C17.3 18.7 17.8 17.6 19.6 17.2C20.2 17.1 20.2 16.1 19.1 16.2C18.3 16.2 17.6 16.6 17 17C16 17.6 15.3 17.7 15.3 17.6C15.2 17.5 15.7 16.3 15.2 15C14.7 13.6 13.8 13.2 13.9 13.1C14.2 12.6 14.9 11.8 15.2 10.4C15.3 9.5 15.3 8 14.9 7.3C14.8 7.1 14.2 7.5 14.2 7.5C14.2 7.5 13.6 6.2 13.4 6.1C13.3742 6.07738 13.3436 6.06072 13.3106 6.05121C13.2776 6.04171 13.2429 6.03959 13.209 6.045V6.045Z" fill="#00FFFF"/>
</svg>
